<svg xmlns="http://www.w3.org/2000/svg" width="1000" height="462" viewBox="0 0 1000 462" role="img" aria-label="Mass-weighted forward velocity"><rect width="100%" height="100%" fill="white"/><text x="76" y="30" font-family="Arial" font-size="19" fill="#172c35">Mass-weighted forward velocity</text><path d="M80 355.00H955" stroke="#e2e8eb"/><text x="69" y="359.00" text-anchor="end" font-family="Arial" font-size="12">8.876</text><text x="80.00" y="378" text-anchor="middle" font-family="Arial" font-size="12">0</text><path d="M80 296.00H955" stroke="#e2e8eb"/><text x="69" y="300.00" text-anchor="end" font-family="Arial" font-size="12">17.57</text><text x="255.00" y="378" text-anchor="middle" font-family="Arial" font-size="12">0.724</text><path d="M80 237.00H955" stroke="#e2e8eb"/><text x="69" y="241.00" text-anchor="end" font-family="Arial" font-size="12">26.26</text><text x="430.00" y="378" text-anchor="middle" font-family="Arial" font-size="12">1.448</text><path d="M80 178.00H955" stroke="#e2e8eb"/><text x="69" y="182.00" text-anchor="end" font-family="Arial" font-size="12">34.95</text><text x="605.00" y="378" text-anchor="middle" font-family="Arial" font-size="12">2.172</text><path d="M80 119.00H955" stroke="#e2e8eb"/><text x="69" y="123.00" text-anchor="end" font-family="Arial" font-size="12">43.64</text><text x="780.00" y="378" text-anchor="middle" font-family="Arial" font-size="12">2.896</text><path d="M80 60.00H955" stroke="#e2e8eb"/><text x="69" y="64.00" text-anchor="end" font-family="Arial" font-size="12">52.33</text><text x="955.00" y="378" text-anchor="middle" font-family="Arial" font-size="12">3.62</text><path d="M80 60V355H955" fill="none" stroke="#657882"/><text x="520" y="403" text-anchor="middle" font-family="Arial" font-size="13">Time (ms)</text><text x="18" y="205" transform="rotate(-90 18 205)" text-anchor="middle" font-family="Arial" font-size="13">Velocity (m/s)</text><polyline points="80.00,75.80 82.41,85.64 84.82,101.93 87.24,114.48 89.65,123.42 92.08,132.32 94.50,142.30 96.90,154.00 99.33,163.77 101.74,172.89 104.16,182.47 106.59,190.58 109.00,197.11 111.41,203.42 113.82,209.42 116.24,213.81 118.67,216.43 121.08,217.72 123.51,218.38 125.91,218.74 128.34,218.84 130.76,218.84 133.16,218.84 135.58,218.84 137.99,218.84 140.41,218.84 142.84,218.84 145.26,218.84 147.68,218.84 150.09,218.84 152.51,218.84 154.93,218.84 157.34,218.84 159.75,218.84 162.18,218.84 164.60,218.84 167.00,218.84 169.41,218.84 171.83,218.84 174.27,218.84 176.68,218.84 179.08,218.84 181.50,218.84 183.92,218.84 186.35,218.84 188.76,218.84 191.17,218.84 193.60,218.84 196.01,218.84 198.42,218.84 200.84,218.84 203.26,218.84 205.68,218.84 208.09,218.84 210.51,218.84 212.93,218.84 215.36,218.84 217.77,218.84 220.18,218.84 222.61,218.84 225.01,218.84 227.44,218.84 229.85,218.84 232.27,218.84 234.68,218.84 237.10,218.84 239.52,218.84 241.94,218.84 244.36,218.84 246.77,218.84 249.20,218.84 251.62,218.84 254.03,218.84 256.44,218.84 258.85,218.84 261.28,218.84 263.69,218.84 266.11,218.84 268.53,218.84 270.95,218.84 273.37,218.84 275.77,218.84 278.20,218.84 280.62,218.84 283.02,218.84 285.44,218.84 287.86,218.84 290.28,218.84 292.70,218.84 295.11,218.84 297.54,218.84 299.96,218.84 302.37,218.84 304.78,218.84 307.20,218.84 309.61,218.84 312.03,218.84 314.44,218.84 316.87,218.84 319.29,218.84 321.70,218.84 324.12,218.84 326.53,218.84 328.96,218.84 331.38,218.84 333.79,218.84 336.21,218.84 338.62,218.84 341.03,218.84 343.45,218.84 345.87,218.84 348.29,218.84 350.71,218.84 353.14,218.84 355.55,218.84 357.95,218.84 360.37,218.84 362.80,218.84 365.20,218.84 367.62,218.84 370.04,218.84 372.46,218.84 374.89,218.84 377.31,218.84 379.70,218.84 382.13,218.84 384.55,218.84 386.97,218.84 389.39,218.84 391.81,218.84 394.22,218.84 396.62,218.84 399.04,218.84 401.47,218.84 403.88,218.84 406.30,218.84 408.71,218.84 411.15,218.84 413.55,218.84 415.98,218.84 418.39,218.84 420.80,218.84 423.22,218.84 425.64,218.84 428.05,218.84 430.48,218.84 432.88,218.84 435.31,218.84 437.72,218.84 440.14,218.84 442.57,218.84 444.97,218.84 447.39,218.84 449.82,218.84 452.24,218.84 454.65,218.84 457.07,218.84 459.47,218.84 461.89,218.84 464.31,218.84 466.74,218.84 469.15,218.84 471.57,218.84 473.97,218.84 476.40,218.84 478.81,218.84 481.23,218.84 483.66,218.84 486.08,218.84 488.48,218.84 490.89,218.84 493.32,218.84 495.73,218.84 498.15,218.84 500.58,218.84 502.99,218.84 505.40,218.84 507.82,218.84 510.24,218.84 512.66,218.84 515.08,218.84 517.50,218.84 519.90,218.84 522.33,218.84 524.75,218.84 527.16,218.84 529.57,218.84 532.00,218.84 534.42,218.84 536.83,218.84 539.24,218.84 541.66,218.84 544.08,218.84 546.50,218.84 548.91,218.84 551.34,218.84 553.74,218.84 556.16,218.84 558.58,218.84 560.99,218.84 563.43,218.84 565.84,218.84 568.25,218.84 570.66,218.84 573.09,218.84 575.50,218.84 577.92,218.84 580.33,218.84 582.75,218.84 585.18,218.84 587.58,218.84 590.01,218.84 592.42,218.84 594.84,218.84 597.25,218.84 599.68,218.84 602.08,218.84 604.51,218.84 606.92,218.84 609.35,218.84 611.76,218.84 614.18,218.84 616.60,218.84 619.02,218.84 621.42,218.84 623.85,218.84 626.25,218.84 628.67,218.84 631.09,218.84 633.50,218.84 635.92,218.84 638.34,218.84 640.76,218.84 643.17,218.84 645.59,218.84 648.02,218.84 650.43,218.84 652.85,218.84 655.28,218.84 657.68,218.84 660.10,218.84 662.53,218.84 664.94,218.84 667.36,218.84 669.78,218.86 672.19,219.06 674.61,219.53 677.02,220.17 679.43,221.19 681.85,223.19 684.28,226.87 686.70,233.96 689.11,243.51 691.52,251.58 693.95,257.51 696.35,262.30 698.78,267.38 701.19,272.65 703.61,277.65 706.03,282.72 708.45,287.60 710.87,291.84 713.29,295.53 715.70,298.60 718.11,301.22 720.53,303.29 722.94,304.68 725.37,305.28 727.79,305.44 730.19,305.47 732.63,305.48 735.03,305.48 737.44,305.48 739.87,305.48 742.28,305.48 744.69,305.48 747.13,305.48 749.53,305.48 751.95,305.48 754.36,305.48 756.78,305.48 759.21,305.48 761.62,305.48 764.04,305.48 766.45,305.48 768.86,305.48 771.30,305.48 773.70,305.48 776.12,305.48 778.54,305.48 780.95,305.53 783.38,305.65 785.80,305.84 788.21,306.08 790.63,306.33 793.04,306.51 795.47,306.59 797.89,306.59 800.30,306.59 802.71,306.59 805.13,306.59 807.54,306.59 809.98,306.59 812.39,306.59 814.80,306.59 817.22,306.59 819.63,306.59 822.06,306.59 824.48,306.59 826.90,306.59 829.30,306.59 831.72,306.63 834.13,306.69 836.56,306.71 838.97,306.72 841.38,306.72 843.80,306.72 846.22,306.72 848.65,306.72 851.06,306.72 853.47,306.72 855.89,306.72 858.31,306.72 860.72,306.72 863.15,306.72 865.56,306.72 867.97,306.72 870.39,306.73 872.82,306.95 875.22,307.77 877.64,308.72 880.05,309.37 882.47,309.64 884.89,309.73 887.32,309.76 889.72,309.79 892.14,309.84 894.56,309.88 896.99,309.89 899.41,309.89 901.81,309.89 904.23,309.89 906.65,309.91 909.07,309.94 911.49,309.95 913.90,309.95 916.32,309.97 918.75,310.01 921.15,310.17 923.56,310.35 925.98,310.71 928.41,311.31 930.82,312.28 933.23,313.87 935.65,315.95 938.08,318.35 940.48,321.12 942.91,324.25 945.33,327.36 947.75,330.35 950.17,333.33 952.57,336.26 955.00,339.20" fill="none" stroke="#067d89" stroke-width="1.8"/><path d="M80 428h20" stroke="#067d89" stroke-width="3"/><text x="106" y="432" font-family="Arial" font-size="12">Moving assembly</text></svg>