<svg xmlns="http://www.w3.org/2000/svg" width="1000" height="506" viewBox="0 0 1000 506" role="img" aria-label="Regional P99 von Mises stress"><rect width="100%" height="100%" fill="white"/><text x="76" y="30" font-family="Arial" font-size="19" fill="#172c35">Regional P99 von Mises stress</text><path d="M80 355.00H955" stroke="#e2e8eb"/><text x="69" y="359.00" text-anchor="end" font-family="Arial" font-size="12">-7.234</text><text x="80.00" y="378" text-anchor="middle" font-family="Arial" font-size="12">0</text><path d="M80 296.00H955" stroke="#e2e8eb"/><text x="69" y="300.00" text-anchor="end" font-family="Arial" font-size="12">19.77</text><text x="255.00" y="378" text-anchor="middle" font-family="Arial" font-size="12">1.6</text><path d="M80 237.00H955" stroke="#e2e8eb"/><text x="69" y="241.00" text-anchor="end" font-family="Arial" font-size="12">46.78</text><text x="430.00" y="378" text-anchor="middle" font-family="Arial" font-size="12">3.2</text><path d="M80 178.00H955" stroke="#e2e8eb"/><text x="69" y="182.00" text-anchor="end" font-family="Arial" font-size="12">73.79</text><text x="605.00" y="378" text-anchor="middle" font-family="Arial" font-size="12">4.8</text><path d="M80 119.00H955" stroke="#e2e8eb"/><text x="69" y="123.00" text-anchor="end" font-family="Arial" font-size="12">100.8</text><text x="780.00" y="378" text-anchor="middle" font-family="Arial" font-size="12">6.4</text><path d="M80 60.00H955" stroke="#e2e8eb"/><text x="69" y="64.00" text-anchor="end" font-family="Arial" font-size="12">127.8</text><text x="955.00" y="378" text-anchor="middle" font-family="Arial" font-size="12">8</text><path d="M80 60V355H955" fill="none" stroke="#657882"/><text x="520" y="403" text-anchor="middle" font-family="Arial" font-size="13">Time (ms)</text><text x="18" y="205" transform="rotate(-90 18 205)" text-anchor="middle" font-family="Arial" font-size="13">Stress (MPa)</text><polyline points="80.00,339.20 81.09,231.73 82.18,196.27 83.27,167.59 84.37,137.55 85.47,118.60 86.56,104.55 87.65,110.71 88.75,128.95 89.83,139.62 90.93,144.85 92.03,156.75 93.12,171.57 94.21,174.03 95.31,170.98 96.40,168.97 97.50,161.23 98.58,158.82 99.68,143.93 100.77,143.33 101.87,142.07 102.96,147.33 104.05,144.90 105.16,138.65 106.24,145.59 107.34,155.04 108.44,160.78 109.53,162.83 110.62,168.45 111.72,164.84 112.81,169.77 113.90,166.04 115.00,163.18 116.09,165.59 117.18,159.39 118.27,156.09 119.37,159.70 120.47,157.41 121.56,159.42 122.65,165.20 123.75,172.10 124.83,175.04 125.94,178.50 127.03,184.37 128.12,186.76 129.21,185.77 130.31,189.16 131.40,193.61 132.49,197.57 133.58,203.40 134.68,206.08 135.77,210.29 136.87,207.96 137.96,215.02 139.06,211.29 140.16,214.19 141.25,213.81 142.34,214.49 143.43,213.63 144.53,209.38 145.62,212.98 146.71,211.76 147.81,212.08 148.90,211.39 149.99,212.91 151.09,207.22 152.18,203.41 153.27,202.78 154.37,204.96 155.46,202.74 156.55,201.12 157.65,201.84 158.75,203.50 159.84,200.07 160.93,196.20 162.03,195.97 163.12,194.97 164.21,190.49 165.31,178.90 166.40,176.39 167.50,172.74 168.59,171.50 169.68,164.98 170.77,164.72 171.87,165.21 172.96,158.28 174.06,156.67 175.16,157.05 176.24,157.71 177.34,162.37 178.43,163.41 179.53,167.25 180.62,167.25 181.71,165.99 182.81,166.96 183.90,169.40 184.99,176.15 186.09,180.56 187.18,183.27 188.28,186.24 189.37,189.82 190.47,190.54 191.55,193.80 192.65,191.68 193.75,188.07 194.84,190.27 195.93,189.44 197.03,192.81 198.12,195.29 199.22,200.62 200.30,198.55 201.40,202.39 202.50,204.46 203.59,209.55 204.68,210.11 205.78,208.99 206.87,207.28 207.96,203.58 209.06,206.20 210.15,211.27 211.24,210.05 212.33,210.55 213.43,213.79 214.52,212.32 215.62,211.73 216.71,213.17 217.80,213.23 218.90,211.02 219.99,207.20 221.08,209.00 222.18,208.01 223.27,201.47 224.37,194.39 225.46,192.27 226.55,190.19 227.65,190.40 228.74,193.00 229.84,194.46 230.93,193.83 232.02,186.81 233.12,184.35 234.22,182.45 235.30,183.87 236.40,182.43 237.50,175.91 238.59,170.44 239.68,167.64 240.78,167.68 241.86,172.21 242.97,175.46 244.05,176.41 245.15,179.15 246.25,175.03 247.33,172.21 248.43,176.21 249.52,177.99 250.62,181.21 251.72,180.44 252.81,184.34 253.90,184.15 254.99,185.87 256.09,188.98 257.18,192.34 258.28,198.65 259.37,204.92 260.47,212.39 261.55,218.11 262.65,222.30 263.74,224.36 264.84,224.99 265.93,225.31 267.02,222.84 268.12,218.37 269.22,219.94 270.30,225.53 271.40,228.56 272.49,229.19 273.59,229.49 274.69,228.15 275.77,225.72 276.87,227.43 277.96,226.10 279.06,227.08 280.16,228.26 281.24,225.28 282.34,224.70 283.43,221.99 284.52,218.38 285.62,211.43 286.71,207.28 287.81,195.56 288.90,186.93 290.00,190.33 291.09,196.60 292.18,190.54 293.28,186.47 294.37,185.81 295.46,184.14 296.56,181.18 297.65,175.52 298.74,177.69 299.84,180.65 300.93,186.42 302.02,192.61 303.12,196.68 304.21,202.58 305.31,202.42 306.39,206.28 307.49,208.37 308.58,208.13 309.68,210.36 310.77,214.65 311.87,215.41 312.96,208.95 314.05,211.19 315.15,215.89 316.24,220.11 317.34,222.33 318.43,221.82 319.53,223.96 320.62,223.70 321.71,226.06 322.81,224.69 323.90,227.90 325.00,228.02 326.09,226.65 327.18,223.78 328.28,224.84 329.36,225.34 330.46,224.33 331.56,222.14 332.65,226.06 333.74,223.14 334.84,220.25 335.93,214.94 337.03,210.48 338.12,209.76 339.22,208.82 340.31,202.49 341.40,201.04 342.49,199.91 343.59,194.69 344.68,194.81 345.77,196.82 346.87,195.23 347.97,188.27 349.06,188.92 350.15,185.99 351.24,186.29 352.34,190.58 353.43,186.41 354.53,189.78 355.62,192.98 356.72,194.90 357.81,196.38 358.90,198.23 359.99,200.29 361.09,202.39 362.18,201.79 363.28,199.97 364.37,200.29 365.46,199.50 366.56,204.33 367.65,206.27 368.74,209.69 369.84,210.52 370.93,208.91 372.03,209.09 373.12,215.26 374.21,223.05 375.30,224.95 376.40,222.59 377.50,225.16 378.58,222.70 379.68,225.86 380.78,226.70 381.87,225.43 382.96,221.86 384.06,221.38 385.15,227.51 386.24,221.84 387.34,226.40 388.43,228.29 389.52,221.75 390.62,222.11 391.72,219.64 392.81,216.83 393.90,213.92 394.99,211.34 396.08,215.37 397.18,215.02 398.27,216.43 399.37,220.75 400.46,218.15 401.56,211.14 402.65,206.96 403.74,202.51 404.84,198.33 405.93,200.18 407.02,201.20 408.12,202.81 409.21,206.00 410.31,210.94 411.40,210.60 412.49,205.76 413.59,200.07 414.68,196.10 415.78,197.72 416.87,197.67 417.96,195.26 419.06,195.78 420.15,196.13 421.25,198.93 422.34,202.40 423.43,205.94 424.52,213.70 425.62,222.83 426.72,224.36 427.81,223.79 428.90,222.69 430.00,221.17 431.09,219.10 432.18,216.29 433.28,212.44 434.37,214.66 435.47,221.12 436.56,226.08 437.65,225.99 438.74,226.76 439.84,226.87 440.93,219.36 442.03,221.10 443.12,222.99 444.22,224.99 445.31,225.21 446.40,222.59 447.49,223.80 448.59,219.02 449.68,217.87 450.77,219.50 451.87,215.55 452.96,215.15 454.05,213.22 455.15,214.01 456.25,216.08 457.34,215.59 458.43,212.98 459.52,206.70 460.62,203.55 461.71,197.19 462.81,198.92 463.90,198.02 465.00,201.43 466.09,202.48 467.18,199.75 468.28,199.81 469.37,198.96 470.46,200.26 471.56,204.88 472.65,209.39 473.75,210.62 474.83,210.95 475.93,209.38 477.03,207.69 478.12,207.40 479.21,203.22 480.31,201.54 481.40,202.41 482.50,197.96 483.59,196.72 484.68,197.67 485.77,198.33 486.86,199.22 487.97,198.44 489.06,195.52 490.15,191.05 491.24,192.00 492.34,189.95 493.43,190.05 494.52,190.23 495.62,194.24 496.71,202.88 497.80,207.11 498.90,212.08 499.99,215.55 501.08,212.71 502.18,211.95 503.28,216.18 504.37,214.42 505.46,213.00 506.56,218.42 507.65,221.47 508.74,218.59 509.83,221.37 510.93,224.35 512.02,226.34 513.12,228.45 514.21,226.82 515.30,227.07 516.40,229.90 517.49,228.82 518.59,228.55 519.68,229.91 520.78,231.99 521.87,232.39 522.96,229.55 524.06,230.66 525.15,228.96 526.24,230.66 527.34,226.98 528.43,225.81 529.53,223.36 530.62,223.10 531.71,223.23 532.81,222.84 533.90,220.07 534.99,220.75 536.08,214.44 537.18,211.40 538.28,211.55 539.37,213.81 540.46,214.61 541.55,215.20 542.64,222.39 543.74,224.54 544.83,223.43 545.93,222.12 547.02,219.72 548.12,217.93 549.21,217.57 550.31,216.98 551.40,217.35 552.49,217.57 553.59,216.71 554.68,217.85 555.77,216.04 556.86,221.79 557.96,226.10 559.05,232.06 560.15,233.18 561.24,233.32 562.33,232.91 563.43,231.42 564.53,235.21 565.62,237.18 566.71,233.40 567.81,234.08 568.90,238.91 570.00,239.46 571.08,243.53 572.18,245.70 573.27,245.68 574.36,245.33 575.46,242.13 576.56,236.93 577.65,233.74 578.75,238.32 579.84,239.10 580.93,235.99 582.02,230.78 583.12,229.11 584.22,221.26 585.31,220.59 586.40,221.23 587.49,219.59 588.58,220.14 589.68,215.98 590.77,216.82 591.86,218.12 592.96,218.18 594.06,220.47 595.15,222.72 596.25,222.61 597.34,223.23 598.43,221.08 599.53,219.94 600.62,220.43 601.71,217.99 602.81,217.26 603.90,205.65 604.99,202.86 606.08,200.67 607.18,198.61 608.28,196.92 609.37,194.02 610.46,197.90 611.56,202.98 612.64,202.02 613.74,201.82 614.83,202.27 615.93,205.08 617.02,206.59 618.12,205.92 619.21,205.25 620.31,207.14 621.40,214.76 622.49,218.01 623.58,217.90 624.68,218.49 625.78,220.29 626.87,219.16 627.96,223.22 629.05,225.18 630.15,227.62 631.24,226.33 632.34,225.02 633.43,219.40 634.53,221.25 635.61,224.27 636.71,226.65 637.81,229.18 638.90,226.33 639.99,226.48 641.09,231.04 642.18,232.52 643.28,231.16 644.37,231.01 645.46,225.95 646.55,227.41 647.65,231.83 648.74,229.55 649.84,231.84 650.93,234.11 652.02,232.18 653.12,233.48 654.21,241.14 655.30,243.82 656.40,245.24 657.49,241.03 658.59,239.81 659.68,239.73 660.77,242.56 661.87,242.58 662.96,239.59 664.06,235.26 665.15,231.35 666.24,231.13 667.33,229.40 668.43,227.48 669.52,228.36 670.62,227.93 671.71,231.36 672.80,237.25 673.90,239.33 674.99,239.73 676.09,235.85 677.18,233.45 678.28,227.22 679.36,227.92 680.46,225.49 681.55,227.31 682.65,228.55 683.74,226.32 684.83,227.29 685.93,228.01 687.03,230.15 688.12,231.78 689.21,235.85 690.30,240.32 691.40,243.55 692.49,241.23 693.58,239.38 694.68,239.32 695.77,237.88 696.87,232.14 697.96,231.38 699.05,233.20 700.15,232.64 701.25,233.01 702.34,229.29 703.43,229.46 704.52,237.04 705.62,240.78 706.71,243.65 707.80,244.59 708.89,244.07 709.99,245.07 711.08,242.67 712.18,242.10 713.27,243.47 714.37,240.98 715.46,240.19 716.55,236.18 717.65,234.00 718.74,231.86 719.84,229.64 720.93,232.93 722.02,235.61 723.11,236.48 724.21,236.35 725.30,236.30 726.40,231.92 727.50,229.07 728.58,224.28 729.68,224.82 730.77,226.08 731.86,224.76 732.96,221.28 734.05,222.12 735.15,226.57 736.24,230.29 737.33,231.93 738.43,230.24 739.52,232.67 740.62,232.22 741.71,231.63 742.81,229.93 743.90,228.66 744.99,231.20 746.09,231.76 747.17,229.32 748.27,229.18 749.36,230.95 750.46,233.54 751.55,230.40 752.65,230.92 753.74,237.64 754.84,237.51 755.92,239.82 757.03,241.90 758.12,239.22 759.21,239.49 760.30,237.11 761.40,235.33 762.50,235.18 763.58,235.77 764.68,235.81 765.78,233.77 766.86,236.21 767.96,237.35 769.05,240.44 770.14,242.88 771.25,244.72 772.33,241.48 773.43,240.36 774.52,243.05 775.62,242.00 776.71,238.55 777.80,240.18 778.90,240.47 780.00,243.51 781.09,244.64 782.18,244.18 783.28,245.32 784.37,247.34 785.46,247.61 786.55,246.28 787.64,244.04 788.74,244.57 789.84,242.34 790.93,239.85 792.02,241.89 793.12,245.67 794.21,246.50 795.30,243.90 796.40,245.51 797.49,245.46 798.58,245.37 799.68,246.69 800.78,247.32 801.87,244.11 802.96,241.05 804.06,239.49 805.15,237.99 806.24,240.59 807.33,243.99 808.43,242.95 809.53,244.40 810.61,239.19 811.71,235.99 812.80,238.85 813.89,241.55 814.99,243.16 816.09,246.03 817.18,248.23 818.27,249.01 819.37,248.33 820.46,248.32 821.55,247.94 822.65,246.86 823.74,243.60 824.84,239.62 825.93,239.55 827.02,239.94 828.12,239.59 829.21,241.42 830.30,243.84 831.40,245.71 832.49,249.33 833.58,253.07 834.68,251.13 835.77,250.00 836.86,248.77 837.95,250.16 839.05,251.97 840.15,247.58 841.24,251.24 842.33,252.56 843.43,250.32 844.52,249.59 845.61,249.86 846.71,249.08 847.80,248.51 848.89,249.65 849.99,248.58 851.09,251.47 852.17,250.70 853.27,252.02 854.37,249.53 855.46,246.59 856.56,242.08 857.65,241.32 858.74,240.97 859.84,240.53 860.93,239.35 862.03,242.69 863.12,244.83 864.20,243.33 865.31,245.66 866.40,249.31 867.50,247.54 868.58,246.56 869.68,244.40 870.77,242.66 871.86,240.99 872.96,239.34 874.06,241.17 875.14,240.09 876.24,241.19 877.34,243.90 878.43,244.11 879.52,245.24 880.62,244.68 881.71,240.38 882.80,238.14 883.90,238.85 884.99,239.26 886.09,236.73 887.18,231.63 888.27,233.78 889.36,237.14 890.46,238.55 891.56,242.15 892.65,246.91 893.74,246.22 894.83,245.40 895.93,248.37 897.02,249.51 898.12,254.62 899.21,251.55 900.30,251.21 901.40,250.31 902.49,251.04 903.59,247.73 904.68,245.66 905.77,246.04 906.87,248.88 907.96,253.22 909.06,253.96 910.14,253.41 911.24,251.45 912.34,252.40 913.43,251.49 914.53,252.03 915.62,253.54 916.71,252.96 917.81,251.68 918.89,249.20 919.99,248.17 921.08,248.96 922.18,249.83 923.27,250.87 924.37,249.65 925.46,251.18 926.55,255.00 927.65,256.39 928.74,260.00 929.83,258.94 930.93,257.07 932.02,256.75 933.11,253.45 934.21,253.31 935.30,250.44 936.40,252.27 937.49,255.83 938.59,255.50 939.68,256.96 940.77,257.54 941.86,259.05 942.96,257.15 944.06,256.53 945.15,259.18 946.24,259.20 947.33,254.46 948.43,254.25 949.52,254.90 950.61,256.07 951.71,252.06 952.80,252.55 953.90,251.78 954.99,251.39 955.00,251.39" fill="none" stroke="#067d89" stroke-width="1.8"/><path d="M80 428h20" stroke="#067d89" stroke-width="3"/><text x="106" y="432" font-family="Arial" font-size="12">pusher</text><polyline points="80.00,339.20 81.09,240.13 82.18,205.07 83.27,181.69 84.37,151.79 85.47,129.34 86.56,119.05 87.65,144.57 88.75,162.87 89.83,168.07 90.93,176.55 92.03,199.36 93.12,221.72 94.21,228.66 95.31,223.84 96.40,208.94 97.50,197.19 98.58,186.14 99.68,174.42 100.77,168.69 101.87,170.31 102.96,183.07 104.05,184.31 105.16,181.16 106.24,188.74 107.34,193.75 108.44,192.50 109.53,193.65 110.62,195.78 111.72,189.59 112.81,187.15 113.90,188.29 115.00,187.65 116.09,179.45 117.18,171.44 118.27,173.77 119.37,180.38 120.47,183.07 121.56,183.61 122.65,177.17 123.75,178.83 124.83,183.83 125.94,189.19 127.03,196.83 128.12,201.51 129.21,207.15 130.31,215.77 131.40,217.57 132.49,217.62 133.58,224.79 134.68,228.30 135.77,231.85 136.87,230.45 137.96,233.80 139.06,235.52 140.16,232.23 141.25,232.16 142.34,235.51 143.43,238.11 144.53,237.52 145.62,233.99 146.71,229.71 147.81,228.65 148.90,224.92 149.99,223.19 151.09,220.37 152.18,212.93 153.27,210.05 154.37,212.23 155.46,209.04 156.55,206.76 157.65,204.90 158.75,207.59 159.84,205.27 160.93,198.62 162.03,198.02 163.12,199.05 164.21,196.03 165.31,186.46 166.40,185.77 167.50,189.55 168.59,191.11 169.68,195.54 170.77,187.24 171.87,188.38 172.96,186.32 174.06,187.39 175.16,189.71 176.24,193.31 177.34,198.18 178.43,196.51 179.53,201.22 180.62,202.07 181.71,200.60 182.81,201.74 183.90,204.26 184.99,208.07 186.09,207.66 187.18,207.87 188.28,210.62 189.37,214.60 190.47,217.69 191.55,224.86 192.65,227.73 193.75,227.73 194.84,227.04 195.93,225.25 197.03,225.01 198.12,222.21 199.22,220.22 200.30,218.49 201.40,222.83 202.50,231.21 203.59,234.41 204.68,233.28 205.78,228.12 206.87,225.76 207.96,222.16 209.06,222.60 210.15,225.82 211.24,228.60 212.33,233.22 213.43,232.84 214.52,225.89 215.62,220.10 216.71,219.35 217.80,220.39 218.90,220.41 219.99,218.94 221.08,220.13 222.18,227.90 223.27,222.79 224.37,217.05 225.46,216.82 226.55,214.61 227.65,215.10 228.74,215.97 229.84,220.29 230.93,224.05 232.02,223.37 233.12,222.56 234.22,224.09 235.30,223.37 236.40,214.53 237.50,204.91 238.59,199.56 239.68,192.49 240.78,193.83 241.86,199.25 242.97,202.31 244.05,205.99 245.15,207.94 246.25,210.49 247.33,213.63 248.43,213.10 249.52,215.65 250.62,212.43 251.72,207.29 252.81,204.47 253.90,208.86 254.99,215.13 256.09,220.17 257.18,222.53 258.28,224.85 259.37,224.42 260.47,229.56 261.55,235.35 262.65,237.87 263.74,240.31 264.84,241.65 265.93,242.83 267.02,238.90 268.12,239.90 269.22,240.60 270.30,243.56 271.40,244.00 272.49,243.14 273.59,240.38 274.69,238.41 275.77,235.78 276.87,236.88 277.96,237.05 279.06,241.38 280.16,248.16 281.24,249.19 282.34,246.83 283.43,242.22 284.52,235.39 285.62,229.16 286.71,223.69 287.81,213.57 288.90,206.81 290.00,206.64 291.09,207.75 292.18,205.84 293.28,206.23 294.37,209.32 295.46,210.08 296.56,207.63 297.65,206.11 298.74,208.72 299.84,206.48 300.93,210.79 302.02,218.69 303.12,227.97 304.21,231.97 305.31,236.55 306.39,240.34 307.49,240.10 308.58,238.77 309.68,239.89 310.77,240.61 311.87,245.00 312.96,240.53 314.05,237.47 315.15,238.58 316.24,241.69 317.34,240.17 318.43,236.77 319.53,242.47 320.62,241.95 321.71,243.24 322.81,242.39 323.90,238.40 325.00,242.23 326.09,245.21 327.18,246.64 328.28,244.54 329.36,239.23 330.46,236.86 331.56,238.62 332.65,238.83 333.74,241.33 334.84,239.35 335.93,239.19 337.03,239.55 338.12,239.83 339.22,237.94 340.31,234.73 341.40,237.61 342.49,231.41 343.59,228.64 344.68,222.53 345.77,224.70 346.87,223.81 347.97,220.26 349.06,220.68 350.15,218.37 351.24,210.03 352.34,205.95 353.43,204.82 354.53,208.03 355.62,207.69 356.72,212.71 357.81,215.51 358.90,216.43 359.99,219.01 361.09,220.75 362.18,222.29 363.28,218.17 364.37,221.13 365.46,220.86 366.56,227.64 367.65,227.19 368.74,224.74 369.84,226.14 370.93,224.07 372.03,221.91 373.12,227.70 374.21,233.15 375.30,234.99 376.40,230.72 377.50,233.39 378.58,229.61 379.68,232.32 380.78,239.58 381.87,239.43 382.96,232.19 384.06,231.49 385.15,236.18 386.24,235.26 387.34,235.46 388.43,240.17 389.52,237.82 390.62,238.39 391.72,240.44 392.81,244.03 393.90,240.81 394.99,236.45 396.08,237.80 397.18,240.81 398.27,238.63 399.37,238.86 400.46,235.89 401.56,232.47 402.65,227.02 403.74,225.22 404.84,225.21 405.93,224.52 407.02,222.98 408.12,223.80 409.21,226.09 410.31,226.27 411.40,221.84 412.49,223.31 413.59,216.76 414.68,213.57 415.78,213.78 416.87,212.90 417.96,204.84 419.06,205.52 420.15,209.93 421.25,211.73 422.34,212.75 423.43,215.11 424.52,222.35 425.62,230.55 426.72,230.63 427.81,230.32 428.90,228.55 430.00,228.91 431.09,226.30 432.18,222.57 433.28,220.81 434.37,224.13 435.47,229.23 436.56,232.05 437.65,233.90 438.74,233.79 439.84,234.27 440.93,230.27 442.03,231.88 443.12,233.92 444.22,238.15 445.31,238.19 446.40,235.93 447.49,238.26 448.59,235.90 449.68,236.75 450.77,237.68 451.87,234.12 452.96,227.86 454.05,224.42 455.15,226.27 456.25,232.78 457.34,231.99 458.43,229.28 459.52,222.48 460.62,218.98 461.71,212.14 462.81,210.56 463.90,210.52 465.00,214.38 466.09,214.59 467.18,208.88 468.28,208.26 469.37,205.67 470.46,206.38 471.56,214.22 472.65,221.22 473.75,223.58 474.83,221.50 475.93,224.43 477.03,223.12 478.12,223.87 479.21,224.19 480.31,225.68 481.40,226.90 482.50,226.89 483.59,223.26 484.68,224.57 485.77,221.66 486.86,220.17 487.97,219.86 489.06,218.03 490.15,212.64 491.24,211.13 492.34,212.53 493.43,215.43 494.52,213.17 495.62,214.55 496.71,222.11 497.80,229.45 498.90,239.19 499.99,244.71 501.08,241.09 502.18,235.25 503.28,231.14 504.37,230.70 505.46,229.97 506.56,231.31 507.65,232.17 508.74,230.14 509.83,232.41 510.93,233.11 512.02,234.67 513.12,235.73 514.21,237.00 515.30,238.37 516.40,243.35 517.49,243.53 518.59,242.14 519.68,243.84 520.78,246.09 521.87,245.29 522.96,244.42 524.06,243.57 525.15,242.17 526.24,246.51 527.34,245.16 528.43,242.07 529.53,240.80 530.62,239.50 531.71,238.87 532.81,237.93 533.90,236.08 534.99,234.05 536.08,232.21 537.18,228.34 538.28,228.64 539.37,230.19 540.46,228.34 541.55,225.46 542.64,227.86 543.74,229.81 544.83,228.47 545.93,225.74 547.02,222.96 548.12,221.42 549.21,220.29 550.31,219.97 551.40,220.48 552.49,221.70 553.59,221.88 554.68,225.49 555.77,223.36 556.86,227.78 557.96,234.33 559.05,239.74 560.15,239.92 561.24,238.34 562.33,237.37 563.43,235.90 564.53,242.45 565.62,248.30 566.71,246.10 567.81,245.11 568.90,251.08 570.00,252.82 571.08,255.91 572.18,256.59 573.27,257.62 574.36,259.06 575.46,253.83 576.56,247.85 577.65,245.56 578.75,245.01 579.84,245.04 580.93,243.96 582.02,236.97 583.12,232.33 584.22,224.69 585.31,224.73 586.40,227.39 587.49,223.87 588.58,224.11 589.68,217.92 590.77,216.64 591.86,218.60 592.96,219.66 594.06,221.94 595.15,226.55 596.25,231.25 597.34,235.66 598.43,233.58 599.53,233.61 600.62,237.18 601.71,235.11 602.81,233.55 603.90,230.25 604.99,233.10 606.08,233.83 607.18,234.74 608.28,232.01 609.37,230.03 610.46,229.94 611.56,228.53 612.64,223.30 613.74,222.48 614.83,222.63 615.93,223.40 617.02,220.84 618.12,221.47 619.21,225.66 620.31,226.65 621.40,230.56 622.49,234.58 623.58,232.01 624.68,235.16 625.78,234.12 626.87,234.25 627.96,235.11 629.05,237.29 630.15,238.60 631.24,239.42 632.34,236.72 633.43,231.14 634.53,230.05 635.61,231.69 636.71,232.58 637.81,236.87 638.90,238.74 639.99,239.24 641.09,241.30 642.18,242.67 643.28,239.40 644.37,239.81 645.46,232.99 646.55,234.18 647.65,239.12 648.74,242.04 649.84,246.06 650.93,250.70 652.02,251.36 653.12,256.54 654.21,259.50 655.30,258.96 656.40,257.42 657.49,255.16 658.59,251.90 659.68,252.57 660.77,255.54 661.87,254.19 662.96,251.57 664.06,245.06 665.15,245.70 666.24,242.65 667.33,238.61 668.43,235.89 669.52,232.13 670.62,232.93 671.71,237.43 672.80,243.53 673.90,245.24 674.99,246.19 676.09,240.40 677.18,238.65 678.28,232.69 679.36,230.76 680.46,227.97 681.55,228.33 682.65,230.63 683.74,231.31 684.83,234.33 685.93,234.89 687.03,234.80 688.12,239.59 689.21,245.57 690.30,249.13 691.40,252.45 692.49,250.26 693.58,249.79 694.68,245.82 695.77,242.23 696.87,237.52 697.96,235.23 699.05,237.07 700.15,237.44 701.25,237.77 702.34,235.59 703.43,235.37 704.52,242.76 705.62,250.77 706.71,255.38 707.80,251.57 708.89,253.14 709.99,255.34 711.08,253.17 712.18,252.76 713.27,252.01 714.37,248.89 715.46,246.92 716.55,242.39 717.65,242.64 718.74,242.51 719.84,245.79 720.93,247.36 722.02,248.25 723.11,252.17 724.21,254.93 725.30,255.86 726.40,254.05 727.50,250.33 728.58,247.31 729.68,245.91 730.77,244.27 731.86,241.05 732.96,235.20 734.05,233.84 735.15,236.88 736.24,241.87 737.33,241.77 738.43,239.40 739.52,239.91 740.62,241.69 741.71,241.23 742.81,236.35 743.90,233.19 744.99,234.61 746.09,233.95 747.17,232.00 748.27,230.78 749.36,233.36 750.46,238.10 751.55,236.42 752.65,236.35 753.74,244.38 754.84,245.44 755.92,247.24 757.03,248.50 758.12,246.66 759.21,246.96 760.30,245.81 761.40,241.00 762.50,239.03 763.58,239.16 764.68,235.90 765.78,234.69 766.86,238.37 767.96,239.83 769.05,245.99 770.14,251.56 771.25,254.67 772.33,251.21 773.43,250.58 774.52,253.89 775.62,252.91 776.71,250.25 777.80,248.36 778.90,247.30 780.00,249.21 781.09,251.15 782.18,253.27 783.28,253.34 784.37,257.00 785.46,256.76 786.55,256.16 787.64,254.68 788.74,253.29 789.84,251.44 790.93,250.57 792.02,251.73 793.12,256.61 794.21,255.83 795.30,255.53 796.40,255.77 797.49,253.06 798.58,250.50 799.68,252.41 800.78,253.72 801.87,254.50 802.96,254.53 804.06,253.95 805.15,253.24 806.24,253.83 807.33,258.90 808.43,259.93 809.53,255.57 810.61,251.30 811.71,245.52 812.80,246.68 813.89,250.11 814.99,253.65 816.09,252.64 817.18,255.34 818.27,255.85 819.37,253.77 820.46,255.40 821.55,254.78 822.65,253.00 823.74,250.88 824.84,247.57 825.93,246.80 827.02,247.79 828.12,248.84 829.21,250.59 830.30,253.22 831.40,255.47 832.49,258.98 833.58,260.78 834.68,257.60 835.77,257.50 836.86,255.11 837.95,254.89 839.05,256.38 840.15,253.84 841.24,256.85 842.33,259.90 843.43,258.46 844.52,256.14 845.61,258.06 846.71,257.80 847.80,254.37 848.89,255.28 849.99,255.11 851.09,256.65 852.17,257.77 853.27,258.75 854.37,255.85 855.46,248.96 856.56,245.36 857.65,245.28 858.74,245.74 859.84,244.77 860.93,242.25 862.03,245.36 863.12,249.99 864.20,251.01 865.31,255.82 866.40,258.31 867.50,253.81 868.58,251.74 869.68,249.90 870.77,249.74 871.86,246.53 872.96,243.35 874.06,245.00 875.14,245.03 876.24,247.19 877.34,250.34 878.43,252.48 879.52,255.59 880.62,254.71 881.71,249.72 882.80,245.58 883.90,244.82 884.99,245.44 886.09,241.32 887.18,238.14 888.27,239.33 889.36,241.76 890.46,243.90 891.56,248.85 892.65,253.50 893.74,254.37 894.83,253.55 895.93,258.55 897.02,256.96 898.12,261.60 899.21,259.79 900.30,256.92 901.40,255.87 902.49,255.31 903.59,250.36 904.68,249.26 905.77,250.84 906.87,254.30 907.96,260.86 909.06,261.82 910.14,259.40 911.24,257.63 912.34,258.19 913.43,256.76 914.53,254.66 915.62,258.83 916.71,258.39 917.81,256.64 918.89,252.16 919.99,250.75 921.08,253.37 922.18,256.70 923.27,258.61 924.37,259.67 925.46,257.34 926.55,261.10 927.65,263.69 928.74,268.91 929.83,266.25 930.93,263.71 932.02,261.23 933.11,256.21 934.21,257.66 935.30,257.52 936.40,259.59 937.49,262.78 938.59,260.76 939.68,262.68 940.77,268.29 941.86,269.32 942.96,268.76 944.06,265.93 945.15,268.55 946.24,269.30 947.33,263.78 948.43,262.02 949.52,260.84 950.61,261.21 951.71,257.66 952.80,257.37 953.90,259.03 954.99,259.97 955.00,259.97" fill="none" stroke="#d05b31" stroke-width="1.8"/><path d="M375 428h20" stroke="#d05b31" stroke-width="3"/><text x="401" y="432" font-family="Arial" font-size="12">body</text><polyline points="80.00,339.20 81.09,219.80 82.18,182.61 83.27,133.82 84.37,104.81 85.47,104.08 86.56,90.00 87.65,89.82 88.75,102.41 89.83,111.63 90.93,112.53 92.03,118.31 93.12,137.49 94.21,129.72 95.31,126.19 96.40,129.96 97.50,118.21 98.58,113.10 99.68,102.48 100.77,105.49 101.87,105.48 102.96,105.99 104.05,94.03 105.16,80.84 106.24,83.31 107.34,95.14 108.44,113.58 109.53,119.22 110.62,129.39 111.72,126.70 112.81,129.34 113.90,126.93 115.00,122.40 116.09,123.61 117.18,122.59 118.27,116.10 119.37,126.48 120.47,123.42 121.56,130.47 122.65,146.87 123.75,150.88 124.83,155.65 125.94,148.89 127.03,147.35 128.12,149.00 129.21,144.44 130.31,144.81 131.40,149.61 132.49,155.01 133.58,159.69 134.68,162.39 135.77,165.46 136.87,163.65 137.96,179.10 139.06,173.71 140.16,176.49 141.25,178.43 142.34,167.77 143.43,170.55 144.53,173.59 145.62,178.86 146.71,174.08 147.81,168.45 148.90,173.41 149.99,180.93 151.09,169.60 152.18,182.60 153.27,179.21 154.37,181.70 155.46,182.84 156.55,182.56 157.65,191.08 158.75,193.33 159.84,188.83 160.93,191.42 162.03,190.13 163.12,185.99 164.21,175.01 165.31,159.29 166.40,136.55 167.50,127.36 168.59,120.17 169.68,104.76 170.77,100.00 171.87,94.47 172.96,80.93 174.06,80.59 175.16,88.58 176.24,79.62 177.34,84.12 178.43,83.92 179.53,93.32 180.62,95.17 181.71,100.07 182.81,101.57 183.90,111.32 184.99,120.09 186.09,122.40 187.18,123.88 188.28,116.89 189.37,117.70 190.47,123.54 191.55,143.12 192.65,137.85 193.75,129.56 194.84,132.20 195.93,128.15 197.03,132.23 198.12,136.06 199.22,140.83 200.30,152.26 201.40,151.79 202.50,149.58 203.59,159.35 204.68,156.31 205.78,160.17 206.87,154.48 207.96,152.70 209.06,161.23 210.15,172.98 211.24,168.91 212.33,174.32 213.43,182.48 214.52,186.17 215.62,189.64 216.71,197.50 217.80,194.94 218.90,187.90 219.99,179.19 221.08,178.57 222.18,171.82 223.27,161.75 224.37,159.48 225.46,156.63 226.55,146.93 227.65,141.64 228.74,139.12 229.84,137.42 230.93,132.72 232.02,126.52 233.12,120.78 234.22,117.30 235.30,127.04 236.40,118.87 237.50,113.05 238.59,112.47 239.68,112.02 240.78,117.97 241.86,114.77 242.97,110.59 244.05,93.49 245.15,88.04 246.25,88.45 247.33,87.80 248.43,84.39 249.52,77.44 250.62,79.68 251.72,88.65 252.81,83.64 253.90,80.38 254.99,81.28 256.09,95.70 257.18,86.94 258.28,102.74 259.37,116.57 260.47,149.30 261.55,160.63 262.65,177.36 263.74,189.16 264.84,194.45 265.93,192.07 267.02,191.52 268.12,179.92 269.22,180.24 270.30,187.55 271.40,190.51 272.49,193.41 273.59,199.82 274.69,206.19 275.77,202.66 276.87,203.86 277.96,195.55 279.06,191.55 280.16,190.65 281.24,183.84 282.34,182.59 283.43,181.08 284.52,181.49 285.62,172.17 286.71,169.98 287.81,164.36 288.90,150.47 290.00,156.08 291.09,170.54 292.18,161.01 293.28,140.00 294.37,130.37 295.46,126.66 296.56,125.58 297.65,117.56 298.74,121.04 299.84,124.24 300.93,125.49 302.02,131.37 303.12,129.50 304.21,138.50 305.31,135.15 306.39,134.60 307.49,137.33 308.58,131.66 309.68,133.38 310.77,148.20 311.87,157.01 312.96,152.13 314.05,152.58 315.15,163.80 316.24,177.32 317.34,190.38 318.43,193.80 319.53,196.66 320.62,195.06 321.71,196.36 322.81,198.09 323.90,203.81 325.00,205.52 326.09,198.61 327.18,192.08 328.28,193.89 329.36,194.34 330.46,187.32 331.56,183.42 332.65,187.12 333.74,167.95 334.84,158.05 335.93,152.77 337.03,139.05 338.12,126.19 339.22,127.15 340.31,131.44 341.40,136.43 342.49,135.61 343.59,121.41 344.68,120.34 345.77,121.66 346.87,123.11 347.97,112.84 349.06,114.45 350.15,114.64 351.24,118.22 352.34,124.01 353.43,141.77 354.53,145.98 355.62,142.85 356.72,148.83 357.81,141.73 358.90,149.15 359.99,149.89 361.09,147.30 362.18,133.14 363.28,137.56 364.37,142.20 365.46,147.76 366.56,147.42 367.65,143.48 368.74,154.37 369.84,155.96 370.93,168.73 372.03,176.48 373.12,188.07 374.21,193.18 375.30,200.13 376.40,202.23 377.50,209.72 378.58,210.38 379.68,209.61 380.78,202.01 381.87,195.93 382.96,195.76 384.06,199.98 385.15,207.43 386.24,194.12 387.34,198.54 388.43,196.22 389.52,182.29 390.62,181.43 391.72,171.62 392.81,167.14 393.90,160.34 394.99,166.62 396.08,166.49 397.18,163.21 398.27,164.34 399.37,177.27 400.46,179.47 401.56,165.29 402.65,172.08 403.74,164.08 404.84,154.23 405.93,152.08 407.02,157.12 408.12,151.83 409.21,157.91 410.31,170.72 411.40,173.20 412.49,161.53 413.59,161.11 414.68,164.42 415.78,161.61 416.87,154.73 417.96,166.09 419.06,156.59 420.15,154.98 421.25,157.35 422.34,176.64 423.43,183.18 424.52,187.10 425.62,198.53 426.72,200.96 427.81,199.14 428.90,203.90 430.00,199.85 431.09,200.50 432.18,197.69 433.28,194.68 434.37,198.47 435.47,206.42 436.56,208.87 437.65,207.18 438.74,211.29 439.84,209.97 440.93,198.64 442.03,198.04 443.12,200.42 444.22,199.46 445.31,196.89 446.40,194.01 447.49,195.99 448.59,188.80 449.68,187.36 450.77,184.12 451.87,186.84 452.96,184.36 454.05,184.05 455.15,186.70 456.25,181.40 457.34,165.24 458.43,151.68 459.52,142.91 460.62,132.96 461.71,129.45 462.81,124.50 463.90,139.19 465.00,149.57 466.09,158.05 467.18,161.02 468.28,168.71 469.37,179.03 470.46,182.89 471.56,185.00 472.65,187.90 473.75,185.76 474.83,184.89 475.93,177.24 477.03,177.13 478.12,171.81 479.21,168.84 480.31,165.98 481.40,169.95 482.50,171.37 483.59,169.58 484.68,171.72 485.77,170.80 486.86,173.82 487.97,171.35 489.06,164.51 490.15,159.41 491.24,162.08 492.34,156.44 493.43,157.80 494.52,156.28 495.62,158.23 496.71,173.86 497.80,174.45 498.90,177.43 499.99,187.50 501.08,185.07 502.18,185.14 503.28,190.46 504.37,184.77 505.46,182.97 506.56,192.41 507.65,197.91 508.74,196.18 509.83,197.05 510.93,201.10 512.02,202.01 513.12,198.63 514.21,197.54 515.30,196.39 516.40,195.74 517.49,198.71 518.59,198.28 519.68,195.78 520.78,197.60 521.87,206.28 522.96,206.83 524.06,205.57 525.15,202.61 526.24,201.12 527.34,193.39 528.43,193.71 529.53,187.76 530.62,192.38 531.71,192.44 532.81,194.35 533.90,198.03 534.99,195.44 536.08,186.64 537.18,184.32 538.28,184.39 539.37,187.82 540.46,186.89 541.55,193.04 542.64,206.65 543.74,210.06 544.83,209.94 545.93,210.24 547.02,211.07 548.12,209.38 549.21,212.38 550.31,207.62 551.40,209.14 552.49,207.00 553.59,201.98 554.68,201.15 555.77,197.48 556.86,209.18 557.96,209.08 559.05,217.51 560.15,218.46 561.24,219.23 562.33,218.42 563.43,215.79 564.53,208.86 565.62,206.96 566.71,205.19 567.81,208.90 568.90,210.39 570.00,208.55 571.08,217.57 572.18,221.14 573.27,216.94 574.36,211.75 575.46,209.07 576.56,211.61 577.65,206.96 578.75,220.53 579.84,220.55 580.93,213.05 582.02,210.44 583.12,217.21 584.22,210.35 585.31,205.37 586.40,204.74 587.49,207.18 588.58,209.67 589.68,210.61 590.77,217.44 591.86,216.88 592.96,213.82 594.06,218.20 595.15,212.94 596.25,202.59 597.34,196.99 598.43,197.98 599.53,192.46 600.62,199.86 601.71,195.17 602.81,198.24 603.90,184.70 604.99,184.44 606.08,181.11 607.18,175.82 608.28,171.71 609.37,160.63 610.46,164.49 611.56,172.72 612.64,173.57 613.74,175.73 614.83,175.35 615.93,180.59 617.02,181.73 618.12,183.75 619.21,182.49 620.31,184.45 621.40,193.56 622.49,194.59 623.58,193.73 624.68,191.68 625.78,192.53 626.87,191.90 627.96,198.63 629.05,198.05 630.15,202.34 631.24,198.84 632.34,195.10 633.43,190.21 634.53,193.95 635.61,192.75 636.71,200.38 637.81,200.14 638.90,195.61 639.99,199.01 641.09,204.38 642.18,208.68 643.28,208.95 644.37,211.92 645.46,207.49 646.55,207.34 647.65,210.11 648.74,206.17 649.84,206.97 650.93,203.29 652.02,202.44 653.12,205.75 654.21,207.37 655.30,213.81 656.40,215.16 657.49,206.99 658.59,208.86 659.68,210.88 660.77,215.92 661.87,218.25 662.96,211.96 664.06,212.00 665.15,205.05 666.24,205.78 667.33,204.53 668.43,208.23 669.52,214.89 670.62,212.04 671.71,217.52 672.80,220.15 673.90,214.74 674.99,218.81 676.09,220.59 677.18,218.85 678.28,211.67 679.36,220.63 680.46,216.71 681.55,223.89 682.65,221.93 683.74,214.22 684.83,211.54 685.93,213.10 687.03,217.09 688.12,212.80 689.21,212.20 690.30,219.46 691.40,224.07 692.49,219.62 693.58,217.44 694.68,218.98 695.77,224.11 696.87,218.79 697.96,213.46 699.05,219.77 700.15,218.57 701.25,214.93 702.34,210.30 703.43,206.54 704.52,213.50 705.62,214.83 706.71,213.67 707.80,223.19 708.89,223.73 709.99,218.83 711.08,216.04 712.18,216.44 713.27,223.50 714.37,223.58 715.46,221.54 716.55,220.76 717.65,212.82 718.74,207.06 719.84,200.23 720.93,203.47 722.02,208.68 723.11,205.10 724.21,198.86 725.30,203.68 726.40,202.16 727.50,198.06 728.58,195.22 729.68,197.47 730.77,197.76 731.86,202.62 732.96,200.56 734.05,198.98 735.15,206.28 736.24,210.70 737.33,215.83 738.43,213.54 739.52,219.50 740.62,218.06 741.71,216.79 742.81,215.49 743.90,216.96 744.99,221.84 746.09,224.57 747.17,219.78 748.27,223.99 749.36,222.48 750.46,215.32 751.55,213.25 752.65,213.83 753.74,219.10 754.84,220.88 755.92,225.08 757.03,225.50 758.12,222.04 759.21,225.13 760.30,220.69 761.40,221.17 762.50,225.07 763.58,224.64 764.68,234.18 765.78,230.53 766.86,230.20 767.96,229.97 769.05,224.39 770.14,221.26 771.25,220.32 772.33,220.56 773.43,220.28 774.52,217.29 775.62,212.05 776.71,206.24 777.80,209.25 778.90,216.95 780.00,222.60 781.09,229.19 782.18,224.22 783.28,230.55 784.37,229.46 785.46,222.85 786.55,218.19 787.64,216.91 788.74,221.78 789.84,217.78 790.93,211.69 792.02,213.42 793.12,216.60 794.21,222.68 795.30,218.28 796.40,223.55 797.49,225.20 798.58,231.66 799.68,230.36 800.78,231.00 801.87,222.91 802.96,215.53 804.06,211.78 805.15,216.49 806.24,216.95 807.33,218.31 808.43,216.71 809.53,219.48 810.61,217.86 811.71,214.17 812.80,219.46 813.89,223.19 814.99,223.83 816.09,230.27 817.18,233.09 818.27,233.12 819.37,235.69 820.46,231.04 821.55,230.48 822.65,233.89 823.74,227.57 824.84,220.51 825.93,220.92 827.02,217.02 828.12,214.85 829.21,213.46 830.30,218.72 831.40,219.83 832.49,225.12 833.58,232.62 834.68,234.06 835.77,231.43 836.86,231.32 837.95,240.71 839.05,239.93 840.15,232.37 841.24,237.77 842.33,237.02 843.43,228.62 844.52,230.46 845.61,227.22 846.71,232.67 847.80,234.57 848.89,236.01 849.99,234.75 851.09,238.38 852.17,236.60 853.27,234.79 854.37,236.85 855.46,239.94 856.56,232.95 857.65,229.32 858.74,232.17 859.84,229.30 860.93,231.72 862.03,233.87 863.12,229.68 864.20,225.32 865.31,226.14 866.40,229.27 867.50,232.46 868.58,233.32 869.68,230.78 870.77,227.03 871.86,228.01 872.96,228.17 874.06,229.98 875.14,228.69 876.24,227.82 877.34,228.56 878.43,223.41 879.52,221.29 880.62,217.97 881.71,214.92 882.80,216.42 883.90,218.01 884.99,216.36 886.09,220.54 887.18,214.54 888.27,216.78 889.36,223.13 890.46,220.37 891.56,221.01 892.65,221.47 893.74,223.05 894.83,223.02 895.93,226.09 897.02,232.89 898.12,233.53 899.21,233.78 900.30,236.15 901.40,237.09 902.49,236.19 903.59,239.28 904.68,234.32 905.77,232.81 906.87,234.03 907.96,237.22 909.06,235.01 910.14,240.97 911.24,232.87 912.34,235.82 913.43,237.01 914.53,244.17 915.62,241.10 916.71,239.13 917.81,237.23 918.89,240.43 919.99,240.17 921.08,237.93 922.18,235.86 923.27,232.09 924.37,231.43 925.46,236.67 926.55,239.55 927.65,238.28 928.74,242.08 929.83,240.66 930.93,241.32 932.02,243.28 933.11,244.26 934.21,239.69 935.30,233.25 936.40,233.68 937.49,237.55 938.59,240.30 939.68,242.32 940.77,234.35 941.86,233.52 942.96,231.11 944.06,233.07 945.15,234.34 946.24,233.69 947.33,231.83 948.43,235.40 949.52,238.57 950.61,241.28 951.71,239.32 952.80,241.73 953.90,233.91 954.99,231.85 955.00,231.85" fill="none" stroke="#7d55a8" stroke-width="1.8"/><path d="M670 428h20" stroke="#7d55a8" stroke-width="3"/><text x="696" y="432" font-family="Arial" font-size="12">pad root</text><polyline points="80.00,339.20 81.09,231.51 82.18,195.64 83.27,167.33 84.37,137.04 85.47,117.91 86.56,104.76 87.65,110.99 88.75,129.63 89.83,140.75 90.93,145.50 92.03,156.61 93.12,170.53 94.21,172.97 95.31,171.75 96.40,171.70 97.50,159.92 98.58,158.98 99.68,144.94 100.77,144.93 101.87,142.43 102.96,148.04 104.05,146.77 105.16,140.21 106.24,146.07 107.34,155.33 108.44,161.72 109.53,163.38 110.62,168.78 111.72,166.12 112.81,170.37 113.90,167.58 115.00,163.86 116.09,165.50 117.18,159.90 118.27,157.17 119.37,160.42 120.47,157.61 121.56,159.54 122.65,164.24 123.75,172.22 124.83,175.37 125.94,177.12 127.03,184.47 128.12,188.03 129.21,187.26 130.31,187.88 131.40,193.69 132.49,197.28 133.58,202.44 134.68,206.09 135.77,211.04 136.87,208.28 137.96,215.00 139.06,210.92 140.16,214.32 141.25,212.50 142.34,215.64 143.43,214.14 144.53,210.68 145.62,212.68 146.71,211.98 147.81,210.71 148.90,210.82 149.99,211.70 151.09,206.23 152.18,203.02 153.27,202.32 154.37,205.88 155.46,204.29 156.55,201.08 157.65,201.85 158.75,204.03 159.84,200.50 160.93,198.16 162.03,195.12 163.12,194.70 164.21,190.63 165.31,180.22 166.40,176.97 167.50,170.36 168.59,170.17 169.68,163.67 170.77,165.19 171.87,165.59 172.96,158.40 174.06,157.02 175.16,158.15 176.24,159.92 177.34,162.29 178.43,165.04 179.53,168.52 180.62,169.39 181.71,166.26 182.81,165.53 183.90,169.58 184.99,173.69 186.09,177.49 187.18,184.27 188.28,184.27 189.37,190.95 190.47,190.62 191.55,193.58 192.65,194.87 193.75,187.62 194.84,189.95 195.93,188.57 197.03,193.44 198.12,194.35 199.22,199.93 200.30,197.70 201.40,203.56 202.50,204.49 203.59,208.91 204.68,211.26 205.78,208.18 206.87,206.57 207.96,203.26 209.06,203.02 210.15,211.17 211.24,210.69 212.33,210.92 213.43,213.66 214.52,212.40 215.62,210.58 216.71,213.87 217.80,214.71 218.90,212.76 219.99,207.34 221.08,208.03 222.18,207.82 223.27,201.04 224.37,194.02 225.46,191.87 226.55,189.49 227.65,190.40 228.74,193.00 229.84,193.02 230.93,193.37 232.02,188.08 233.12,185.79 234.22,181.80 235.30,183.98 236.40,182.74 237.50,177.55 238.59,173.71 239.68,168.94 240.78,167.05 241.86,171.15 242.97,176.32 244.05,175.74 245.15,178.10 246.25,175.17 247.33,172.86 248.43,175.81 249.52,180.71 250.62,181.22 251.72,178.73 252.81,185.20 253.90,186.89 254.99,187.21 256.09,189.13 257.18,192.34 258.28,199.35 259.37,203.88 260.47,211.78 261.55,218.35 262.65,224.06 263.74,225.37 264.84,225.91 265.93,225.83 267.02,223.64 268.12,219.05 269.22,217.13 270.30,224.08 271.40,227.73 272.49,228.48 273.59,227.50 274.69,227.47 275.77,224.18 276.87,226.74 277.96,225.60 279.06,227.00 280.16,228.58 281.24,223.46 282.34,225.75 283.43,221.82 284.52,219.29 285.62,212.72 286.71,207.36 287.81,196.28 288.90,188.44 290.00,190.39 291.09,196.19 292.18,194.02 293.28,188.65 294.37,185.71 295.46,184.84 296.56,183.34 297.65,176.42 298.74,178.00 299.84,180.93 300.93,186.73 302.02,193.13 303.12,195.11 304.21,205.02 305.31,203.70 306.39,205.74 307.49,208.84 308.58,207.72 309.68,209.53 310.77,213.59 311.87,216.73 312.96,210.11 314.05,211.19 315.15,218.55 316.24,221.19 317.34,220.34 318.43,222.50 319.53,222.59 320.62,224.56 321.71,224.10 322.81,225.62 323.90,228.35 325.00,227.81 326.09,227.08 327.18,222.96 328.28,223.69 329.36,226.04 330.46,224.46 331.56,223.13 332.65,226.50 333.74,225.11 334.84,222.19 335.93,217.67 337.03,211.67 338.12,211.87 339.22,209.12 340.31,201.16 341.40,201.17 342.49,202.58 343.59,197.55 344.68,194.78 345.77,198.38 346.87,197.39 347.97,193.21 349.06,191.06 350.15,185.11 351.24,185.36 352.34,188.69 353.43,188.40 354.53,193.79 355.62,194.19 356.72,192.82 357.81,197.83 358.90,198.28 359.99,202.22 361.09,203.45 362.18,202.03 363.28,199.71 364.37,200.34 365.46,200.79 366.56,205.30 367.65,205.80 368.74,208.40 369.84,211.08 370.93,209.78 372.03,210.39 373.12,215.16 374.21,222.25 375.30,224.48 376.40,222.68 377.50,224.60 378.58,223.63 379.68,226.22 380.78,225.58 381.87,224.04 382.96,221.78 384.06,221.32 385.15,228.64 386.24,222.92 387.34,228.73 388.43,229.59 389.52,220.68 390.62,222.09 391.72,217.61 392.81,215.42 393.90,215.01 394.99,210.65 396.08,214.46 397.18,215.05 398.27,216.24 399.37,221.85 400.46,219.43 401.56,211.56 402.65,206.94 403.74,203.77 404.84,197.56 405.93,199.87 407.02,200.63 408.12,202.17 409.21,204.49 410.31,210.67 411.40,210.56 412.49,204.99 413.59,198.99 414.68,194.06 415.78,198.57 416.87,198.14 417.96,197.55 419.06,197.27 420.15,197.63 421.25,200.55 422.34,206.90 423.43,207.33 424.52,215.44 425.62,221.10 426.72,222.33 427.81,223.23 428.90,224.78 430.00,225.28 431.09,223.60 432.18,221.07 433.28,213.76 434.37,214.64 435.47,220.50 436.56,227.70 437.65,229.06 438.74,230.21 439.84,227.35 440.93,216.76 442.03,221.47 443.12,225.16 444.22,226.34 445.31,225.67 446.40,222.35 447.49,226.16 448.59,219.72 449.68,217.51 450.77,216.74 451.87,216.55 452.96,216.05 454.05,213.26 455.15,215.69 456.25,215.43 457.34,216.50 458.43,213.98 459.52,208.28 460.62,205.72 461.71,200.73 462.81,201.29 463.90,199.94 465.00,202.87 466.09,202.94 467.18,200.70 468.28,202.48 469.37,198.06 470.46,197.94 471.56,203.04 472.65,208.57 473.75,211.41 474.83,213.34 475.93,210.78 477.03,207.38 478.12,208.59 479.21,201.14 480.31,198.51 481.40,203.80 482.50,197.37 483.59,197.86 484.68,197.52 485.77,197.71 486.86,200.33 487.97,197.63 489.06,196.51 490.15,190.14 491.24,192.07 492.34,190.79 493.43,188.48 494.52,191.61 495.62,194.88 496.71,205.34 497.80,210.23 498.90,214.89 499.99,217.38 501.08,210.09 502.18,210.35 503.28,215.64 504.37,214.43 505.46,213.78 506.56,217.69 507.65,220.54 508.74,214.82 509.83,218.02 510.93,224.02 512.02,225.69 513.12,227.81 514.21,225.18 515.30,224.71 516.40,228.30 517.49,227.34 518.59,226.87 519.68,229.94 520.78,233.82 521.87,233.17 522.96,230.38 524.06,228.93 525.15,229.06 526.24,233.74 527.34,226.01 528.43,224.67 529.53,221.51 530.62,220.81 531.71,223.52 532.81,223.22 533.90,222.08 534.99,222.59 536.08,218.65 537.18,211.19 538.28,212.66 539.37,214.27 540.46,213.63 541.55,213.53 542.64,220.88 543.74,223.07 544.83,226.53 545.93,222.62 547.02,218.77 548.12,221.24 549.21,220.05 550.31,218.99 551.40,216.38 552.49,219.37 553.59,216.71 554.68,217.58 555.77,217.05 556.86,221.77 557.96,228.17 559.05,229.98 560.15,234.46 561.24,235.59 562.33,234.15 563.43,231.53 564.53,234.44 565.62,236.11 566.71,231.73 567.81,232.71 568.90,237.60 570.00,238.13 571.08,242.35 572.18,246.67 573.27,245.57 574.36,245.25 575.46,240.12 576.56,236.45 577.65,232.60 578.75,237.11 579.84,239.41 580.93,235.46 582.02,229.00 583.12,227.15 584.22,220.27 585.31,219.16 586.40,222.65 587.49,222.04 588.58,221.81 589.68,218.40 590.77,217.78 591.86,219.64 592.96,221.41 594.06,223.40 595.15,224.54 596.25,225.74 597.34,225.31 598.43,222.24 599.53,219.90 600.62,221.30 601.71,219.78 602.81,218.00 603.90,208.04 604.99,204.75 606.08,200.69 607.18,198.50 608.28,196.84 609.37,195.00 610.46,197.90 611.56,200.28 612.64,199.93 613.74,200.45 614.83,203.99 615.93,206.65 617.02,207.39 618.12,208.45 619.21,205.14 620.31,205.20 621.40,213.65 622.49,216.89 623.58,219.85 624.68,219.31 625.78,220.32 626.87,220.05 627.96,223.22 629.05,225.61 630.15,227.24 631.24,226.48 632.34,223.05 633.43,217.08 634.53,219.98 635.61,224.15 636.71,226.65 637.81,227.82 638.90,225.88 639.99,225.22 641.09,230.16 642.18,232.40 643.28,230.19 644.37,232.16 645.46,229.61 646.55,230.82 647.65,229.57 648.74,227.17 649.84,229.42 650.93,231.69 652.02,231.62 653.12,235.87 654.21,239.43 655.30,244.38 656.40,247.89 657.49,245.61 658.59,243.01 659.68,243.86 660.77,246.43 661.87,243.37 662.96,241.06 664.06,236.51 665.15,235.10 666.24,232.55 667.33,229.17 668.43,231.35 669.52,231.15 670.62,228.66 671.71,232.79 672.80,238.26 673.90,239.05 674.99,239.75 676.09,237.25 677.18,234.87 678.28,226.96 679.36,229.66 680.46,228.82 681.55,229.18 682.65,227.27 683.74,227.25 684.83,228.24 685.93,228.43 687.03,231.67 688.12,232.96 689.21,236.41 690.30,239.55 691.40,243.80 692.49,240.02 693.58,236.86 694.68,238.02 695.77,236.48 696.87,230.47 697.96,232.64 699.05,235.40 700.15,231.87 701.25,234.97 702.34,230.08 703.43,227.84 704.52,236.79 705.62,241.39 706.71,245.16 707.80,244.31 708.89,245.10 709.99,245.73 711.08,244.87 712.18,241.73 713.27,246.11 714.37,242.48 715.46,240.42 716.55,238.31 717.65,235.62 718.74,234.11 719.84,233.01 720.93,233.64 722.02,238.65 723.11,238.48 724.21,236.10 725.30,237.06 726.40,230.03 727.50,230.94 728.58,227.56 729.68,226.53 730.77,227.51 731.86,226.45 732.96,222.59 734.05,223.21 735.15,225.78 736.24,230.10 737.33,230.67 738.43,230.56 739.52,232.55 740.62,232.56 741.71,233.34 742.81,228.61 743.90,230.65 744.99,232.84 746.09,233.09 747.17,231.40 748.27,229.89 749.36,231.05 750.46,230.00 751.55,224.61 752.65,228.91 753.74,237.63 754.84,235.79 755.92,241.39 757.03,241.47 758.12,241.10 759.21,239.70 760.30,237.24 761.40,236.18 762.50,235.31 763.58,235.18 764.68,234.56 765.78,234.21 766.86,237.20 767.96,237.05 769.05,238.58 770.14,240.91 771.25,243.39 772.33,243.91 773.43,241.60 774.52,246.75 775.62,243.16 776.71,240.11 777.80,238.75 778.90,239.20 780.00,242.46 781.09,244.54 782.18,246.58 783.28,246.16 784.37,247.03 785.46,245.14 786.55,245.85 787.64,244.97 788.74,246.66 789.84,246.08 790.93,243.19 792.02,239.46 793.12,244.82 794.21,248.13 795.30,248.12 796.40,246.42 797.49,245.91 798.58,245.37 799.68,246.86 800.78,246.85 801.87,243.95 802.96,239.38 804.06,239.21 805.15,238.49 806.24,241.78 807.33,241.49 808.43,241.72 809.53,242.43 810.61,238.26 811.71,234.20 812.80,236.32 813.89,239.15 814.99,241.82 816.09,244.90 817.18,245.78 818.27,248.81 819.37,250.12 820.46,248.64 821.55,246.43 822.65,245.41 823.74,242.51 824.84,240.76 825.93,242.69 827.02,241.56 828.12,239.54 829.21,243.52 830.30,244.68 831.40,244.97 832.49,248.79 833.58,251.21 834.68,249.09 835.77,246.33 836.86,245.05 837.95,248.01 839.05,251.88 840.15,244.79 841.24,247.98 842.33,249.78 843.43,247.59 844.52,247.78 845.61,248.69 846.71,249.50 847.80,246.94 848.89,247.68 849.99,249.18 851.09,251.45 852.17,248.47 853.27,251.22 854.37,249.62 855.46,246.31 856.56,241.42 857.65,239.70 858.74,239.36 859.84,236.89 860.93,235.92 862.03,238.72 863.12,240.98 864.20,242.60 865.31,246.30 866.40,249.30 867.50,247.26 868.58,246.16 869.68,244.51 870.77,239.23 871.86,238.39 872.96,237.40 874.06,238.84 875.14,237.61 876.24,238.57 877.34,242.86 878.43,241.24 879.52,243.19 880.62,242.73 881.71,237.90 882.80,237.29 883.90,237.31 884.99,235.53 886.09,232.18 887.18,227.33 888.27,229.15 889.36,234.57 890.46,233.84 891.56,240.21 892.65,245.25 893.74,243.43 894.83,242.27 895.93,244.63 897.02,247.72 898.12,253.46 899.21,250.27 900.30,249.64 901.40,248.99 902.49,249.01 903.59,246.13 904.68,243.04 905.77,242.06 906.87,246.33 907.96,251.30 909.06,252.56 910.14,251.85 911.24,248.29 912.34,252.03 913.43,250.45 914.53,249.47 915.62,252.06 916.71,251.96 917.81,248.64 918.89,245.10 919.99,244.99 921.08,248.02 922.18,248.20 923.27,250.75 924.37,250.39 925.46,249.70 926.55,254.75 927.65,254.84 928.74,258.86 929.83,258.17 930.93,255.37 932.02,254.77 933.11,250.59 934.21,250.76 935.30,249.15 936.40,249.81 937.49,254.31 938.59,252.85 939.68,255.69 940.77,255.42 941.86,255.58 942.96,257.65 944.06,255.10 945.15,255.69 946.24,257.88 947.33,250.68 948.43,252.28 949.52,254.43 950.61,250.88 951.71,250.54 952.80,249.84 953.90,248.69 954.99,250.72 955.00,250.72" fill="none" stroke="#2279ba" stroke-width="1.8"/><path d="M80 450h20" stroke="#2279ba" stroke-width="3"/><text x="106" y="454" font-family="Arial" font-size="12">lower shell</text><polyline points="80.00,339.20 81.09,231.85 82.18,196.78 83.27,167.79 84.37,138.22 85.47,118.87 86.56,103.81 87.65,110.39 88.75,127.98 89.83,139.02 90.93,143.96 92.03,156.93 93.12,172.39 94.21,175.90 95.31,170.31 96.40,166.98 97.50,162.02 98.58,158.35 99.68,142.01 100.77,141.97 101.87,141.79 102.96,145.95 104.05,141.13 105.16,136.86 106.24,144.97 107.34,154.97 108.44,160.30 109.53,162.41 110.62,168.24 111.72,163.27 112.81,169.26 113.90,164.40 115.00,162.29 116.09,165.78 117.18,158.79 118.27,155.09 119.37,159.06 120.47,157.13 121.56,159.42 122.65,166.33 123.75,171.40 124.83,174.61 125.94,179.88 127.03,183.98 128.12,186.30 129.21,184.54 130.31,189.87 131.40,193.61 132.49,197.98 133.58,204.37 134.68,205.95 135.77,208.98 136.87,207.73 137.96,215.12 139.06,211.75 140.16,214.15 141.25,215.32 142.34,213.79 143.43,213.19 144.53,208.47 145.62,213.29 146.71,210.91 147.81,213.27 148.90,211.90 149.99,213.74 151.09,207.77 152.18,203.76 153.27,203.52 154.37,203.68 155.46,201.44 156.55,201.24 157.65,201.84 158.75,202.99 159.84,199.81 160.93,195.15 162.03,196.70 163.12,195.14 164.21,190.26 165.31,177.80 166.40,175.78 167.50,175.04 168.59,173.14 169.68,166.77 170.77,164.35 171.87,164.75 172.96,158.22 174.06,156.14 175.16,155.35 176.24,155.72 177.34,162.37 178.43,161.53 179.53,164.69 180.62,162.83 181.71,165.94 182.81,168.36 183.90,169.32 184.99,178.19 186.09,181.59 187.18,182.06 188.28,187.99 189.37,187.51 190.47,190.54 191.55,194.31 192.65,187.71 193.75,188.38 194.84,190.28 195.93,190.30 197.03,192.36 198.12,196.08 199.22,201.12 200.30,199.36 201.40,200.98 202.50,204.43 203.59,209.99 204.68,209.17 205.78,209.60 206.87,208.00 207.96,204.20 209.06,209.10 210.15,211.28 211.24,209.94 212.33,210.18 213.43,214.05 214.52,212.26 215.62,212.71 216.71,212.62 217.80,211.99 218.90,209.24 219.99,207.09 221.08,209.95 222.18,208.39 223.27,201.83 224.37,194.77 225.46,192.71 226.55,191.01 227.65,190.59 228.74,193.04 229.84,196.39 230.93,194.09 232.02,185.72 233.12,183.37 234.22,182.96 235.30,183.75 236.40,182.29 237.50,173.59 238.59,167.69 239.68,165.93 240.78,168.67 241.86,173.58 242.97,174.85 244.05,177.18 245.15,180.49 246.25,174.62 247.33,171.91 248.43,176.36 249.52,176.15 250.62,181.11 251.72,181.98 252.81,182.95 253.90,182.10 254.99,184.90 256.09,188.34 257.18,192.34 258.28,197.38 259.37,206.34 260.47,212.73 261.55,217.30 262.65,220.44 263.74,223.70 264.84,224.00 265.93,224.91 267.02,222.08 268.12,217.99 269.22,221.50 270.30,226.95 271.40,229.22 272.49,230.14 273.59,231.33 274.69,228.90 275.77,227.34 276.87,228.65 277.96,226.57 279.06,227.15 280.16,227.80 281.24,226.79 282.34,223.41 283.43,222.24 284.52,217.25 285.62,210.25 286.71,207.09 287.81,194.99 288.90,185.65 290.00,190.33 291.09,197.35 292.18,188.10 293.28,184.99 294.37,185.92 295.46,183.78 296.56,178.88 297.65,174.69 298.74,177.39 299.84,180.37 300.93,186.01 302.02,192.16 303.12,198.61 304.21,200.60 305.31,201.66 306.39,206.90 307.49,207.88 308.58,208.66 309.68,211.21 310.77,215.91 311.87,214.75 312.96,207.91 314.05,211.31 315.15,213.57 316.24,219.20 317.34,223.76 318.43,220.88 319.53,224.93 320.62,222.79 321.71,228.15 322.81,224.05 323.90,227.39 325.00,228.46 326.09,226.43 327.18,224.61 328.28,226.03 329.36,225.00 330.46,224.23 331.56,220.91 332.65,225.59 333.74,221.31 334.84,218.56 335.93,212.89 337.03,208.92 338.12,208.20 339.22,208.59 340.31,204.35 341.40,201.02 342.49,195.75 343.59,192.06 344.68,195.09 345.77,195.49 346.87,192.83 347.97,184.36 349.06,187.01 350.15,186.39 351.24,186.96 352.34,191.07 353.43,185.39 354.53,185.80 355.62,191.82 356.72,196.19 357.81,194.85 358.90,198.12 359.99,198.03 361.09,200.13 362.18,201.64 363.28,200.19 364.37,200.17 365.46,198.38 366.56,203.39 367.65,206.91 368.74,210.75 369.84,210.04 370.93,208.17 372.03,208.59 373.12,215.42 374.21,224.12 375.30,225.59 376.40,222.47 377.50,225.85 378.58,221.64 379.68,225.62 380.78,227.49 381.87,227.09 382.96,222.00 384.06,221.58 385.15,226.43 386.24,220.34 387.34,224.27 388.43,227.31 389.52,222.33 390.62,222.11 391.72,221.26 392.81,218.11 393.90,213.08 394.99,211.93 396.08,216.06 397.18,214.58 398.27,216.44 399.37,219.46 400.46,216.73 401.56,210.55 402.65,207.10 403.74,201.41 404.84,199.24 405.93,200.76 407.02,202.11 408.12,203.59 409.21,208.01 410.31,211.49 411.40,210.60 412.49,206.87 413.59,200.72 414.68,199.00 415.78,196.89 416.87,196.68 417.96,193.54 419.06,193.57 420.15,195.28 421.25,196.95 422.34,198.81 423.43,204.04 424.52,211.49 425.62,225.02 426.72,226.56 427.81,224.25 428.90,221.01 430.00,217.54 431.09,215.15 432.18,211.57 433.28,211.09 434.37,214.66 435.47,221.60 436.56,224.44 437.65,222.07 438.74,223.87 439.84,226.39 440.93,221.52 442.03,221.04 443.12,220.67 444.22,222.99 445.31,224.63 446.40,222.84 447.49,221.89 448.59,218.37 449.68,218.45 450.77,223.65 451.87,214.67 452.96,214.52 454.05,213.21 455.15,212.30 456.25,216.76 457.34,214.93 458.43,212.21 459.52,204.57 460.62,201.67 461.71,194.19 462.81,196.50 463.90,195.79 465.00,199.43 466.09,202.20 467.18,198.93 468.28,197.84 469.37,200.01 470.46,201.95 471.56,207.09 472.65,210.54 473.75,209.70 474.83,209.32 475.93,207.41 477.03,208.01 478.12,206.14 479.21,204.89 480.31,203.66 481.40,201.61 482.50,198.57 483.59,195.81 484.68,197.86 485.77,199.16 486.86,198.39 487.97,199.25 489.06,193.36 490.15,191.67 491.24,191.92 492.34,189.32 493.43,191.41 494.52,188.29 495.62,193.78 496.71,201.35 497.80,205.51 498.90,209.80 499.99,214.31 501.08,214.98 502.18,213.91 503.28,216.80 504.37,214.41 505.46,212.18 506.56,219.16 507.65,222.33 508.74,221.63 509.83,225.64 510.93,224.80 512.02,227.28 513.12,229.12 514.21,228.52 515.30,230.01 516.40,231.45 517.49,230.86 518.59,230.23 519.68,229.88 520.78,230.16 521.87,231.45 522.96,228.56 524.06,233.05 525.15,228.83 526.24,227.71 527.34,228.05 528.43,227.33 529.53,226.64 530.62,227.00 531.71,222.81 532.81,222.61 533.90,219.11 534.99,218.99 536.08,210.66 537.18,211.46 538.28,211.02 539.37,213.03 540.46,215.77 541.55,217.27 542.64,224.11 543.74,225.86 544.83,220.36 545.93,221.62 547.02,220.70 548.12,213.79 549.21,214.60 550.31,214.82 551.40,218.29 552.49,215.78 553.59,216.71 554.68,218.07 555.77,215.45 556.86,221.90 557.96,223.82 559.05,234.59 560.15,231.62 561.24,230.04 562.33,231.30 563.43,231.34 564.53,236.13 565.62,238.37 566.71,235.57 567.81,235.73 568.90,240.23 570.00,241.45 571.08,244.74 572.18,244.84 573.27,245.83 574.36,245.36 575.46,244.20 576.56,237.31 577.65,235.83 578.75,239.34 579.84,238.60 580.93,236.28 582.02,232.60 583.12,231.69 584.22,223.11 585.31,222.39 586.40,219.60 587.49,217.62 588.58,217.92 589.68,213.62 590.77,215.39 591.86,216.74 592.96,214.82 594.06,218.33 595.15,221.71 596.25,220.13 597.34,220.92 598.43,220.23 599.53,220.04 600.62,219.77 601.71,216.78 602.81,216.56 603.90,204.28 604.99,201.74 606.08,200.62 607.18,198.85 608.28,197.03 609.37,193.44 610.46,197.94 611.56,204.90 612.64,206.13 613.74,203.41 614.83,201.01 615.93,203.27 617.02,206.01 618.12,204.00 619.21,205.62 620.31,209.61 621.40,216.47 622.49,220.20 623.58,215.16 624.68,217.29 625.78,220.26 626.87,218.42 627.96,223.24 629.05,224.57 630.15,228.08 631.24,226.29 632.34,226.78 633.43,221.29 634.53,222.57 635.61,224.42 636.71,226.65 637.81,230.64 638.90,226.66 639.99,227.65 641.09,231.71 642.18,232.67 643.28,232.43 644.37,229.49 645.46,223.44 646.55,224.84 647.65,233.88 648.74,231.24 649.84,234.56 650.93,236.57 652.02,232.78 653.12,231.32 654.21,242.71 655.30,243.08 656.40,242.44 657.49,235.63 658.59,236.63 659.68,236.19 660.77,239.38 661.87,242.03 662.96,238.05 664.06,234.28 665.15,227.98 666.24,229.70 667.33,229.83 668.43,224.02 669.52,226.27 670.62,226.94 671.71,230.19 672.80,236.10 673.90,239.79 674.99,239.61 676.09,234.32 677.18,231.72 678.28,227.46 679.36,226.93 680.46,222.76 681.55,225.60 682.65,229.46 683.74,225.55 684.83,226.20 685.93,227.59 687.03,228.23 688.12,230.80 689.21,235.30 690.30,241.45 691.40,243.11 692.49,242.67 693.58,243.89 694.68,240.51 695.77,239.18 696.87,233.88 697.96,229.87 699.05,230.86 700.15,233.31 701.25,231.06 702.34,228.29 703.43,231.00 704.52,237.64 705.62,240.27 706.71,242.77 707.80,244.85 708.89,242.81 709.99,244.56 711.08,240.89 712.18,242.40 713.27,241.35 714.37,239.83 715.46,239.85 716.55,233.86 717.65,231.65 718.74,229.23 719.84,226.44 720.93,232.22 722.02,232.00 723.11,233.93 724.21,236.44 725.30,235.35 726.40,233.56 727.50,227.32 728.58,221.02 729.68,223.21 730.77,224.51 731.86,223.11 732.96,220.61 734.05,220.61 735.15,227.35 736.24,230.85 737.33,232.64 738.43,229.89 739.52,232.97 740.62,231.98 741.71,230.63 742.81,230.94 743.90,227.80 744.99,230.06 746.09,230.60 747.17,226.82 748.27,228.85 749.36,230.91 750.46,236.66 751.55,236.42 752.65,232.56 753.74,237.79 754.84,240.25 755.92,238.52 757.03,242.38 758.12,237.07 759.21,239.29 760.30,236.91 761.40,234.64 762.50,235.13 763.58,236.25 764.68,236.57 765.78,233.23 766.86,235.04 767.96,237.54 769.05,241.62 770.14,245.33 771.25,246.01 772.33,239.05 773.43,239.53 774.52,240.21 775.62,240.67 776.71,237.43 777.80,241.21 778.90,242.30 780.00,244.71 781.09,244.69 782.18,242.11 783.28,244.17 784.37,247.74 785.46,249.89 786.55,246.66 787.64,243.32 788.74,243.41 789.84,238.82 790.93,237.06 792.02,245.25 793.12,246.43 794.21,245.47 795.30,239.92 796.40,244.89 797.49,245.19 798.58,245.36 799.68,246.64 800.78,247.58 801.87,244.30 802.96,242.84 804.06,240.05 805.15,237.39 806.24,239.66 807.33,246.58 808.43,244.17 809.53,246.50 810.61,240.59 811.71,238.17 812.80,241.11 813.89,243.70 814.99,245.51 816.09,247.19 817.18,250.57 818.27,249.07 819.37,246.27 820.46,248.09 821.55,249.56 822.65,248.45 823.74,245.03 824.84,238.80 825.93,236.66 827.02,238.87 828.12,239.65 829.21,239.88 830.30,242.93 831.40,246.09 832.49,249.70 833.58,255.05 834.68,252.72 835.77,252.22 836.86,251.86 837.95,253.09 839.05,252.02 840.15,251.51 841.24,256.12 842.33,255.96 843.43,253.88 844.52,251.11 845.61,250.93 846.71,248.74 847.80,249.70 848.89,251.79 849.99,248.07 851.09,251.63 852.17,253.20 853.27,253.05 854.37,249.49 855.46,246.93 856.56,242.73 857.65,243.01 858.74,243.44 859.84,243.97 860.93,243.69 862.03,246.58 863.12,250.30 864.20,244.03 865.31,244.73 866.40,249.33 867.50,247.82 868.58,246.94 869.68,244.24 870.77,247.25 871.86,243.74 872.96,241.70 874.06,243.86 875.14,242.36 876.24,243.55 877.34,244.69 878.43,246.93 879.52,247.51 880.62,246.84 881.71,242.67 882.80,238.81 883.90,240.78 884.99,243.34 886.09,241.27 887.18,236.96 888.27,239.16 889.36,239.64 890.46,243.41 891.56,243.84 892.65,248.13 893.74,249.27 894.83,248.78 895.93,251.68 897.02,251.98 898.12,255.39 899.21,253.67 900.30,252.87 901.40,251.91 902.49,253.51 903.59,250.09 904.68,248.20 905.77,250.14 906.87,250.97 907.96,255.75 909.06,255.58 910.14,255.91 911.24,254.66 912.34,253.16 913.43,252.69 914.53,254.85 915.62,256.26 916.71,254.11 917.81,255.92 918.89,252.84 919.99,251.50 921.08,250.16 922.18,251.69 923.27,251.07 924.37,248.95 925.46,252.41 926.55,255.21 927.65,257.93 928.74,261.16 929.83,260.38 930.93,259.14 932.02,258.24 933.11,256.45 934.21,256.75 935.30,252.06 936.40,254.62 937.49,257.28 938.59,257.76 939.68,258.20 940.77,259.24 941.86,261.98 942.96,256.64 944.06,257.98 945.15,261.63 946.24,260.83 947.33,257.90 948.43,256.12 949.52,255.14 950.61,259.76 951.71,253.50 952.80,256.00 953.90,254.44 954.99,252.41 955.00,252.41" fill="none" stroke="#9c7414" stroke-width="1.8"/><path d="M375 450h20" stroke="#9c7414" stroke-width="3"/><text x="401" y="454" font-family="Arial" font-size="12">upper shell</text><polyline points="80.00,339.20 81.09,209.41 82.18,192.73 83.27,154.49 84.37,119.02 85.47,88.15 86.56,75.80 87.65,85.00 88.75,122.24 89.83,138.97 90.93,146.31 92.03,165.80 93.12,207.24 94.21,224.13 95.31,227.35 96.40,213.96 97.50,201.99 98.58,186.23 99.68,173.88 100.77,169.04 101.87,178.18 102.96,199.17 104.05,211.13 105.16,204.53 106.24,223.12 107.34,210.76 108.44,197.89 109.53,191.27 110.62,195.25 111.72,185.53 112.81,194.18 113.90,200.51 115.00,212.32 116.09,219.41 117.18,218.41 118.27,210.94 119.37,221.80 120.47,209.30 121.56,218.81 122.65,218.27 123.75,222.57 124.83,222.53 125.94,238.70 127.03,240.16 128.12,226.96 129.21,218.76 130.31,226.78 131.40,227.56 132.49,213.36 133.58,220.81 134.68,217.35 135.77,222.80 136.87,216.23 137.96,228.34 139.06,238.69 140.16,241.32 141.25,246.44 142.34,251.54 143.43,245.20 144.53,233.71 145.62,221.31 146.71,212.90 147.81,205.76 148.90,203.42 149.99,215.38 151.09,229.05 152.18,235.95 153.27,241.09 154.37,251.25 155.46,257.55 156.55,253.63 157.65,227.63 158.75,224.96 159.84,224.76 160.93,212.41 162.03,216.97 163.12,224.89 164.21,221.53 165.31,211.93 166.40,217.25 167.50,224.66 168.59,247.17 169.68,247.15 170.77,233.61 171.87,235.85 172.96,241.36 174.06,241.36 175.16,239.47 176.24,234.23 177.34,225.80 178.43,221.02 179.53,223.05 180.62,225.14 181.71,247.67 182.81,256.71 183.90,253.66 184.99,244.91 186.09,239.41 187.18,234.75 188.28,235.17 189.37,234.98 190.47,225.74 191.55,227.30 192.65,231.29 193.75,228.22 194.84,227.45 195.93,230.22 197.03,223.40 198.12,218.56 199.22,221.39 200.30,218.92 201.40,229.65 202.50,242.80 203.59,239.14 204.68,242.89 205.78,247.66 206.87,249.38 207.96,244.68 209.06,233.61 210.15,221.53 211.24,222.72 212.33,229.07 213.43,235.23 214.52,242.22 215.62,251.29 216.71,261.68 217.80,263.75 218.90,264.52 219.99,269.10 221.08,266.82 222.18,252.16 223.27,236.96 224.37,218.79 225.46,222.70 226.55,218.81 227.65,226.14 228.74,231.41 229.84,248.38 230.93,265.44 232.02,264.40 233.12,261.67 234.22,266.08 235.30,253.37 236.40,237.65 237.50,228.61 238.59,217.60 239.68,205.51 240.78,208.32 241.86,218.93 242.97,219.07 244.05,229.40 245.15,232.82 246.25,223.44 247.33,229.68 248.43,247.25 249.52,251.77 250.62,242.45 251.72,235.59 252.81,234.06 253.90,228.03 254.99,238.73 256.09,243.28 257.18,256.86 258.28,260.22 259.37,264.65 260.47,258.49 261.55,258.39 262.65,264.48 263.74,261.04 264.84,247.97 265.93,241.31 267.02,235.85 268.12,236.71 269.22,233.22 270.30,240.35 271.40,246.88 272.49,245.95 273.59,248.01 274.69,254.05 275.77,265.78 276.87,263.17 277.96,257.81 279.06,263.62 280.16,266.93 281.24,268.38 282.34,258.10 283.43,242.20 284.52,232.97 285.62,233.85 286.71,235.53 287.81,222.87 288.90,218.09 290.00,214.56 291.09,221.02 292.18,215.59 293.28,205.83 294.37,213.14 295.46,209.14 296.56,204.42 297.65,206.11 298.74,208.69 299.84,203.63 300.93,206.42 302.02,214.32 303.12,221.25 304.21,224.47 305.31,224.58 306.39,230.90 307.49,245.96 308.58,258.05 309.68,260.10 310.77,259.41 311.87,257.24 312.96,250.71 314.05,234.40 315.15,233.38 316.24,241.45 317.34,244.66 318.43,242.11 319.53,244.99 320.62,249.48 321.71,248.18 322.81,249.74 323.90,245.60 325.00,252.17 326.09,251.99 327.18,247.75 328.28,241.49 329.36,234.57 330.46,226.27 331.56,229.03 332.65,232.51 333.74,237.16 334.84,237.70 335.93,242.40 337.03,254.59 338.12,266.40 339.22,261.57 340.31,249.28 341.40,246.42 342.49,229.83 343.59,218.43 344.68,229.96 345.77,237.82 346.87,236.52 347.97,240.75 349.06,247.52 350.15,244.91 351.24,251.03 352.34,245.62 353.43,230.65 354.53,225.67 355.62,226.56 356.72,230.01 357.81,229.13 358.90,230.59 359.99,228.92 361.09,234.22 362.18,239.00 363.28,229.89 364.37,225.65 365.46,223.57 366.56,238.09 367.65,239.95 368.74,227.48 369.84,233.32 370.93,249.20 372.03,244.22 373.12,250.23 374.21,252.88 375.30,238.21 376.40,237.28 377.50,240.64 378.58,236.06 379.68,242.71 380.78,260.65 381.87,261.15 382.96,261.42 384.06,264.45 385.15,255.82 386.24,253.82 387.34,247.45 388.43,243.58 389.52,239.08 390.62,239.51 391.72,242.19 392.81,247.57 393.90,249.46 394.99,249.72 396.08,255.20 397.18,257.64 398.27,265.28 399.37,267.02 400.46,257.51 401.56,240.52 402.65,226.09 403.74,219.42 404.84,217.94 405.93,218.45 407.02,218.44 408.12,219.97 409.21,221.83 410.31,226.85 411.40,224.77 412.49,224.73 413.59,220.49 414.68,224.66 415.78,232.03 416.87,232.20 417.96,224.00 419.06,228.70 420.15,247.36 421.25,246.75 422.34,239.93 423.43,247.83 424.52,255.62 425.62,257.53 426.72,256.46 427.81,259.41 428.90,252.57 430.00,252.44 431.09,233.82 432.18,208.83 433.28,193.43 434.37,201.97 435.47,221.89 436.56,240.42 437.65,236.36 438.74,230.41 439.84,228.14 440.93,229.94 442.03,239.01 443.12,243.90 444.22,240.71 445.31,227.51 446.40,221.09 447.49,221.47 448.59,222.33 449.68,225.47 450.77,232.11 451.87,229.22 452.96,223.65 454.05,211.82 455.15,213.76 456.25,234.02 457.34,255.57 458.43,252.60 459.52,252.33 460.62,245.38 461.71,235.76 462.81,229.93 463.90,225.58 465.00,224.07 466.09,226.02 467.18,229.47 468.28,232.66 469.37,223.65 470.46,229.93 471.56,246.20 472.65,251.51 473.75,247.66 474.83,243.44 475.93,237.19 477.03,232.02 478.12,230.50 479.21,226.74 480.31,227.18 481.40,224.69 482.50,224.68 483.59,225.71 484.68,236.59 485.77,249.61 486.86,264.25 487.97,269.96 489.06,264.35 490.15,244.48 491.24,233.21 492.34,227.31 493.43,227.73 494.52,226.02 495.62,226.62 496.71,231.71 497.80,241.59 498.90,249.68 499.99,255.97 501.08,260.47 502.18,257.36 503.28,250.13 504.37,228.74 505.46,214.10 506.56,207.29 507.65,222.30 508.74,231.21 509.83,240.60 510.93,241.06 512.02,246.44 513.12,253.63 514.21,252.86 515.30,255.26 516.40,254.52 517.49,258.44 518.59,248.41 519.68,242.54 520.78,241.39 521.87,246.08 522.96,240.43 524.06,240.48 525.15,243.30 526.24,248.97 527.34,248.95 528.43,255.78 529.53,259.53 530.62,255.00 531.71,251.99 532.81,253.07 533.90,244.49 534.99,243.06 536.08,242.20 537.18,238.81 538.28,244.76 539.37,248.38 540.46,249.95 541.55,257.14 542.64,262.29 543.74,267.35 544.83,264.10 545.93,256.79 547.02,253.41 548.12,253.05 549.21,253.76 550.31,249.08 551.40,244.49 552.49,251.54 553.59,258.66 554.68,249.19 555.77,252.20 556.86,257.72 557.96,265.26 559.05,270.37 560.15,269.53 561.24,266.79 562.33,267.65 563.43,267.59 564.53,266.79 565.62,266.16 566.71,266.18 567.81,258.84 568.90,259.22 570.00,257.61 571.08,265.88 572.18,265.17 573.27,265.69 574.36,269.09 575.46,263.26 576.56,247.79 577.65,257.32 578.75,264.58 579.84,270.84 580.93,267.91 582.02,270.25 583.12,267.48 584.22,271.35 585.31,261.75 586.40,259.03 587.49,267.29 588.58,270.13 589.68,271.16 590.77,275.64 591.86,275.45 592.96,271.11 594.06,266.99 595.15,259.62 596.25,256.55 597.34,260.24 598.43,257.86 599.53,248.76 600.62,249.32 601.71,253.89 602.81,248.98 603.90,249.77 604.99,251.93 606.08,250.71 607.18,249.98 608.28,252.20 609.37,244.86 610.46,251.21 611.56,250.98 612.64,241.86 613.74,243.57 614.83,254.84 615.93,255.91 617.02,258.33 618.12,258.55 619.21,250.13 620.31,244.21 621.40,250.47 622.49,260.58 623.58,255.38 624.68,251.98 625.78,249.01 626.87,256.68 627.96,257.50 629.05,265.24 630.15,271.86 631.24,273.13 632.34,272.10 633.43,268.93 634.53,263.67 635.61,265.03 636.71,264.85 637.81,263.17 638.90,260.18 639.99,260.79 641.09,262.91 642.18,268.41 643.28,273.05 644.37,270.62 645.46,256.02 646.55,252.24 647.65,249.43 648.74,248.77 649.84,252.33 650.93,254.74 652.02,249.97 653.12,256.14 654.21,262.82 655.30,269.45 656.40,274.36 657.49,270.53 658.59,267.48 659.68,263.11 660.77,262.59 661.87,265.67 662.96,262.61 664.06,261.06 665.15,261.32 666.24,263.31 667.33,265.83 668.43,261.85 669.52,256.28 670.62,251.33 671.71,247.92 672.80,251.22 673.90,254.31 674.99,265.80 676.09,266.32 677.18,268.13 678.28,273.18 679.36,274.41 680.46,274.63 681.55,269.08 682.65,269.92 683.74,265.53 684.83,258.65 685.93,251.83 687.03,252.05 688.12,253.88 689.21,259.43 690.30,267.28 691.40,281.42 692.49,274.54 693.58,270.09 694.68,255.04 695.77,252.90 696.87,252.99 697.96,256.93 699.05,265.49 700.15,268.00 701.25,276.80 702.34,278.53 703.43,274.16 704.52,267.86 705.62,268.15 706.71,262.77 707.80,258.88 708.89,255.26 709.99,259.45 711.08,266.80 712.18,271.50 713.27,277.00 714.37,281.31 715.46,279.64 716.55,273.37 717.65,265.59 718.74,267.74 719.84,261.88 720.93,267.81 722.02,271.26 723.11,269.92 724.21,275.14 725.30,271.85 726.40,267.43 727.50,256.24 728.58,254.09 729.68,257.17 730.77,262.59 731.86,266.98 732.96,265.33 734.05,269.01 735.15,263.49 736.24,260.35 737.33,260.16 738.43,267.35 739.52,267.41 740.62,264.03 741.71,263.60 742.81,262.28 743.90,270.39 744.99,272.25 746.09,275.76 747.17,276.75 748.27,280.49 749.36,280.70 750.46,279.60 751.55,279.96 752.65,273.64 753.74,262.58 754.84,259.51 755.92,258.79 757.03,265.85 758.12,267.64 759.21,268.35 760.30,267.39 761.40,266.72 762.50,270.54 763.58,273.05 764.68,278.17 765.78,278.18 766.86,270.75 767.96,259.81 769.05,259.10 770.14,261.80 771.25,260.88 772.33,261.20 773.43,259.53 774.52,265.66 775.62,265.74 776.71,270.20 777.80,269.64 778.90,273.54 780.00,279.83 781.09,278.95 782.18,274.60 783.28,275.90 784.37,270.35 785.46,272.11 786.55,276.98 787.64,275.48 788.74,282.23 789.84,282.50 790.93,274.63 792.02,272.02 793.12,280.26 794.21,286.55 795.30,281.85 796.40,280.03 797.49,275.24 798.58,271.35 799.68,275.93 800.78,285.27 801.87,281.42 802.96,282.99 804.06,278.17 805.15,280.14 806.24,280.42 807.33,274.09 808.43,277.15 809.53,281.01 810.61,273.94 811.71,271.90 812.80,277.42 813.89,282.12 814.99,286.20 816.09,280.62 817.18,279.23 818.27,278.48 819.37,278.22 820.46,276.01 821.55,274.57 822.65,271.41 823.74,268.18 824.84,275.77 825.93,280.43 827.02,274.68 828.12,275.34 829.21,270.49 830.30,270.83 831.40,271.78 832.49,278.36 833.58,284.72 834.68,279.20 835.77,275.70 836.86,275.06 837.95,273.60 839.05,278.44 840.15,278.02 841.24,276.17 842.33,273.64 843.43,279.88 844.52,283.40 845.61,283.00 846.71,281.47 847.80,283.15 848.89,282.02 849.99,282.01 851.09,278.51 852.17,278.43 853.27,279.69 854.37,278.14 855.46,278.30 856.56,274.09 857.65,276.31 858.74,276.47 859.84,274.11 860.93,276.75 862.03,273.20 863.12,269.56 864.20,266.97 865.31,270.82 866.40,277.11 867.50,280.39 868.58,277.86 869.68,279.77 870.77,273.23 871.86,271.05 872.96,275.78 874.06,281.47 875.14,282.90 876.24,279.59 877.34,282.82 878.43,279.37 879.52,278.37 880.62,276.39 881.71,270.01 882.80,276.17 883.90,276.33 884.99,280.74 886.09,277.75 887.18,275.84 888.27,270.40 889.36,267.93 890.46,271.54 891.56,279.31 892.65,285.28 893.74,285.87 894.83,288.16 895.93,285.91 897.02,282.65 898.12,284.18 899.21,283.29 900.30,281.06 901.40,280.42 902.49,280.11 903.59,283.70 904.68,284.70 905.77,283.82 906.87,279.18 907.96,280.64 909.06,279.57 910.14,283.51 911.24,284.92 912.34,285.34 913.43,278.02 914.53,282.69 915.62,287.28 916.71,284.24 917.81,280.85 918.89,274.94 919.99,276.38 921.08,272.72 922.18,270.36 923.27,269.29 924.37,270.03 925.46,273.32 926.55,281.24 927.65,285.00 928.74,281.16 929.83,281.62 930.93,286.09 932.02,282.30 933.11,274.99 934.21,277.66 935.30,278.25 936.40,282.44 937.49,288.88 938.59,290.33 939.68,289.70 940.77,289.66 941.86,286.29 942.96,279.52 944.06,279.76 945.15,285.27 946.24,290.82 947.33,283.68 948.43,279.46 949.52,286.51 950.61,290.69 951.71,285.53 952.80,279.74 953.90,277.26 954.99,284.11 955.00,284.11" fill="none" stroke="#b63472" stroke-width="1.8"/><path d="M670 450h20" stroke="#b63472" stroke-width="3"/><text x="696" y="454" font-family="Arial" font-size="12">outer pad</text><polyline points="80.00,339.20 81.09,339.20 82.18,339.20 83.27,339.19 84.37,338.56 85.47,333.99 86.56,327.41 87.65,322.36 88.75,312.72 89.83,300.18 90.93,290.07 92.03,283.02 93.12,279.92 94.21,277.35 95.31,270.49 96.40,264.80 97.50,263.73 98.58,269.14 99.68,265.35 100.77,259.01 101.87,258.53 102.96,261.43 104.05,263.76 105.16,257.48 106.24,236.60 107.34,224.75 108.44,219.35 109.53,215.64 110.62,207.02 111.72,195.96 112.81,192.96 113.90,192.12 115.00,189.15 116.09,181.14 117.18,173.72 118.27,176.66 119.37,183.75 120.47,187.64 121.56,190.43 122.65,185.35 123.75,187.05 124.83,189.53 125.94,193.83 127.03,201.17 128.12,205.81 129.21,212.60 130.31,221.00 131.40,220.67 132.49,220.42 133.58,227.69 134.68,230.48 135.77,234.59 136.87,230.99 137.96,231.35 139.06,231.14 140.16,226.06 141.25,222.78 142.34,226.72 143.43,229.90 144.53,232.27 145.62,234.11 146.71,232.44 147.81,232.28 148.90,227.23 149.99,220.63 151.09,214.94 152.18,204.52 153.27,205.03 154.37,210.53 155.46,208.38 156.55,208.04 157.65,210.41 158.75,218.50 159.84,218.76 160.93,206.83 162.03,204.55 163.12,204.42 164.21,199.94 165.31,187.79 166.40,185.41 167.50,188.71 168.59,190.50 169.68,195.71 170.77,186.38 171.87,186.29 172.96,183.16 174.06,186.50 175.16,193.68 176.24,197.07 177.34,202.60 178.43,209.27 179.53,220.32 180.62,225.27 181.71,227.83 182.81,227.36 183.90,228.60 184.99,224.68 186.09,224.21 187.18,221.95 188.28,222.68 189.37,225.73 190.47,229.41 191.55,240.15 192.65,238.87 193.75,233.47 194.84,228.81 195.93,226.09 197.03,227.08 198.12,223.50 199.22,218.14 200.30,214.45 201.40,219.78 202.50,230.40 203.59,235.59 204.68,233.44 205.78,227.15 206.87,224.13 207.96,222.13 209.06,224.47 210.15,232.92 211.24,237.39 212.33,241.19 213.43,235.23 214.52,223.68 215.62,216.92 216.71,215.69 217.80,217.19 218.90,216.64 219.99,214.42 221.08,218.34 222.18,231.46 223.27,232.30 224.37,228.98 225.46,227.87 226.55,222.46 227.65,217.71 228.74,216.02 229.84,219.10 230.93,223.74 232.02,222.62 233.12,222.95 234.22,227.87 235.30,233.68 236.40,231.16 237.50,223.39 238.59,218.95 239.68,216.38 240.78,215.04 241.86,212.19 242.97,212.29 244.05,213.31 245.15,215.53 246.25,218.32 247.33,218.19 248.43,213.83 249.52,218.01 250.62,216.24 251.72,207.98 252.81,205.90 253.90,210.20 254.99,215.25 256.09,218.02 257.18,220.28 258.28,224.72 259.37,224.14 260.47,228.36 261.55,232.37 262.65,233.36 263.74,238.07 264.84,240.43 265.93,242.17 267.02,239.38 268.12,240.86 269.22,239.75 270.30,240.73 271.40,239.69 272.49,237.19 273.59,232.16 274.69,224.98 275.77,217.53 276.87,220.65 277.96,225.60 279.06,232.80 280.16,241.28 281.24,240.93 282.34,239.46 283.43,236.18 284.52,230.98 285.62,223.50 286.71,218.22 287.81,211.77 288.90,210.33 290.00,213.05 291.09,215.95 292.18,218.07 293.28,229.58 294.37,237.26 295.46,235.89 296.56,234.01 297.65,227.67 298.74,224.59 299.84,217.16 300.93,218.69 302.02,224.60 303.12,234.97 304.21,239.15 305.31,244.89 306.39,246.23 307.49,237.93 308.58,233.19 309.68,234.84 310.77,236.15 311.87,240.01 312.96,235.66 314.05,236.69 315.15,239.79 316.24,241.44 317.34,239.09 318.43,235.36 319.53,244.44 320.62,241.61 321.71,242.10 322.81,237.45 323.90,232.38 325.00,234.59 326.09,240.77 327.18,244.42 328.28,242.72 329.36,235.02 330.46,235.36 331.56,236.98 332.65,237.57 333.74,239.99 334.84,237.71 335.93,237.31 337.03,237.20 338.12,237.99 339.22,238.77 340.31,235.12 341.40,239.95 342.49,238.81 343.59,239.78 344.68,231.25 345.77,231.55 346.87,232.41 347.97,231.02 349.06,234.08 350.15,233.49 351.24,220.93 352.34,218.02 353.43,217.01 354.53,223.35 355.62,226.05 356.72,229.79 357.81,232.19 358.90,228.93 359.99,227.23 361.09,224.90 362.18,219.78 363.28,211.83 364.37,216.59 365.46,212.84 366.56,219.33 367.65,218.97 368.74,219.07 369.84,220.60 370.93,216.68 372.03,212.77 373.12,219.08 374.21,227.21 375.30,232.98 376.40,228.82 377.50,234.45 378.58,231.46 379.68,235.85 380.78,243.40 381.87,244.44 382.96,236.10 384.06,232.08 385.15,236.44 386.24,232.81 387.34,230.73 388.43,236.00 389.52,234.17 390.62,235.10 391.72,238.51 392.81,243.29 393.90,237.83 394.99,230.81 396.08,234.00 397.18,243.95 398.27,243.08 399.37,242.71 400.46,238.85 401.56,236.25 402.65,232.53 403.74,231.36 404.84,233.55 405.93,233.18 407.02,229.97 408.12,229.11 409.21,232.02 410.31,228.96 411.40,222.55 412.49,226.24 413.59,217.73 414.68,212.71 415.78,212.02 416.87,213.91 417.96,204.88 419.06,204.23 420.15,207.59 421.25,207.39 422.34,203.39 423.43,203.31 424.52,211.33 425.62,221.77 426.72,223.12 427.81,221.60 428.90,220.41 430.00,220.70 431.09,218.87 432.18,222.06 433.28,223.99 434.37,226.53 435.47,229.89 436.56,230.43 437.65,233.31 438.74,234.33 439.84,234.97 440.93,230.18 442.03,229.89 443.12,230.89 444.22,235.92 445.31,242.68 446.40,241.57 447.49,246.09 448.59,244.72 449.68,240.91 450.77,241.07 451.87,239.85 452.96,233.58 454.05,234.76 455.15,242.30 456.25,245.38 457.34,236.73 458.43,232.02 459.52,222.28 460.62,217.14 461.71,208.67 462.81,207.04 463.90,208.27 465.00,214.62 466.09,214.46 467.18,207.10 468.28,206.61 469.37,206.85 470.46,210.14 471.56,220.04 472.65,229.84 473.75,231.38 474.83,228.62 475.93,231.40 477.03,232.39 478.12,232.12 479.21,230.76 480.31,232.81 481.40,236.43 482.50,239.04 483.59,237.66 484.68,237.51 485.77,235.39 486.86,237.28 487.97,242.71 489.06,245.81 490.15,243.09 491.24,243.48 492.34,246.23 493.43,247.50 494.52,248.19 495.62,243.45 496.71,239.00 497.80,242.99 498.90,252.51 499.99,254.00 501.08,244.88 502.18,236.29 503.28,229.40 504.37,234.12 505.46,237.77 506.56,238.58 507.65,233.72 508.74,225.00 509.83,224.88 510.93,225.86 512.02,226.33 513.12,228.19 514.21,227.21 515.30,227.97 516.40,232.88 517.49,232.19 518.59,232.49 519.68,238.76 520.78,241.34 521.87,238.72 522.96,239.91 524.06,241.62 525.15,241.06 526.24,247.41 527.34,247.63 528.43,244.24 529.53,242.96 530.62,240.45 531.71,241.43 532.81,242.74 533.90,243.17 534.99,241.13 536.08,238.33 537.18,232.25 538.28,230.86 539.37,232.69 540.46,229.18 541.55,224.22 542.64,226.49 543.74,227.65 544.83,225.29 545.93,223.07 547.02,219.02 548.12,217.52 549.21,216.50 550.31,218.65 551.40,220.52 552.49,219.52 553.59,219.66 554.68,223.10 555.77,220.98 556.86,224.22 557.96,231.61 559.05,236.00 560.15,235.63 561.24,233.29 562.33,231.80 563.43,228.70 564.53,236.22 565.62,242.55 566.71,237.31 567.81,235.92 568.90,242.18 570.00,246.34 571.08,247.93 572.18,248.30 573.27,250.60 574.36,253.27 575.46,248.48 576.56,244.46 577.65,240.61 578.75,241.01 579.84,241.95 580.93,240.61 582.02,232.52 583.12,228.05 584.22,219.89 585.31,222.92 586.40,227.54 587.49,224.52 588.58,226.35 589.68,219.21 590.77,219.63 591.86,221.58 592.96,222.41 594.06,223.40 595.15,229.77 596.25,232.15 597.34,236.41 598.43,232.18 599.53,232.79 600.62,237.11 601.71,236.67 602.81,240.90 603.90,240.81 604.99,243.74 606.08,243.48 607.18,245.33 608.28,242.88 609.37,242.14 610.46,240.39 611.56,234.73 612.64,231.94 613.74,230.88 614.83,236.98 615.93,236.75 617.02,235.57 618.12,242.47 619.21,246.01 620.31,242.11 621.40,239.96 622.49,244.30 623.58,239.58 624.68,239.29 625.78,235.24 626.87,233.88 627.96,232.57 629.05,231.51 630.15,230.20 631.24,232.66 632.34,230.43 633.43,226.75 634.53,224.83 635.61,225.42 636.71,227.63 637.81,231.57 638.90,234.80 639.99,233.15 641.09,237.29 642.18,238.29 643.28,235.14 644.37,237.29 645.46,228.34 646.55,229.87 647.65,235.44 648.74,238.31 649.84,242.50 650.93,248.76 652.02,251.02 653.12,255.68 654.21,255.44 655.30,252.71 656.40,250.22 657.49,246.21 658.59,242.64 659.68,247.59 660.77,254.16 661.87,252.76 662.96,249.93 664.06,242.90 665.15,244.01 666.24,241.38 667.33,235.43 668.43,232.83 669.52,229.01 670.62,230.33 671.71,234.77 672.80,239.64 673.90,241.53 674.99,240.32 676.09,233.57 677.18,230.62 678.28,219.93 679.36,214.81 680.46,212.67 681.55,213.36 682.65,215.80 683.74,216.42 684.83,220.72 685.93,219.40 687.03,224.36 688.12,230.92 689.21,238.17 690.30,240.65 691.40,245.47 692.49,244.47 693.58,242.95 694.68,240.35 695.77,235.20 696.87,226.23 697.96,224.13 699.05,226.36 700.15,227.53 701.25,227.91 702.34,225.41 703.43,226.24 704.52,236.90 705.62,246.30 706.71,251.77 707.80,246.41 708.89,248.99 709.99,252.42 711.08,248.14 712.18,246.53 713.27,246.67 714.37,242.53 715.46,241.99 716.55,237.23 717.65,239.24 718.74,239.86 719.84,244.90 720.93,246.52 722.02,246.81 723.11,252.17 724.21,254.89 725.30,255.51 726.40,253.19 727.50,252.61 728.58,249.57 729.68,248.84 730.77,246.75 731.86,246.90 732.96,240.36 734.05,238.84 735.15,239.40 736.24,244.68 737.33,243.13 738.43,241.57 739.52,243.76 740.62,245.36 741.71,246.93 742.81,240.44 743.90,233.98 744.99,234.66 746.09,233.26 747.17,230.07 748.27,228.39 749.36,231.08 750.46,236.00 751.55,232.70 752.65,231.91 753.74,240.22 754.84,241.31 755.92,243.24 757.03,244.10 758.12,241.38 759.21,240.98 760.30,239.37 761.40,233.98 762.50,231.14 763.58,231.49 764.68,226.87 765.78,225.89 766.86,231.08 767.96,233.44 769.05,240.58 770.14,245.88 771.25,250.97 772.33,244.66 773.43,242.05 774.52,247.95 775.62,245.60 776.71,240.32 777.80,239.18 778.90,238.58 780.00,241.74 781.09,242.54 782.18,244.62 783.28,243.63 784.37,249.20 785.46,250.39 786.55,248.84 787.64,247.45 788.74,245.76 789.84,243.43 790.93,241.72 792.02,243.69 793.12,250.69 794.21,250.14 795.30,249.69 796.40,249.22 797.49,244.63 798.58,241.66 799.68,244.83 800.78,247.80 801.87,249.25 802.96,249.54 804.06,250.09 805.15,247.46 806.24,248.56 807.33,256.18 808.43,257.67 809.53,252.34 810.61,248.14 811.71,242.56 812.80,242.33 813.89,247.47 814.99,250.61 816.09,248.43 817.18,251.31 818.27,250.90 819.37,248.01 820.46,250.41 821.55,251.05 822.65,249.62 823.74,246.75 824.84,241.33 825.93,239.34 827.02,241.63 828.12,241.38 829.21,243.43 830.30,247.20 831.40,249.73 832.49,252.03 833.58,252.92 834.68,250.71 835.77,250.64 836.86,250.11 837.95,249.02 839.05,251.21 840.15,248.54 841.24,252.02 842.33,256.80 843.43,254.23 844.52,250.67 845.61,252.25 846.71,248.97 847.80,245.48 848.89,246.78 849.99,246.00 851.09,249.12 852.17,250.88 853.27,255.03 854.37,251.94 855.46,243.77 856.56,239.46 857.65,238.77 858.74,236.77 859.84,236.23 860.93,233.72 862.03,238.94 863.12,245.54 864.20,246.95 865.31,253.05 866.40,254.90 867.50,248.88 868.58,247.54 869.68,244.42 870.77,245.64 871.86,242.13 872.96,238.45 874.06,239.23 875.14,241.56 876.24,243.65 877.34,247.56 878.43,249.97 879.52,254.01 880.62,252.44 881.71,243.91 882.80,239.39 883.90,239.80 884.99,238.71 886.09,234.43 887.18,231.73 888.27,233.00 889.36,235.53 890.46,236.10 891.56,238.80 892.65,243.06 893.74,244.08 894.83,243.79 895.93,249.90 897.02,247.35 898.12,255.88 899.21,253.72 900.30,249.70 901.40,247.95 902.49,249.45 903.59,242.76 904.68,240.05 905.77,241.58 906.87,245.88 907.96,253.00 909.06,255.19 910.14,252.54 911.24,249.61 912.34,249.71 913.43,248.49 914.53,247.81 915.62,252.00 916.71,252.95 917.81,251.58 918.89,247.74 919.99,246.46 921.08,249.79 922.18,253.78 923.27,256.71 924.37,258.13 925.46,253.80 926.55,258.00 927.65,259.81 928.74,265.62 929.83,261.34 930.93,258.32 932.02,255.88 933.11,250.04 934.21,250.71 935.30,250.66 936.40,252.36 937.49,256.54 938.59,253.90 939.68,255.81 940.77,263.80 941.86,264.86 942.96,264.66 944.06,261.70 945.15,264.66 946.24,265.86 947.33,259.29 948.43,256.96 949.52,255.47 950.61,255.33 951.71,249.36 952.80,250.36 953.90,253.14 954.99,253.91 955.00,253.91" fill="none" stroke="#568741" stroke-width="1.8"/><path d="M80 472h20" stroke="#568741" stroke-width="3"/><text x="106" y="476" font-family="Arial" font-size="12">center</text></svg>