<svg xmlns="http://www.w3.org/2000/svg" width="1000" height="462" viewBox="0 0 1000 462" role="img" aria-label="Moving assembly travel"><rect width="100%" height="100%" fill="white"/><text x="76" y="30" font-family="Arial" font-size="19" fill="#172c35">Moving assembly travel</text><path d="M80 355.00H955" stroke="#e2e8eb"/><text x="69" y="359.00" text-anchor="end" font-family="Arial" font-size="12">-0.6065</text><text x="80.00" y="378" text-anchor="middle" font-family="Arial" font-size="12">0</text><path d="M80 296.00H955" stroke="#e2e8eb"/><text x="69" y="300.00" text-anchor="end" font-family="Arial" font-size="12">1.658</text><text x="255.00" y="378" text-anchor="middle" font-family="Arial" font-size="12">0.06</text><path d="M80 237.00H955" stroke="#e2e8eb"/><text x="69" y="241.00" text-anchor="end" font-family="Arial" font-size="12">3.922</text><text x="430.00" y="378" text-anchor="middle" font-family="Arial" font-size="12">0.12</text><path d="M80 178.00H955" stroke="#e2e8eb"/><text x="69" y="182.00" text-anchor="end" font-family="Arial" font-size="12">6.186</text><text x="605.00" y="378" text-anchor="middle" font-family="Arial" font-size="12">0.18</text><path d="M80 119.00H955" stroke="#e2e8eb"/><text x="69" y="123.00" text-anchor="end" font-family="Arial" font-size="12">8.451</text><text x="780.00" y="378" text-anchor="middle" font-family="Arial" font-size="12">0.24</text><path d="M80 60.00H955" stroke="#e2e8eb"/><text x="69" y="64.00" text-anchor="end" font-family="Arial" font-size="12">10.71</text><text x="955.00" y="378" text-anchor="middle" font-family="Arial" font-size="12">0.3</text><path d="M80 60V355H955" fill="none" stroke="#657882"/><text x="520" y="403" text-anchor="middle" font-family="Arial" font-size="13">Time (ms)</text><text x="18" y="205" transform="rotate(-90 18 205)" text-anchor="middle" font-family="Arial" font-size="13">Travel (mm)</text><polyline points="80.00,339.20 109.14,326.29 138.31,313.97 167.44,302.21 196.63,290.84 225.82,279.80 254.96,269.14 284.09,258.90 313.26,249.07 342.46,239.58 371.63,230.47 400.78,221.70 429.94,213.21 459.09,204.96 488.31,196.94 517.46,189.14 546.63,181.46 575.78,173.86 604.96,166.29 634.12,158.74 663.25,151.21 692.42,143.67 721.62,136.13 750.73,128.60 779.95,121.05 809.07,113.52 838.27,105.97 867.45,98.43 896.56,90.91 925.74,83.37 954.94,75.82 955.00,75.80" fill="none" stroke="#067d89" stroke-width="1.8"/><path d="M80 428h20" stroke="#067d89" stroke-width="3"/><text x="106" y="432" font-family="Arial" font-size="12">Moving assembly</text></svg>