<svg xmlns="http://www.w3.org/2000/svg" width="1000" height="462" viewBox="0 0 1000 462" role="img" aria-label="Contact force resultant"><rect width="100%" height="100%" fill="white"/><text x="76" y="30" font-family="Arial" font-size="19" fill="#172c35">Contact force resultant</text><path d="M80 355.00H955" stroke="#e2e8eb"/><text x="69" y="359.00" text-anchor="end" font-family="Arial" font-size="12">-5907</text><text x="80.00" y="378" text-anchor="middle" font-family="Arial" font-size="12">0</text><path d="M80 296.00H955" stroke="#e2e8eb"/><text x="69" y="300.00" text-anchor="end" font-family="Arial" font-size="12">1.615e+04</text><text x="255.00" y="378" text-anchor="middle" font-family="Arial" font-size="12">1.6</text><path d="M80 237.00H955" stroke="#e2e8eb"/><text x="69" y="241.00" text-anchor="end" font-family="Arial" font-size="12">3.82e+04</text><text x="430.00" y="378" text-anchor="middle" font-family="Arial" font-size="12">3.2</text><path d="M80 178.00H955" stroke="#e2e8eb"/><text x="69" y="182.00" text-anchor="end" font-family="Arial" font-size="12">6.025e+04</text><text x="605.00" y="378" text-anchor="middle" font-family="Arial" font-size="12">4.8</text><path d="M80 119.00H955" stroke="#e2e8eb"/><text x="69" y="123.00" text-anchor="end" font-family="Arial" font-size="12">8.23e+04</text><text x="780.00" y="378" text-anchor="middle" font-family="Arial" font-size="12">6.4</text><path d="M80 60.00H955" stroke="#e2e8eb"/><text x="69" y="64.00" text-anchor="end" font-family="Arial" font-size="12">1.044e+05</text><text x="955.00" y="378" text-anchor="middle" font-family="Arial" font-size="12">8</text><path d="M80 60V355H955" fill="none" stroke="#657882"/><text x="520" y="403" text-anchor="middle" font-family="Arial" font-size="13">Time (ms)</text><text x="18" y="205" transform="rotate(-90 18 205)" text-anchor="middle" font-family="Arial" font-size="13">Force (N)</text><polyline points="80.00,339.20 81.09,162.12 82.19,91.27 83.28,113.87 84.37,223.00 85.46,175.81 86.56,75.80 87.66,102.06 88.74,127.53 89.83,192.85 90.93,134.98 92.03,137.24 93.12,138.54 94.21,168.92 95.31,164.25 96.40,148.55 97.50,160.33 98.59,174.80 99.68,203.84 100.78,215.35 101.87,240.61 102.97,266.34 104.06,292.60 105.15,310.38 106.25,324.64 107.34,335.43 108.43,339.13 109.53,339.20 110.62,339.20 111.71,339.20 112.81,339.20 113.90,339.20 115.00,339.20 116.09,339.20 117.18,339.20 118.28,339.20 119.37,339.20 120.46,339.20 121.56,339.20 122.65,339.20 123.74,339.20 124.84,339.20 125.94,339.20 127.03,339.20 128.12,339.20 129.21,339.20 130.31,339.20 131.40,339.20 132.50,339.20 133.59,339.20 134.68,339.20 135.78,339.20 136.87,339.20 137.97,339.20 139.06,339.20 140.15,339.20 141.24,339.20 142.34,339.20 143.44,339.20 144.53,339.20 145.63,339.20 146.71,339.20 147.80,339.20 148.91,339.20 150.00,339.20 151.09,339.20 152.18,339.20 153.28,339.20 154.37,339.20 155.47,339.20 156.56,339.20 157.65,339.20 158.75,339.20 159.84,339.20 160.93,339.20 162.03,339.20 163.12,339.20 164.21,339.20 165.31,339.20 166.40,339.20 167.49,339.20 168.59,339.20 169.68,339.20 170.78,339.20 171.88,339.20 172.96,339.20 174.06,339.20 175.15,339.20 176.25,339.20 177.34,339.20 178.43,339.20 179.53,339.20 180.62,339.20 181.72,339.20 182.81,339.20 183.90,339.20 185.00,339.20 186.09,339.20 187.18,339.20 188.27,339.20 189.37,339.20 190.46,339.20 191.55,339.20 192.66,339.20 193.75,339.20 194.84,339.20 195.94,339.20 197.02,339.20 198.12,339.20 199.21,339.20 200.31,339.20 201.41,339.20 202.50,339.20 203.59,339.20 204.68,339.20 205.77,339.20 206.87,339.20 207.96,339.20 209.06,339.20 210.15,339.20 211.24,339.20 212.34,339.20 213.43,339.20 214.52,339.20 215.63,339.20 216.71,339.20 217.81,339.20 218.90,339.20 219.99,339.20 221.09,339.20 222.19,339.20 223.27,339.20 224.37,339.20 225.47,339.20 226.56,339.20 227.65,339.20 228.74,339.20 229.84,339.20 230.94,339.20 232.03,339.20 233.12,339.20 234.22,339.20 235.31,339.20 236.41,339.20 237.50,339.20 238.59,339.20 239.69,339.20 240.78,339.20 241.87,339.20 242.97,339.20 244.06,339.20 245.15,339.20 246.25,339.20 247.34,339.20 248.44,339.20 249.53,339.20 250.62,339.20 251.71,339.20 252.81,339.20 253.90,339.20 254.99,339.20 256.09,339.20 257.18,339.20 258.28,339.20 259.38,339.20 260.46,339.20 261.56,339.20 262.65,339.20 263.74,339.20 264.84,339.20 265.93,339.20 267.03,339.20 268.12,339.20 269.22,339.20 270.31,339.20 271.40,339.20 272.49,339.20 273.59,339.20 274.68,339.20 275.78,339.20 276.87,339.20 277.97,339.20 279.06,339.20 280.15,339.20 281.24,339.20 282.34,339.20 283.44,339.20 284.53,339.20 285.62,339.20 286.72,339.20 287.81,339.20 288.90,339.20 289.99,339.20 291.09,339.20 292.18,339.20 293.27,339.20 294.37,339.20 295.47,339.20 296.56,339.20 297.65,339.20 298.74,339.20 299.84,339.20 300.93,339.20 302.02,339.20 303.12,339.20 304.22,339.20 305.31,339.20 306.40,339.20 307.50,339.20 308.59,339.20 309.68,339.20 310.77,339.20 311.87,339.20 312.96,339.20 314.06,339.20 315.15,339.20 316.24,339.20 317.34,339.20 318.43,339.20 319.53,339.20 320.62,339.20 321.72,339.20 322.81,339.20 323.91,339.20 325.00,339.20 326.09,339.20 327.18,339.20 328.28,339.20 329.37,339.20 330.47,339.20 331.56,339.20 332.66,339.20 333.75,339.20 334.84,339.20 335.93,339.20 337.03,339.20 338.12,339.20 339.21,339.20 340.31,339.20 341.40,339.20 342.50,339.20 343.59,339.20 344.68,339.20 345.78,339.20 346.87,339.20 347.96,339.20 349.06,339.20 350.15,339.20 351.24,339.20 352.34,339.20 353.43,339.20 354.53,338.44 355.62,320.55 356.72,255.95 357.81,209.09 358.90,227.19 360.00,266.25 361.09,263.67 362.19,244.10 363.28,227.65 364.37,232.26 365.47,254.26 366.56,255.87 367.65,242.45 368.75,229.97 369.84,229.24 370.93,230.66 372.02,218.86 373.12,203.18 374.21,189.32 375.31,197.30 376.40,218.69 377.50,242.19 378.59,260.73 379.69,271.18 380.77,278.02 381.87,289.56 382.97,311.06 384.06,329.13 385.15,337.15 386.25,339.17 387.34,339.20 388.44,339.20 389.53,339.20 390.62,339.20 391.72,339.20 392.81,339.20 393.91,339.20 394.99,339.20 396.09,339.20 397.18,339.20 398.28,339.20 399.37,339.20 400.47,339.20 401.56,339.20 402.65,339.20 403.74,339.20 404.84,339.20 405.93,339.20 407.03,339.20 408.12,339.20 409.21,339.20 410.31,339.20 411.40,339.20 412.49,339.20 413.59,339.20 414.69,339.20 415.78,339.20 416.87,339.20 417.96,339.20 419.06,339.20 420.15,339.20 421.24,339.20 422.34,339.20 423.44,339.20 424.53,339.20 425.62,339.20 426.72,339.20 427.80,339.20 428.91,339.20 430.00,339.20 431.09,339.20 432.18,339.20 433.28,339.20 434.37,339.20 435.46,339.20 436.56,339.20 437.65,339.20 438.74,339.20 439.84,339.20 440.93,339.20 442.03,339.20 443.12,339.20 444.21,339.20 445.30,339.20 446.40,339.20 447.50,339.20 448.59,339.20 449.69,339.20 450.78,339.20 451.87,339.20 452.96,339.20 454.06,339.20 455.15,339.20 456.25,339.20 457.34,339.20 458.43,339.20 459.53,339.20 460.62,339.20 461.71,339.20 462.81,339.20 463.90,339.20 465.00,339.20 466.09,339.20 467.18,339.20 468.27,339.20 469.38,339.20 470.46,339.20 471.56,339.20 472.65,339.20 473.75,339.20 474.84,339.20 475.94,339.20 477.03,339.20 478.12,339.20 479.21,339.20 480.31,339.20 481.40,339.20 482.49,339.20 483.59,339.20 484.69,339.20 485.78,339.20 486.87,339.20 487.96,339.20 489.05,339.20 490.15,339.20 491.24,339.20 492.34,339.20 493.44,339.20 494.53,339.20 495.62,339.20 496.72,339.20 497.81,339.20 498.90,339.20 500.00,339.20 501.09,339.20 502.18,339.20 503.28,339.20 504.37,339.20 505.47,339.20 506.56,339.20 507.65,339.20 508.74,339.20 509.84,339.20 510.94,339.20 512.03,339.20 513.12,339.20 514.21,339.20 515.31,339.20 516.40,339.20 517.50,339.20 518.59,339.20 519.69,339.20 520.78,339.20 521.87,339.20 522.96,339.20 524.06,339.20 525.15,339.20 526.25,339.20 527.34,339.20 528.43,339.20 529.53,339.20 530.62,339.20 531.71,339.20 532.81,339.20 533.90,339.20 535.00,339.20 536.09,339.20 537.18,339.20 538.27,339.20 539.37,339.20 540.47,339.20 541.56,339.20 542.65,339.20 543.75,339.20 544.84,339.20 545.94,339.20 547.03,339.20 548.12,339.20 549.22,339.20 550.31,339.20 551.40,339.20 552.50,339.20 553.59,339.20 554.68,339.20 555.78,337.00 556.87,315.63 557.96,291.59 559.06,263.25 560.15,248.33 561.25,226.79 562.34,210.35 563.44,201.78 564.53,207.70 565.62,207.50 566.72,204.69 567.81,214.04 568.91,224.17 569.99,239.48 571.09,242.01 572.18,248.31 573.28,247.70 574.38,244.02 575.46,235.40 576.56,224.06 577.66,221.88 578.75,226.87 579.84,243.66 580.93,256.80 582.03,270.50 583.12,279.96 584.22,291.42 585.31,303.31 586.40,309.73 587.49,314.27 588.59,318.09 589.69,324.51 590.78,331.31 591.87,336.18 592.96,338.58 594.06,339.11 595.15,339.20 596.25,339.20 597.34,339.20 598.43,339.20 599.53,339.20 600.62,339.20 601.72,339.20 602.81,336.30 603.90,289.87 605.00,256.74 606.09,244.53 607.18,287.29 608.28,304.74 609.37,307.21 610.46,304.74 611.56,303.43 612.66,313.18 613.74,305.68 614.84,304.85 615.93,300.60 617.03,309.06 618.12,311.80 619.22,315.44 620.31,319.78 621.41,325.03 622.50,325.38 623.59,316.26 624.68,309.24 625.78,306.75 626.87,312.92 627.96,319.49 629.06,324.18 630.15,324.52 631.25,318.06 632.34,318.18 633.43,319.88 634.53,326.83 635.62,327.55 636.72,331.81 637.80,336.48 638.90,338.81 640.00,338.96 641.09,339.19 642.18,339.20 643.28,339.20 644.37,339.20 645.46,339.20 646.56,339.20 647.65,339.20 648.74,339.20 649.84,339.16 650.94,332.15 652.03,324.19 653.12,327.39 654.21,333.31 655.31,337.72 656.40,338.83 657.50,339.20 658.59,339.20 659.68,339.20 660.78,339.20 661.87,339.20 662.97,339.20 664.06,339.20 665.15,339.20 666.24,339.20 667.34,339.20 668.43,339.20 669.53,339.20 670.62,339.20 671.72,339.20 672.81,339.20 673.90,339.20 675.00,339.20 676.09,339.20 677.18,339.20 678.28,339.20 679.37,339.20 680.46,339.20 681.56,339.20 682.65,339.20 683.75,339.20 684.84,339.20 685.94,339.20 687.03,339.20 688.12,339.20 689.22,339.20 690.31,339.20 691.40,339.20 692.50,339.20 693.59,339.20 694.69,339.20 695.78,339.20 696.87,339.20 697.96,339.20 699.06,339.20 700.15,339.20 701.25,339.20 702.34,339.20 703.43,339.17 704.52,330.13 705.62,299.99 706.71,213.70 707.81,204.78 708.90,241.20 710.00,283.16 711.09,266.82 712.18,222.76 713.28,230.22 714.37,249.60 715.46,275.65 716.56,255.39 717.65,238.07 718.75,233.64 719.84,238.86 720.93,239.37 722.03,216.27 723.12,206.11 724.21,203.56 725.31,231.65 726.41,255.46 727.50,276.44 728.59,289.69 729.68,298.28 730.78,302.62 731.87,304.94 732.97,306.55 734.06,305.71 735.15,313.40 736.25,323.01 737.34,330.90 738.43,335.42 739.53,337.86 740.62,338.91 741.71,339.20 742.81,339.20 743.91,339.20 745.00,339.20 746.09,339.20 747.19,339.20 748.28,339.20 749.37,339.20 750.47,339.20 751.56,339.20 752.65,339.20 753.75,339.20 754.84,339.20 755.94,339.17 757.02,336.85 758.12,311.29 759.22,302.10 760.31,316.44 761.40,326.81 762.49,325.72 763.59,315.74 764.69,323.95 765.77,332.00 766.87,336.79 767.97,338.48 769.06,337.65 770.15,337.78 771.25,337.14 772.34,337.60 773.44,338.10 774.52,336.00 775.62,331.85 776.72,329.53 777.81,327.42 778.90,328.37 779.99,328.96 781.09,334.12 782.19,336.37 783.28,335.62 784.37,335.10 785.46,337.18 786.56,338.40 787.65,339.10 788.75,339.19 789.84,339.20 790.93,339.20 792.03,339.20 793.12,339.20 794.21,339.20 795.31,339.20 796.41,339.20 797.50,339.20 798.59,339.20 799.69,339.20 800.78,339.19 801.87,338.83 802.96,336.65 804.06,334.75 805.15,334.28 806.25,333.59 807.34,333.13 808.44,336.21 809.53,338.53 810.62,339.10 811.71,339.19 812.81,339.20 813.90,339.20 814.99,339.20 816.09,339.20 817.19,339.12 818.28,338.93 819.37,338.89 820.47,338.55 821.56,339.15 822.65,338.18 823.75,336.90 824.84,338.01 825.94,337.19 827.03,336.65 828.12,337.19 829.21,337.32 830.30,337.22 831.40,336.01 832.50,335.28 833.59,333.76 834.68,328.66 835.78,324.23 836.87,320.22 837.97,318.53 839.06,313.25 840.15,305.40 841.24,297.32 842.34,291.61 843.43,294.17 844.53,302.07 845.62,308.94 846.72,314.24 847.81,313.56 848.90,310.24 850.00,305.49 851.09,285.91 852.19,267.51 853.27,246.34 854.37,242.05 855.47,252.75 856.56,268.90 857.65,275.86 858.74,273.49 859.84,274.33 860.93,271.92 862.03,275.01 863.12,277.42 864.22,289.65 865.31,301.07 866.41,307.21 867.49,313.45 868.59,316.32 869.69,320.33 870.78,314.38 871.87,316.49 872.97,322.26 874.06,321.48 875.16,317.91 876.25,325.46 877.34,333.19 878.44,334.67 879.52,337.26 880.62,338.85 881.72,339.20 882.81,339.20 883.90,339.20 884.99,339.20 886.09,339.20 887.19,339.20 888.27,339.20 889.37,339.20 890.46,339.20 891.56,339.20 892.66,339.20 893.74,339.20 894.84,339.20 895.93,339.20 897.03,339.20 898.12,339.20 899.21,339.20 900.31,339.20 901.41,339.20 902.50,339.20 903.59,339.20 904.68,337.76 905.77,335.01 906.87,336.94 907.96,338.74 909.05,339.20 910.15,339.20 911.25,339.20 912.34,339.20 913.44,339.20 914.53,339.20 915.62,339.20 916.72,339.20 917.81,339.20 918.90,339.20 920.00,339.20 921.09,339.20 922.19,339.20 923.27,339.20 924.37,339.20 925.46,338.75 926.56,334.84 927.66,331.24 928.75,333.20 929.84,336.78 930.93,338.04 932.03,337.66 933.12,337.55 934.22,338.08 935.31,338.94 936.40,339.20 937.50,339.20 938.59,339.20 939.69,339.20 940.78,339.20 941.87,339.20 942.97,339.20 944.06,339.20 945.15,339.20 946.25,339.20 947.34,339.20 948.44,339.20 949.53,339.20 950.62,339.20 951.72,339.20 952.81,339.20 953.90,339.20 955.00,339.20" fill="none" stroke="#067d89" stroke-width="1.8"/><path d="M80 428h20" stroke="#067d89" stroke-width="3"/><text x="106" y="432" font-family="Arial" font-size="12">Stopping contact resultant</text></svg>