<svg xmlns="http://www.w3.org/2000/svg" width="1000" height="462" viewBox="0 0 1000 462" role="img" aria-label="Contact force resultant"><rect width="100%" height="100%" fill="white"/><text x="76" y="30" font-family="Arial" font-size="19" fill="#172c35">Contact force resultant</text><path d="M80 355.00H955" stroke="#e2e8eb"/><text x="69" y="359.00" text-anchor="end" font-family="Arial" font-size="12">-1.045e+04</text><text x="80.00" y="378" text-anchor="middle" font-family="Arial" font-size="12">0</text><path d="M80 296.00H955" stroke="#e2e8eb"/><text x="69" y="300.00" text-anchor="end" font-family="Arial" font-size="12">2.855e+04</text><text x="255.00" y="378" text-anchor="middle" font-family="Arial" font-size="12">1.6</text><path d="M80 237.00H955" stroke="#e2e8eb"/><text x="69" y="241.00" text-anchor="end" font-family="Arial" font-size="12">6.755e+04</text><text x="430.00" y="378" text-anchor="middle" font-family="Arial" font-size="12">3.2</text><path d="M80 178.00H955" stroke="#e2e8eb"/><text x="69" y="182.00" text-anchor="end" font-family="Arial" font-size="12">1.066e+05</text><text x="605.00" y="378" text-anchor="middle" font-family="Arial" font-size="12">4.8</text><path d="M80 119.00H955" stroke="#e2e8eb"/><text x="69" y="123.00" text-anchor="end" font-family="Arial" font-size="12">1.456e+05</text><text x="780.00" y="378" text-anchor="middle" font-family="Arial" font-size="12">6.4</text><path d="M80 60.00H955" stroke="#e2e8eb"/><text x="69" y="64.00" text-anchor="end" font-family="Arial" font-size="12">1.846e+05</text><text x="955.00" y="378" text-anchor="middle" font-family="Arial" font-size="12">8</text><path d="M80 60V355H955" fill="none" stroke="#657882"/><text x="520" y="403" text-anchor="middle" font-family="Arial" font-size="13">Time (ms)</text><text x="18" y="205" transform="rotate(-90 18 205)" text-anchor="middle" font-family="Arial" font-size="13">Force (N)</text><polyline points="80.00,339.20 80.22,339.20 81.31,75.80 81.53,90.32 82.84,155.59 83.06,171.51 83.93,212.48 85.24,212.15 85.68,207.01 85.90,201.59 87.21,163.80 87.43,165.56 88.75,209.27 88.97,210.22 90.06,197.40 90.28,196.76 91.59,222.44 91.80,227.84 93.12,249.65 93.34,249.55 94.22,245.87 94.66,248.52 95.96,275.92 96.18,281.72 97.49,311.08 97.71,315.21 98.81,326.60 99.03,328.29 100.34,334.04 100.56,334.80 101.87,338.96 102.09,339.16 102.52,339.20 103.40,339.20 104.93,339.20 106.47,339.20 107.77,339.20 109.31,339.20 110.83,339.20 112.15,339.20 113.68,339.20 115.21,339.20 116.53,339.20 118.06,339.20 119.59,339.20 120.90,339.20 122.44,339.20 123.97,339.20 125.28,339.20 126.81,339.20 128.34,339.20 129.65,339.20 131.19,339.20 132.71,339.20 134.24,339.20 135.56,339.20 137.08,339.20 138.62,339.20 139.94,339.20 141.46,339.20 143.00,339.20 144.31,339.20 145.84,339.20 147.37,339.20 148.68,339.20 150.22,339.20 151.75,339.20 153.06,339.20 154.59,339.20 156.12,339.20 157.43,339.20 158.97,339.20 160.50,339.20 161.81,339.20 163.34,339.20 164.87,339.20 166.18,339.20 167.71,339.20 169.24,339.20 170.56,339.20 172.09,339.20 173.62,339.20 174.93,339.20 176.47,339.20 178.00,339.20 179.31,339.20 180.84,339.20 182.37,339.20 183.90,339.20 185.21,339.20 186.75,339.20 188.28,339.20 189.59,339.20 191.12,339.20 192.66,339.20 193.97,339.20 195.50,339.20 197.03,339.20 198.33,339.20 199.87,339.20 201.40,339.20 202.71,339.20 204.25,339.20 205.78,339.20 207.09,339.20 208.62,339.20 210.15,339.20 211.47,339.20 213.00,339.20 214.53,339.20 215.84,339.20 217.37,339.20 218.91,339.20 220.21,339.20 221.74,339.20 223.28,339.20 224.59,339.20 226.12,339.20 227.66,339.20 228.97,339.20 230.50,339.20 232.03,339.20 233.34,339.20 234.87,339.20 236.40,339.20 237.94,339.20 239.25,339.20 240.78,339.20 242.31,339.20 243.62,339.20 245.15,339.20 246.68,339.20 247.99,339.20 249.52,339.20 251.06,339.20 252.37,339.20 253.90,339.20 255.43,339.20 256.75,339.20 258.27,339.20 259.81,339.20 261.12,339.20 262.65,339.20 264.19,339.20 265.49,339.20 267.03,339.20 268.56,339.20 269.87,339.20 271.40,339.20 272.94,339.20 274.25,339.20 275.78,339.20 277.31,339.20 278.62,339.20 280.16,339.20 281.68,339.20 283.00,339.20 284.53,339.20 286.06,339.20 287.59,339.20 288.90,339.20 290.43,339.20 291.97,339.20 293.27,339.20 294.81,339.20 296.34,339.20 297.65,339.20 299.19,339.20 300.72,339.20 302.03,339.20 303.56,339.20 305.09,339.20 306.41,339.20 307.93,339.20 309.46,339.20 310.78,339.20 312.30,339.20 313.84,339.20 315.15,339.20 316.68,339.20 318.21,339.20 319.53,339.20 321.06,339.20 322.59,339.20 323.90,339.20 325.43,339.20 326.97,339.20 328.28,339.20 329.81,339.20 331.34,339.20 332.66,339.20 334.18,339.20 335.72,339.20 337.03,339.20 338.56,339.20 340.09,339.20 341.62,339.20 342.93,339.20 344.46,339.20 345.99,339.20 347.31,339.20 348.84,339.20 350.37,339.20 351.69,339.20 353.22,339.20 354.74,339.20 356.06,339.20 357.59,339.20 359.12,339.20 360.43,339.20 361.97,339.20 363.50,339.20 364.81,339.20 366.34,339.20 367.87,339.20 369.19,339.20 370.71,339.20 372.03,329.27 372.24,319.78 373.34,260.86 373.56,251.58 374.43,236.13 375.09,243.09 376.40,270.50 376.62,273.45 377.71,282.27 377.93,281.82 379.25,269.26 379.68,266.40 380.78,270.65 381.00,272.62 382.09,277.95 382.31,278.17 383.62,287.68 383.84,290.96 385.15,305.50 385.37,306.42 386.46,309.85 386.68,309.49 387.55,305.63 388.22,305.70 389.53,317.84 389.75,319.59 391.06,330.70 391.28,332.33 392.37,336.88 392.59,337.42 393.90,339.20 394.12,339.20 395.44,339.20 395.65,339.20 396.31,339.20 396.97,339.20 398.49,339.20 400.03,339.20 401.34,339.20 402.87,339.20 404.40,339.20 405.71,339.20 407.24,339.20 408.78,339.20 410.09,339.20 411.62,339.20 413.16,339.20 414.47,339.20 415.99,339.20 417.52,339.20 418.84,339.20 420.37,339.20 421.90,339.20 423.21,339.20 424.75,339.20 426.28,339.20 427.59,339.20 429.12,339.20 430.65,339.20 431.97,339.20 433.49,339.20 435.03,339.20 436.34,339.20 437.88,339.20 439.40,339.20 440.94,339.20 442.25,339.20 443.78,339.20 445.31,339.20 446.62,339.20 448.15,339.20 449.68,339.20 450.99,339.20 452.52,339.20 454.06,339.20 455.37,339.20 456.90,339.20 458.43,339.20 459.75,339.20 461.28,339.20 462.81,339.20 464.12,339.20 465.65,339.20 467.19,339.20 468.50,339.20 470.03,339.20 471.56,339.20 472.87,339.20 474.40,339.20 475.93,339.20 477.24,339.20 478.56,333.32 478.78,330.36 480.09,323.99 480.31,323.41 481.40,308.01 481.62,303.03 482.93,266.56 483.15,265.77 484.47,280.88 484.69,284.57 485.77,297.49 486.00,298.96 487.09,304.05 487.75,303.87 488.84,306.16 489.06,307.14 489.72,309.10 490.37,309.01 491.68,319.28 491.90,320.53 493.22,322.30 493.43,323.24 494.75,329.43 495.41,330.32 496.06,326.53 496.28,323.59 497.59,303.98 498.03,302.03 499.12,310.20 499.34,312.36 500.44,325.76 500.66,328.32 501.96,336.43 502.18,336.65 503.49,338.08 503.71,338.28 504.81,339.10 505.03,339.15 505.91,339.20 506.56,339.20 508.09,339.20 509.40,339.20 510.94,339.20 512.46,339.20 513.77,339.20 515.31,339.20 516.84,339.20 518.15,339.20 519.68,339.20 521.21,339.20 522.52,339.20 524.06,339.20 525.59,339.20 526.90,339.20 528.43,339.20 529.96,339.20 531.06,339.06 531.28,338.39 532.59,334.64 533.03,334.53 534.12,336.70 534.34,337.23 535.43,338.82 535.65,338.96 536.96,331.47 537.18,332.15 538.50,335.25 538.71,335.35 539.81,336.83 540.47,337.11 541.34,336.13 541.56,335.66 542.87,331.40 543.09,330.53 544.41,326.00 544.84,325.72 545.72,326.63 545.93,326.42 546.81,324.70 547.47,324.51 548.77,317.49 549.00,317.72 549.88,320.24 550.31,318.14 551.62,305.68 551.84,305.38 553.15,312.19 553.37,313.77 554.24,316.93 555.34,317.82 556.00,316.57 556.22,315.49 557.52,311.99 557.75,311.87 558.84,314.85 559.05,315.84 560.37,323.34 560.59,324.60 561.91,329.71 562.13,330.16 563.21,332.52 563.43,333.15 564.74,335.99 564.97,336.09 566.28,336.79 566.50,337.01 567.59,337.94 567.81,338.14 568.46,338.33 569.34,338.54 570.65,339.19 570.87,339.19 571.52,339.20 572.19,339.20 573.72,339.20 575.03,339.19 575.25,339.19 575.69,339.18 576.56,339.19 577.44,339.20 578.09,339.20 579.41,338.62 579.62,338.61 580.72,338.95 580.94,339.00 582.25,339.14 582.46,339.14 583.78,338.94 584.00,338.94 585.09,338.65 585.31,338.49 586.40,338.15 586.84,338.20 588.15,338.80 588.81,339.11 589.46,338.91 589.68,338.87 590.78,332.68 591.43,333.40 592.52,321.93 592.97,319.17 593.84,322.65 594.06,323.74 594.72,325.67 595.59,324.19 596.46,322.48 597.13,323.11 597.78,323.84 598.65,323.43 599.75,327.44 600.40,328.45 601.28,326.68 601.93,325.44 602.81,327.19 603.03,327.68 604.12,329.01 604.34,329.36 605.65,331.08 605.87,330.89 607.18,329.16 607.40,328.72 608.06,328.11 608.72,328.28 610.02,322.55 610.25,318.43 611.13,306.56 611.78,309.28 612.87,321.77 613.09,324.42 614.19,330.02 614.62,329.67 615.94,328.79 616.16,328.36 617.03,327.51 617.46,327.84 618.78,328.91 618.99,328.97 620.31,331.41 620.75,331.98 621.62,331.54 622.06,331.44 623.15,332.95 623.38,333.59 624.69,336.46 624.91,336.67 626.00,337.28 626.21,337.32 627.53,337.20 627.75,337.07 629.06,333.15 629.28,332.46 630.37,331.45 630.59,331.31 631.90,329.30 632.12,328.95 632.78,328.38 633.66,328.38 634.75,325.02 634.96,324.57 636.28,320.24 636.49,318.98 637.81,313.71 638.03,311.98 638.91,306.09 639.34,308.32 640.65,326.66 640.87,329.23 642.18,335.66 642.85,336.65 643.50,336.06 643.72,335.71 645.03,332.81 645.25,331.69 646.56,328.20 646.78,327.24 648.09,322.09 648.31,322.26 649.41,324.29 649.62,324.79 650.27,325.47 651.81,325.73 652.47,324.13 653.12,322.62 653.78,324.61 654.00,325.82 655.31,333.36 655.96,334.41 656.84,333.29 657.06,333.11 658.16,329.04 658.38,327.92 658.81,327.05 659.90,327.66 660.99,324.75 661.43,325.44 662.53,327.83 662.75,328.48 664.06,332.15 664.50,332.07 665.59,334.40 665.81,335.34 666.90,338.05 667.12,337.89 668.44,336.33 668.65,335.91 669.97,330.48 670.18,329.59 671.28,323.97 671.50,322.70 672.81,321.02 673.03,320.68 674.34,318.96 674.99,317.94 675.65,319.84 675.87,320.93 677.18,328.38 677.41,329.43 678.71,331.87 679.38,332.42 680.03,331.21 680.47,330.40 681.56,332.56 681.78,333.21 683.09,335.59 683.31,336.05 684.40,338.08 685.06,338.41 685.93,336.78 686.15,335.85 687.47,332.16 687.68,332.28 688.78,333.32 689.87,333.21 690.31,333.57 690.53,334.12 691.62,336.36 692.06,336.18 693.15,335.10 693.37,335.04 693.81,334.99 695.56,334.85 696.21,335.21 696.44,335.47 697.75,336.88 697.96,336.84 699.06,335.44 699.28,335.53 700.59,337.77 700.81,337.63 701.47,336.90 702.56,337.77 703.43,337.08 703.65,336.69 704.96,333.98 705.18,333.63 706.50,330.95 706.93,330.63 707.81,332.14 708.02,332.38 709.34,324.53 709.56,320.90 710.87,306.07 711.09,305.78 712.18,309.73 712.40,311.37 713.72,318.83 714.15,319.94 715.24,317.19 715.47,317.00 716.56,319.39 716.78,320.19 718.09,327.70 718.31,328.91 719.63,335.35 719.84,336.09 720.93,337.25 721.37,337.35 722.46,336.94 722.68,336.89 723.56,336.62 724.22,337.17 725.31,338.66 725.97,338.82 726.84,338.39 727.06,338.19 728.37,336.30 729.02,335.88 729.69,336.44 729.90,336.73 731.22,338.57 731.65,338.77 732.75,338.41 732.96,338.43 734.06,338.68 734.28,338.72 735.59,339.17 736.03,339.19 737.12,339.03 737.34,338.96 738.43,337.07 739.31,337.22 739.96,336.64 740.19,336.09 741.50,333.31 741.72,332.66 742.81,330.16 743.02,330.20 743.90,330.67 744.56,329.63 745.88,324.92 746.09,324.37 747.18,320.68 747.40,320.03 748.71,316.17 748.94,315.62 750.24,313.02 750.90,311.22 751.78,313.20 752.00,313.94 753.09,317.24 753.31,318.14 754.62,323.35 754.84,323.41 756.16,320.42 756.37,319.50 757.03,317.87 757.68,318.86 758.99,325.32 759.21,326.80 760.53,331.20 761.18,331.96 761.84,331.51 762.06,331.25 762.93,330.30 764.25,330.18 764.90,330.72 765.12,330.98 766.00,331.85 766.65,331.33 767.75,333.43 768.40,334.72 769.28,332.65 769.50,332.46 770.59,335.62 771.47,336.97 772.12,336.13 772.34,335.54 773.66,333.90 773.87,333.30 774.96,330.60 775.18,330.29 776.06,329.66 777.38,330.87 778.03,328.70 778.25,327.40 779.13,324.55 779.56,324.91 780.88,328.94 781.09,329.46 781.53,329.97 782.62,329.84 783.50,330.22 783.93,329.97 785.25,327.92 785.47,327.72 786.78,325.69 787.22,324.27 788.09,326.40 788.31,326.46 789.41,321.23 789.84,322.10 791.15,326.52 791.37,327.21 792.47,332.38 792.69,333.14 793.34,334.42 794.21,333.21 794.66,332.92 795.75,333.13 796.84,336.87 797.06,337.58 798.37,338.86 798.81,338.84 799.90,338.99 800.12,338.94 801.44,337.81 801.65,337.77 802.75,337.02 802.97,337.01 804.28,335.78 804.49,335.66 805.81,334.67 806.03,334.73 807.12,335.22 807.34,335.28 808.21,335.95 808.87,334.83 810.19,325.51 810.40,324.06 811.50,317.47 811.72,317.46 813.03,326.98 813.24,328.05 814.56,333.69 815.21,334.73 815.87,333.04 816.09,332.32 817.41,329.42 817.62,329.06 818.93,328.03 819.15,327.98 820.25,327.34 820.47,327.30 821.78,328.18 822.00,328.33 823.31,330.38 823.52,330.84 824.18,332.00 824.84,330.31 825.72,328.98 826.37,330.22 827.24,331.47 827.90,331.52 829.00,334.17 829.22,335.23 830.53,338.50 830.75,338.47 831.85,337.73 832.28,337.82 833.37,336.72 833.81,336.45 834.90,337.59 835.12,337.70 836.22,338.19 837.09,337.20 837.75,337.81 837.97,338.12 838.62,338.56 839.50,337.92 840.81,336.48 841.03,336.42 842.12,335.63 842.34,335.36 843.66,330.33 843.88,330.54 845.19,334.24 845.40,334.80 846.50,335.60 846.71,335.76 847.59,336.26 848.90,335.35 849.56,336.03 849.78,336.37 850.87,337.67 851.09,337.91 851.74,338.49 852.62,338.07 853.93,336.07 854.59,335.60 855.47,336.32 855.69,336.73 856.78,338.71 857.44,339.02 858.31,338.85 858.53,338.67 859.84,335.89 860.06,335.64 861.15,334.96 861.38,334.81 862.69,333.87 862.91,333.68 864.22,331.62 864.87,331.06 865.53,332.03 866.18,332.63 867.06,328.21 867.50,327.24 868.60,329.56 869.03,330.11 869.90,328.84 870.13,328.80 871.43,330.21 871.65,330.41 872.97,332.70 873.18,332.99 874.28,333.21 874.71,333.32 875.81,332.52 876.68,332.13 877.34,332.52 877.56,332.85 878.65,335.39 878.87,335.96 880.18,337.60 880.40,337.58 881.72,336.00 881.93,335.46 883.03,330.95 883.25,329.42 884.34,325.37 884.78,325.97 886.09,328.84 886.31,329.39 887.41,331.21 887.62,331.26 888.93,331.01 889.37,330.93 890.47,331.28 890.68,331.52 891.78,332.78 891.99,332.78 893.31,327.90 893.53,326.51 894.62,323.76 895.06,323.94 896.15,327.33 896.37,328.31 897.69,331.54 897.91,331.49 899.22,327.40 899.44,326.28 900.09,324.47 900.75,325.05 902.06,326.85 902.28,327.40 903.59,330.51 903.81,330.63 905.13,333.35 905.77,333.94 906.43,332.62 906.65,331.88 907.96,328.16 908.62,326.16 909.50,327.56 909.72,327.98 910.81,331.48 911.03,332.44 912.34,335.12 912.56,335.00 913.87,333.63 914.09,333.59 915.18,334.30 915.41,334.66 916.72,337.67 916.93,337.93 918.25,338.75 918.47,338.87 919.56,339.16 920.65,339.18 921.09,339.14 921.75,339.07 922.62,339.14 922.84,339.13 923.94,339.02 925.03,339.07 925.46,338.92 925.69,338.78 926.34,338.59 927.44,338.65 928.31,338.88 928.53,338.97 929.84,339.20 930.06,339.20 930.28,339.20 931.59,339.20 932.69,339.03 932.91,338.83 934.21,338.03 934.44,337.56 935.52,336.26 935.97,336.49 937.06,337.38 937.28,337.47 938.59,338.19 939.47,338.52 940.12,338.07 940.34,337.60 941.00,336.57 941.65,336.59 942.96,335.24 943.62,334.58 944.50,335.70 945.16,336.30 945.81,334.76 946.02,333.53 947.34,322.97 947.56,322.10 948.87,316.65 949.31,315.31 950.19,316.57 950.40,317.18 951.72,325.00 951.94,326.67 953.25,331.89 953.46,332.16 954.78,334.16 955.00,334.69" fill="none" stroke="#067d89" stroke-width="1.8"/><path d="M80 428h20" stroke="#067d89" stroke-width="3"/><text x="106" y="432" font-family="Arial" font-size="12">Pusher/spreader surface-A axial resultant (contacts 1 + 2)</text></svg>