<svg xmlns="http://www.w3.org/2000/svg" width="1000" height="484" viewBox="0 0 1000 484" role="img" aria-label="Global energy"><rect width="100%" height="100%" fill="white"/><text x="76" y="30" font-family="Arial" font-size="19" fill="#172c35">Global energy</text><path d="M80 355.00H955" stroke="#e2e8eb"/><text x="69" y="359.00" text-anchor="end" font-family="Arial" font-size="12">-48.78</text><text x="80.00" y="378" text-anchor="middle" font-family="Arial" font-size="12">0</text><path d="M80 296.00H955" stroke="#e2e8eb"/><text x="69" y="300.00" text-anchor="end" font-family="Arial" font-size="12">133.3</text><text x="255.00" y="378" text-anchor="middle" font-family="Arial" font-size="12">0.3072</text><path d="M80 237.00H955" stroke="#e2e8eb"/><text x="69" y="241.00" text-anchor="end" font-family="Arial" font-size="12">315.4</text><text x="430.00" y="378" text-anchor="middle" font-family="Arial" font-size="12">0.6144</text><path d="M80 178.00H955" stroke="#e2e8eb"/><text x="69" y="182.00" text-anchor="end" font-family="Arial" font-size="12">497.5</text><text x="605.00" y="378" text-anchor="middle" font-family="Arial" font-size="12">0.9216</text><path d="M80 119.00H955" stroke="#e2e8eb"/><text x="69" y="123.00" text-anchor="end" font-family="Arial" font-size="12">679.7</text><text x="780.00" y="378" text-anchor="middle" font-family="Arial" font-size="12">1.229</text><path d="M80 60.00H955" stroke="#e2e8eb"/><text x="69" y="64.00" text-anchor="end" font-family="Arial" font-size="12">861.8</text><text x="955.00" y="378" text-anchor="middle" font-family="Arial" font-size="12">1.536</text><path d="M80 60V355H955" fill="none" stroke="#657882"/><text x="520" y="403" text-anchor="middle" font-family="Arial" font-size="13">Time (ms)</text><text x="18" y="205" transform="rotate(-90 18 205)" text-anchor="middle" font-family="Arial" font-size="13">Energy (J)</text><polyline points="80.00,75.81 84.51,81.69 89.07,90.60 93.67,96.26 98.18,102.46 102.74,109.50 107.30,115.20 111.86,120.71 116.44,124.34 121.00,128.60 125.56,130.70 130.09,130.29 134.66,128.12 139.21,124.08 143.77,120.89 148.35,116.98 152.89,113.55 157.42,110.48 162.01,108.71 166.58,107.64 171.11,106.69 175.68,107.65 180.25,110.64 184.79,113.72 189.33,116.02 193.92,118.51 198.49,120.65 203.00,121.40 207.57,120.50 212.15,118.72 216.70,118.01 221.23,117.23 225.81,116.38 230.35,117.82 234.91,120.70 239.49,123.53 244.05,126.27 248.61,128.98 253.13,131.96 257.71,133.91 262.28,135.08 266.80,135.78 271.38,134.59 275.92,132.79 280.49,133.23 285.08,134.41 289.59,135.06 294.19,135.85 298.71,137.60 303.31,139.55 307.82,141.44 312.41,143.06 316.98,144.11 321.53,144.04 326.06,143.70 330.65,143.66 335.19,143.30 339.77,142.79 344.29,142.11 348.86,140.92 353.43,141.06 357.96,141.36 362.54,141.83 367.07,143.03 371.63,144.19 376.18,144.61 380.78,144.04 385.29,143.68 389.86,143.45 394.43,142.44 398.96,141.18 403.55,140.81 408.08,140.64 412.68,139.96 417.22,139.93 421.79,140.69 426.35,141.33 430.90,141.05 435.46,140.64 440.03,139.94 444.56,138.03 449.12,136.45 453.66,135.66 458.25,135.11 462.77,133.83 467.36,133.50 471.89,133.79 476.45,134.22 481.00,134.47 485.56,135.25 490.15,136.18 494.71,136.12 499.25,135.16 503.81,134.10 508.36,133.04 512.89,132.36 517.47,131.94 522.03,131.85 526.61,132.14 531.15,132.75 535.70,133.70 540.25,134.67 544.82,135.82 549.38,136.64 553.92,136.86 558.49,137.21 563.04,137.19 567.60,136.09 572.14,135.66 576.71,136.92 581.29,138.46 585.85,139.55 590.40,140.73 594.94,141.91 599.51,142.36 604.08,143.22 608.63,144.06 613.16,144.18 617.73,144.24 622.28,144.73 626.85,145.58 631.39,146.42 635.96,148.04 640.52,149.92 645.10,151.31 649.64,151.46 654.21,151.49 658.78,152.23 663.31,153.60 667.85,154.80 672.41,156.27 677.00,158.00 681.52,159.37 686.08,160.82 690.66,161.78 695.23,163.10 699.78,163.95 704.32,164.31 708.86,164.42 713.44,164.32 717.98,164.51 722.54,164.52 727.11,164.67 731.67,165.20 736.23,164.88 740.81,164.53 745.36,165.37 749.89,166.86 754.44,168.12 759.00,169.07 763.56,169.95 768.12,170.93 772.69,171.70 777.23,171.77 781.82,171.67 786.37,171.41 790.91,171.08 795.49,171.52 800.01,172.20 804.60,170.99 809.17,169.79 813.72,169.79 818.24,170.71 822.84,171.52 827.40,172.15 831.92,172.65 836.49,172.55 841.04,172.44 845.59,171.86 850.14,171.44 854.70,172.25 859.26,172.58 863.83,171.64 868.37,171.22 872.96,171.53 877.51,172.12 882.08,172.41 886.63,171.91 891.19,171.17 895.72,170.53 900.31,169.97 904.85,170.24 909.39,170.38 913.94,169.91 918.53,169.64 923.08,170.24 927.66,170.63 932.20,171.56 936.75,172.22 941.28,172.52 945.89,171.99 950.45,170.56 955.00,170.05" fill="none" stroke="#067d89" stroke-width="1.8"/><path d="M80 428h20" stroke="#067d89" stroke-width="3"/><text x="106" y="432" font-family="Arial" font-size="12">Kinetic Energy</text><polyline points="80.00,339.20 84.51,336.00 89.07,327.08 93.67,321.26 98.18,314.82 102.74,308.20 107.30,302.92 111.86,297.84 116.44,294.86 121.00,290.58 125.56,288.60 130.09,289.29 134.66,291.71 139.21,295.66 143.77,298.76 148.35,302.69 152.89,306.25 157.42,309.24 162.01,310.84 166.58,311.72 171.11,312.51 175.68,311.47 180.25,308.46 184.79,305.37 189.33,303.10 193.92,300.64 198.49,298.52 203.00,297.78 207.57,298.69 212.15,300.46 216.70,301.16 221.23,301.98 225.81,302.83 230.35,301.59 234.91,298.81 239.49,296.02 244.05,293.31 248.61,290.65 253.13,287.71 257.71,285.84 262.28,284.74 266.80,284.08 271.38,285.30 275.92,287.15 280.49,286.76 285.08,285.59 289.59,284.96 294.19,284.20 298.71,282.49 303.31,280.57 307.82,278.71 312.41,277.12 316.98,276.08 321.53,276.18 326.06,276.56 330.65,276.63 335.19,277.02 339.77,277.57 344.29,278.28 348.86,279.50 353.43,279.40 357.96,279.12 362.54,278.68 367.07,277.49 371.63,276.34 376.18,275.95 380.78,276.53 385.29,276.88 389.86,277.10 394.43,278.14 398.96,279.49 403.55,279.94 408.08,280.14 412.68,280.79 417.22,280.84 421.79,280.12 426.35,279.54 430.90,279.85 435.46,280.29 440.03,281.02 444.56,282.96 449.12,284.57 453.66,285.39 458.25,286.02 462.77,287.39 467.36,287.78 471.89,287.50 476.45,287.10 481.00,286.89 485.56,286.15 490.15,285.25 494.71,285.33 499.25,286.28 503.81,287.33 508.36,288.38 512.89,289.06 517.47,289.49 522.03,289.58 526.61,289.28 531.15,288.68 535.70,287.73 540.25,286.79 544.82,285.68 549.38,284.89 553.92,284.72 558.49,284.39 563.04,284.42 567.60,285.57 572.14,286.03 576.71,284.80 581.29,283.31 585.85,282.28 590.40,281.13 594.94,279.93 599.51,279.47 604.08,278.64 608.63,277.83 613.16,277.72 617.73,277.66 622.28,277.18 626.85,276.34 631.39,275.49 635.96,273.87 640.52,271.98 645.10,270.60 649.64,270.49 654.21,270.49 658.78,269.79 663.31,268.43 667.85,267.25 672.41,265.78 677.00,264.05 681.52,262.69 686.08,261.28 690.66,260.33 695.23,259.02 699.78,258.18 704.32,257.85 708.86,257.78 713.44,257.89 717.98,257.70 722.54,257.73 727.11,257.64 731.67,257.16 736.23,257.50 740.81,257.91 745.36,257.07 749.89,255.59 754.44,254.35 759.00,253.38 763.56,252.50 768.12,251.51 772.69,250.76 777.23,250.73 781.82,250.85 786.37,251.16 790.91,251.53 795.49,251.15 800.01,250.50 804.60,251.75 809.17,252.89 813.72,252.87 818.24,252.00 822.84,251.24 827.40,250.67 831.92,250.25 836.49,250.35 841.04,250.48 845.59,251.09 850.14,251.52 854.70,250.75 859.26,250.45 863.83,251.43 868.37,251.85 872.96,251.54 877.51,250.95 882.08,250.67 886.63,251.20 891.19,251.94 895.72,252.59 900.31,253.15 904.85,252.89 909.39,252.77 913.94,253.27 918.53,253.56 923.08,252.97 927.66,252.66 932.20,251.77 936.75,251.09 941.28,250.80 945.89,251.34 950.45,252.77 955.00,253.29" fill="none" stroke="#d05b31" stroke-width="1.8"/><path d="M375 428h20" stroke="#d05b31" stroke-width="3"/><text x="401" y="432" font-family="Arial" font-size="12">Internal Energy</text><polyline points="80.00,339.20 84.51,339.20 89.07,339.20 93.67,339.20 98.18,339.20 102.74,339.20 107.30,339.20 111.86,339.20 116.44,339.20 121.00,339.20 125.56,339.20 130.09,339.20 134.66,339.20 139.21,339.20 143.77,339.20 148.35,339.20 152.89,339.20 157.42,339.20 162.01,339.20 166.58,339.20 171.11,339.20 175.68,339.20 180.25,339.20 184.79,339.20 189.33,339.20 193.92,339.20 198.49,339.20 203.00,339.20 207.57,339.20 212.15,339.20 216.70,339.20 221.23,339.20 225.81,339.20 230.35,339.20 234.91,339.20 239.49,339.20 244.05,339.20 248.61,339.20 253.13,339.20 257.71,339.20 262.28,339.20 266.80,339.20 271.38,339.20 275.92,339.20 280.49,339.20 285.08,339.20 289.59,339.20 294.19,339.20 298.71,339.20 303.31,339.20 307.82,339.20 312.41,339.20 316.98,339.20 321.53,339.20 326.06,339.20 330.65,339.20 335.19,339.20 339.77,339.20 344.29,339.20 348.86,339.20 353.43,339.20 357.96,339.20 362.54,339.20 367.07,339.20 371.63,339.20 376.18,339.20 380.78,339.20 385.29,339.20 389.86,339.20 394.43,339.20 398.96,339.20 403.55,339.20 408.08,339.20 412.68,339.20 417.22,339.20 421.79,339.20 426.35,339.20 430.90,339.20 435.46,339.20 440.03,339.20 444.56,339.20 449.12,339.20 453.66,339.20 458.25,339.20 462.77,339.20 467.36,339.20 471.89,339.20 476.45,339.20 481.00,339.20 485.56,339.20 490.15,339.20 494.71,339.20 499.25,339.20 503.81,339.20 508.36,339.20 512.89,339.20 517.47,339.20 522.03,339.20 526.61,339.20 531.15,339.20 535.70,339.20 540.25,339.20 544.82,339.20 549.38,339.20 553.92,339.20 558.49,339.20 563.04,339.20 567.60,339.20 572.14,339.20 576.71,339.20 581.29,339.20 585.85,339.20 590.40,339.20 594.94,339.20 599.51,339.20 604.08,339.20 608.63,339.20 613.16,339.20 617.73,339.20 622.28,339.20 626.85,339.20 631.39,339.20 635.96,339.20 640.52,339.20 645.10,339.20 649.64,339.20 654.21,339.20 658.78,339.20 663.31,339.20 667.85,339.20 672.41,339.20 677.00,339.20 681.52,339.20 686.08,339.20 690.66,339.20 695.23,339.20 699.78,339.20 704.32,339.20 708.86,339.20 713.44,339.20 717.98,339.20 722.54,339.20 727.11,339.20 731.67,339.20 736.23,339.20 740.81,339.20 745.36,339.20 749.89,339.20 754.44,339.20 759.00,339.20 763.56,339.20 768.12,339.20 772.69,339.20 777.23,339.20 781.82,339.20 786.37,339.20 790.91,339.20 795.49,339.20 800.01,339.20 804.60,339.20 809.17,339.20 813.72,339.20 818.24,339.20 822.84,339.20 827.40,339.20 831.92,339.20 836.49,339.20 841.04,339.20 845.59,339.20 850.14,339.20 854.70,339.20 859.26,339.20 863.83,339.20 868.37,339.20 872.96,339.20 877.51,339.20 882.08,339.20 886.63,339.20 891.19,339.20 895.72,339.20 900.31,339.20 904.85,339.20 909.39,339.20 913.94,339.20 918.53,339.20 923.08,339.20 927.66,339.20 932.20,339.20 936.75,339.20 941.28,339.20 945.89,339.20 950.45,339.20 955.00,339.20" fill="none" stroke="#7d55a8" stroke-width="1.8"/><path d="M670 428h20" stroke="#7d55a8" stroke-width="3"/><text x="696" y="432" font-family="Arial" font-size="12">Hourglass Energy</text><polyline points="80.00,339.20 84.51,336.51 89.07,336.53 93.67,336.70 98.18,336.93 102.74,336.53 107.30,336.10 111.86,335.67 116.44,335.04 121.00,335.07 125.56,334.93 130.09,334.65 134.66,334.41 139.21,334.50 143.77,334.59 148.35,334.56 152.89,334.44 157.42,334.51 162.01,334.68 166.58,334.86 171.11,335.02 175.68,335.09 180.25,335.11 184.79,335.11 189.33,335.09 193.92,335.06 198.49,335.03 203.00,335.02 207.57,335.02 212.15,335.03 216.70,335.03 221.23,334.99 225.81,334.99 230.35,334.78 234.91,334.70 239.49,334.65 244.05,334.62 248.61,334.58 253.13,334.54 257.71,334.46 262.28,334.39 266.80,334.35 271.38,334.32 275.92,334.27 280.49,334.21 285.08,334.21 289.59,334.19 294.19,334.15 298.71,334.11 303.31,334.09 307.82,334.06 312.41,334.02 316.98,334.01 321.53,333.98 326.06,333.95 330.65,333.92 335.19,333.89 339.77,333.85 344.29,333.81 348.86,333.78 353.43,333.75 357.96,333.72 362.54,333.70 367.07,333.69 371.63,333.67 376.18,333.65 380.78,333.64 385.29,333.65 389.86,333.66 394.43,333.63 398.96,333.54 403.55,333.46 408.08,333.44 412.68,333.45 417.22,333.44 421.79,333.40 426.35,333.34 430.90,333.31 435.46,333.28 440.03,333.25 444.56,333.22 449.12,333.19 453.66,333.15 458.25,333.08 462.77,332.99 467.36,332.93 471.89,332.92 476.45,332.89 481.00,332.84 485.56,332.81 490.15,332.78 494.71,332.76 499.25,332.77 503.81,332.78 508.36,332.78 512.89,332.78 517.47,332.78 522.03,332.78 526.61,332.78 531.15,332.78 535.70,332.77 540.25,332.75 544.82,332.71 549.38,332.68 553.92,332.63 558.49,332.61 563.04,332.59 567.60,332.54 572.14,332.51 576.71,332.49 581.29,332.43 585.85,332.37 590.40,332.35 594.94,332.36 599.51,332.36 604.08,332.34 608.63,332.31 613.16,332.30 617.73,332.30 622.28,332.29 626.85,332.29 631.39,332.30 635.96,332.30 640.52,332.30 645.10,332.29 649.64,332.25 654.21,332.22 658.78,332.19 663.31,332.17 667.85,332.15 672.41,332.15 677.00,332.15 681.52,332.14 686.08,332.10 690.66,332.09 695.23,332.08 699.78,332.07 704.32,332.04 708.86,332.00 713.44,331.99 717.98,331.99 722.54,331.95 727.11,331.90 731.67,331.85 736.23,331.81 740.81,331.77 745.36,331.76 749.89,331.76 754.44,331.73 759.00,331.75 763.56,331.76 768.12,331.75 772.69,331.74 777.23,331.71 781.82,331.68 786.37,331.64 790.91,331.59 795.49,331.53 800.01,331.51 804.60,331.47 809.17,331.53 813.72,331.54 818.24,331.49 822.84,331.44 827.40,331.38 831.92,331.31 836.49,331.30 841.04,331.28 845.59,331.25 850.14,331.23 854.70,331.21 859.26,331.17 863.83,331.13 868.37,331.13 872.96,331.13 877.51,331.12 882.08,331.12 886.63,331.10 891.19,331.09 895.72,331.08 900.31,331.08 904.85,331.07 909.39,331.05 913.94,331.01 918.53,331.00 923.08,330.99 927.66,330.91 932.20,330.86 936.75,330.89 941.28,330.88 945.89,330.87 950.45,330.86 955.00,330.86" fill="none" stroke="#2279ba" stroke-width="1.8"/><path d="M80 450h20" stroke="#2279ba" stroke-width="3"/><text x="106" y="454" font-family="Arial" font-size="12">Sliding Interface Energy</text><polyline points="80.00,75.81 84.51,75.81 89.07,75.82 93.67,75.83 98.18,75.83 102.74,75.83 107.30,75.83 111.86,75.84 116.44,75.85 121.00,75.85 125.56,75.85 130.09,75.85 134.66,75.85 139.21,75.85 143.77,75.85 148.35,75.84 152.89,75.85 157.42,75.84 162.01,75.84 166.58,75.83 171.11,75.82 175.68,75.81 180.25,75.81 184.79,75.81 189.33,75.81 193.92,75.81 198.49,75.81 203.00,75.81 207.57,75.81 212.15,75.81 216.70,75.81 221.23,75.81 225.81,75.81 230.35,75.81 234.91,75.81 239.49,75.81 244.05,75.81 248.61,75.81 253.13,75.81 257.71,75.81 262.28,75.81 266.80,75.81 271.38,75.81 275.92,75.81 280.49,75.81 285.08,75.81 289.59,75.81 294.19,75.81 298.71,75.81 303.31,75.81 307.82,75.81 312.41,75.81 316.98,75.81 321.53,75.81 326.06,75.81 330.65,75.81 335.19,75.81 339.77,75.81 344.29,75.81 348.86,75.81 353.43,75.81 357.96,75.81 362.54,75.81 367.07,75.81 371.63,75.81 376.18,75.81 380.78,75.81 385.29,75.81 389.86,75.81 394.43,75.81 398.96,75.81 403.55,75.81 408.08,75.81 412.68,75.81 417.22,75.82 421.79,75.82 426.35,75.82 430.90,75.82 435.46,75.82 440.03,75.82 444.56,75.82 449.12,75.82 453.66,75.82 458.25,75.82 462.77,75.82 467.36,75.82 471.89,75.82 476.45,75.82 481.00,75.82 485.56,75.82 490.15,75.82 494.71,75.82 499.25,75.82 503.81,75.81 508.36,75.81 512.89,75.81 517.47,75.81 522.03,75.81 526.61,75.81 531.15,75.81 535.70,75.81 540.25,75.81 544.82,75.81 549.38,75.81 553.92,75.81 558.49,75.81 563.04,75.81 567.60,75.81 572.14,75.81 576.71,75.81 581.29,75.81 585.85,75.81 590.40,75.81 594.94,75.81 599.51,75.81 604.08,75.81 608.63,75.81 613.16,75.81 617.73,75.81 622.28,75.81 626.85,75.81 631.39,75.81 635.96,75.81 640.52,75.81 645.10,75.81 649.64,75.81 654.21,75.81 658.78,75.81 663.31,75.81 667.85,75.81 672.41,75.81 677.00,75.81 681.52,75.81 686.08,75.81 690.66,75.81 695.23,75.81 699.78,75.81 704.32,75.81 708.86,75.81 713.44,75.81 717.98,75.81 722.54,75.81 727.11,75.81 731.67,75.81 736.23,75.81 740.81,75.81 745.36,75.81 749.89,75.81 754.44,75.81 759.00,75.81 763.56,75.81 768.12,75.81 772.69,75.81 777.23,75.81 781.82,75.81 786.37,75.81 790.91,75.81 795.49,75.81 800.01,75.81 804.60,75.81 809.17,75.81 813.72,75.81 818.24,75.81 822.84,75.81 827.40,75.81 831.92,75.81 836.49,75.81 841.04,75.81 845.59,75.81 850.14,75.81 854.70,75.81 859.26,75.81 863.83,75.81 868.37,75.81 872.96,75.81 877.51,75.81 882.08,75.81 886.63,75.81 891.19,75.81 895.72,75.81 900.31,75.81 904.85,75.81 909.39,75.81 913.94,75.81 918.53,75.81 923.08,75.81 927.66,75.81 932.20,75.81 936.75,75.81 941.28,75.80 945.89,75.80 950.45,75.80 955.00,75.80" fill="none" stroke="#9c7414" stroke-width="1.8"/><path d="M375 450h20" stroke="#9c7414" stroke-width="3"/><text x="401" y="454" font-family="Arial" font-size="12">Total Energy</text><polyline points="80.00,339.20 84.51,339.20 89.07,339.20 93.67,339.20 98.18,339.20 102.74,339.20 107.30,339.20 111.86,339.20 116.44,339.20 121.00,339.20 125.56,339.20 130.09,339.20 134.66,339.20 139.21,339.20 143.77,339.20 148.35,339.20 152.89,339.20 157.42,339.20 162.01,339.20 166.58,339.20 171.11,339.20 175.68,339.20 180.25,339.20 184.79,339.20 189.33,339.20 193.92,339.20 198.49,339.20 203.00,339.20 207.57,339.20 212.15,339.20 216.70,339.20 221.23,339.20 225.81,339.20 230.35,339.20 234.91,339.20 239.49,339.20 244.05,339.20 248.61,339.20 253.13,339.20 257.71,339.20 262.28,339.20 266.80,339.20 271.38,339.20 275.92,339.20 280.49,339.20 285.08,339.20 289.59,339.20 294.19,339.20 298.71,339.20 303.31,339.20 307.82,339.20 312.41,339.20 316.98,339.20 321.53,339.20 326.06,339.20 330.65,339.20 335.19,339.20 339.77,339.20 344.29,339.20 348.86,339.20 353.43,339.20 357.96,339.20 362.54,339.20 367.07,339.20 371.63,339.20 376.18,339.20 380.78,339.20 385.29,339.20 389.86,339.20 394.43,339.20 398.96,339.20 403.55,339.20 408.08,339.20 412.68,339.20 417.22,339.20 421.79,339.20 426.35,339.20 430.90,339.20 435.46,339.20 440.03,339.20 444.56,339.20 449.12,339.20 453.66,339.20 458.25,339.20 462.77,339.20 467.36,339.20 471.89,339.20 476.45,339.20 481.00,339.20 485.56,339.20 490.15,339.20 494.71,339.20 499.25,339.20 503.81,339.20 508.36,339.20 512.89,339.20 517.47,339.20 522.03,339.20 526.61,339.20 531.15,339.20 535.70,339.20 540.25,339.20 544.82,339.20 549.38,339.20 553.92,339.20 558.49,339.20 563.04,339.20 567.60,339.20 572.14,339.20 576.71,339.20 581.29,339.20 585.85,339.20 590.40,339.20 594.94,339.20 599.51,339.20 604.08,339.20 608.63,339.20 613.16,339.20 617.73,339.20 622.28,339.20 626.85,339.20 631.39,339.20 635.96,339.20 640.52,339.20 645.10,339.20 649.64,339.20 654.21,339.20 658.78,339.20 663.31,339.20 667.85,339.20 672.41,339.20 677.00,339.20 681.52,339.20 686.08,339.20 690.66,339.20 695.23,339.20 699.78,339.20 704.32,339.20 708.86,339.20 713.44,339.20 717.98,339.20 722.54,339.20 727.11,339.20 731.67,339.20 736.23,339.20 740.81,339.20 745.36,339.20 749.89,339.20 754.44,339.20 759.00,339.20 763.56,339.20 768.12,339.20 772.69,339.20 777.23,339.20 781.82,339.20 786.37,339.20 790.91,339.20 795.49,339.20 800.01,339.20 804.60,339.20 809.17,339.20 813.72,339.20 818.24,339.20 822.84,339.20 827.40,339.20 831.92,339.20 836.49,339.20 841.04,339.20 845.59,339.20 850.14,339.20 854.70,339.20 859.26,339.20 863.83,339.20 868.37,339.20 872.96,339.20 877.51,339.20 882.08,339.20 886.63,339.20 891.19,339.20 895.72,339.20 900.31,339.20 904.85,339.20 909.39,339.20 913.94,339.20 918.53,339.20 923.08,339.20 927.66,339.20 932.20,339.20 936.75,339.20 941.28,339.20 945.89,339.20 950.45,339.20 955.00,339.20" fill="none" stroke="#b63472" stroke-width="1.8"/><path d="M670 450h20" stroke="#b63472" stroke-width="3"/><text x="696" y="454" font-family="Arial" font-size="12">External Work</text></svg>