<svg xmlns="http://www.w3.org/2000/svg" width="1000" height="484" viewBox="0 0 1000 484" role="img" aria-label="Regional P99 von Mises stress"><rect width="100%" height="100%" fill="white"/><text x="76" y="30" font-family="Arial" font-size="19" fill="#172c35">Regional P99 von Mises stress</text><path d="M80 355.00H955" stroke="#e2e8eb"/><text x="69" y="359.00" text-anchor="end" font-family="Arial" font-size="12">-7.653</text><text x="80.00" y="378" text-anchor="middle" font-family="Arial" font-size="12">0</text><path d="M80 296.00H955" stroke="#e2e8eb"/><text x="69" y="300.00" text-anchor="end" font-family="Arial" font-size="12">20.92</text><text x="255.00" y="378" text-anchor="middle" font-family="Arial" font-size="12">1.6</text><path d="M80 237.00H955" stroke="#e2e8eb"/><text x="69" y="241.00" text-anchor="end" font-family="Arial" font-size="12">49.49</text><text x="430.00" y="378" text-anchor="middle" font-family="Arial" font-size="12">3.2</text><path d="M80 178.00H955" stroke="#e2e8eb"/><text x="69" y="182.00" text-anchor="end" font-family="Arial" font-size="12">78.06</text><text x="605.00" y="378" text-anchor="middle" font-family="Arial" font-size="12">4.8</text><path d="M80 119.00H955" stroke="#e2e8eb"/><text x="69" y="123.00" text-anchor="end" font-family="Arial" font-size="12">106.6</text><text x="780.00" y="378" text-anchor="middle" font-family="Arial" font-size="12">6.4</text><path d="M80 60.00H955" stroke="#e2e8eb"/><text x="69" y="64.00" text-anchor="end" font-family="Arial" font-size="12">135.2</text><text x="955.00" y="378" text-anchor="middle" font-family="Arial" font-size="12">8</text><path d="M80 60V355H955" fill="none" stroke="#657882"/><text x="520" y="403" text-anchor="middle" font-family="Arial" font-size="13">Time (ms)</text><text x="18" y="205" transform="rotate(-90 18 205)" text-anchor="middle" font-family="Arial" font-size="13">Stress (MPa)</text><polyline points="80.00,339.20 81.09,232.20 82.18,192.42 83.27,164.37 84.37,125.30 85.47,113.91 86.56,106.09 87.65,110.33 88.75,113.03 89.84,129.05 90.93,139.45 92.03,152.98 93.12,166.01 94.22,170.52 95.31,174.61 96.40,176.83 97.49,182.58 98.59,181.25 99.68,172.36 100.78,167.69 101.87,156.94 102.96,149.18 104.06,151.79 105.15,166.85 106.24,178.30 107.34,189.46 108.43,184.40 109.52,181.15 110.62,180.15 111.71,179.05 112.81,172.17 113.90,164.40 114.99,161.89 116.09,166.94 117.18,175.03 118.28,174.50 119.37,175.10 120.46,176.85 121.56,181.83 122.65,184.44 123.74,182.29 124.84,184.05 125.94,190.97 127.03,194.86 128.12,191.73 129.21,187.71 130.31,186.29 131.40,186.19 132.50,183.86 133.59,186.02 134.69,191.88 135.78,198.40 136.87,204.09 137.96,211.54 139.06,210.98 140.15,214.01 141.24,217.88 142.34,214.91 143.44,217.44 144.53,225.31 145.62,224.81 146.71,225.66 147.80,222.52 148.90,219.31 149.99,221.68 151.09,226.87 152.18,227.65 153.28,224.64 154.37,215.26 155.46,208.65 156.56,208.40 157.65,203.08 158.74,199.24 159.84,193.56 160.93,184.36 162.02,182.53 163.12,184.22 164.21,179.76 165.30,173.32 166.40,167.26 167.50,160.91 168.58,157.40 169.68,155.31 170.77,151.96 171.87,150.73 172.96,145.68 174.05,145.99 175.15,150.37 176.25,159.10 177.33,170.53 178.43,179.53 179.52,184.56 180.62,183.62 181.71,183.20 182.81,187.22 183.90,193.67 184.99,196.17 186.09,197.14 187.18,194.54 188.28,191.66 189.37,191.34 190.47,193.75 191.55,200.77 192.65,205.19 193.75,205.90 194.84,202.75 195.93,204.00 197.03,205.56 198.12,210.13 199.22,212.68 200.31,218.05 201.40,217.00 202.49,217.49 203.59,218.25 204.68,218.02 205.78,221.48 206.87,225.33 207.96,228.61 209.06,225.40 210.15,226.45 211.25,220.11 212.33,211.92 213.43,206.19 214.52,200.34 215.62,200.67 216.71,198.93 217.81,195.58 218.90,195.05 219.99,193.34 221.08,191.06 222.18,189.53 223.27,189.30 224.37,185.85 225.46,185.39 226.55,182.13 227.65,185.75 228.75,185.39 229.84,186.20 230.93,186.04 232.02,188.53 233.12,194.40 234.21,189.08 235.31,184.18 236.40,181.58 237.49,181.54 238.59,181.34 239.68,183.91 240.77,189.01 241.87,195.55 242.96,202.52 244.05,202.47 245.15,202.60 246.24,205.48 247.34,205.68 248.43,206.87 249.52,213.44 250.62,209.44 251.72,206.26 252.81,209.01 253.90,210.01 255.00,216.13 256.09,215.89 257.18,210.98 258.27,210.64 259.37,209.98 260.46,211.65 261.56,220.27 262.65,226.68 263.75,228.30 264.84,223.91 265.93,220.11 267.03,216.17 268.12,211.69 269.22,214.15 270.31,217.63 271.40,218.46 272.50,218.49 273.59,216.03 274.68,207.32 275.78,200.41 276.86,201.95 277.97,200.52 279.06,196.97 280.15,194.05 281.24,191.77 282.33,190.58 283.43,186.17 284.53,181.30 285.62,179.04 286.71,177.40 287.80,181.27 288.90,186.82 290.00,189.28 291.09,188.72 292.18,191.90 293.27,193.12 294.37,194.10 295.47,192.81 296.55,192.65 297.65,192.33 298.74,197.84 299.84,200.94 300.93,202.96 302.03,208.88 303.12,218.57 304.21,215.98 305.31,216.99 306.40,213.37 307.49,214.28 308.58,216.83 309.68,217.24 310.78,219.10 311.87,220.42 312.96,220.72 314.05,220.93 315.15,219.00 316.24,210.45 317.34,211.50 318.43,212.05 319.52,214.94 320.62,216.56 321.71,216.90 322.80,216.37 323.90,217.78 325.00,220.64 326.08,223.25 327.18,221.81 328.27,224.07 329.37,222.31 330.46,217.99 331.55,210.53 332.65,202.66 333.74,202.28 334.83,204.59 335.93,205.87 337.03,200.57 338.12,199.73 339.21,200.82 340.31,202.28 341.40,202.34 342.49,201.33 343.59,198.06 344.68,199.04 345.77,198.10 346.86,199.17 347.96,200.03 349.06,197.06 350.15,196.04 351.24,196.87 352.33,198.90 353.43,201.28 354.53,203.98 355.61,203.64 356.72,203.10 357.81,204.99 358.90,208.79 359.99,210.38 361.09,211.37 362.18,210.19 363.27,211.09 364.37,213.67 365.46,219.60 366.56,223.77 367.65,223.92 368.74,223.95 369.83,227.93 370.93,229.80 372.03,233.22 373.12,231.23 374.21,229.46 375.30,219.69 376.40,200.11 377.49,189.92 378.58,184.95 379.68,187.57 380.77,183.79 381.87,184.84 382.96,187.52 384.05,187.36 385.15,190.91 386.25,199.13 387.34,205.05 388.43,203.91 389.53,204.83 390.62,204.81 391.71,208.62 392.81,215.52 393.90,214.33 394.99,213.48 396.08,211.39 397.18,205.67 398.27,204.32 399.37,206.16 400.46,208.47 401.56,211.20 402.65,209.13 403.74,208.85 404.83,211.43 405.93,209.86 407.03,214.24 408.12,218.49 409.21,216.36 410.31,218.87 411.40,221.83 412.49,222.41 413.58,221.08 414.68,215.06 415.77,214.52 416.86,210.10 417.96,215.91 419.05,221.24 420.15,221.03 421.24,219.32 422.34,221.56 423.43,219.93 424.52,218.26 425.61,216.25 426.71,213.36 427.81,215.08 428.90,212.15 429.99,211.15 431.09,205.95 432.18,206.14 433.27,209.30 434.36,207.48 435.46,204.95 436.55,207.59 437.65,205.07 438.75,209.61 439.83,208.80 440.93,206.17 442.02,205.01 443.12,210.56 444.21,210.84 445.31,208.18 446.40,210.67 447.49,219.44 448.58,222.97 449.68,222.90 450.77,217.84 451.87,211.87 452.96,212.14 454.06,212.18 455.15,214.79 456.24,214.31 457.33,214.24 458.43,216.25 459.52,219.20 460.62,221.05 461.71,223.41 462.81,222.40 463.89,221.79 464.99,217.83 466.09,217.82 467.18,223.51 468.27,227.91 469.37,226.01 470.46,221.62 471.56,220.96 472.64,221.29 473.74,219.79 474.83,220.37 475.93,221.97 477.02,226.86 478.11,228.94 479.21,231.80 480.30,230.04 481.40,224.95 482.49,220.59 483.59,217.47 484.68,209.04 485.77,206.51 486.87,209.30 487.96,209.59 489.06,210.34 490.15,202.97 491.24,207.07 492.33,212.37 493.43,213.57 494.53,216.51 495.62,218.11 496.71,220.33 497.81,216.71 498.90,216.27 499.99,215.48 501.08,218.98 502.18,217.44 503.27,217.60 504.37,214.69 505.46,217.16 506.55,216.13 507.64,214.49 508.74,216.21 509.84,214.28 510.93,213.79 512.02,217.68 513.12,219.04 514.21,218.53 515.30,222.00 516.39,219.99 517.49,219.81 518.59,219.45 519.68,220.57 520.78,216.93 521.86,215.68 522.96,215.97 524.05,218.85 525.15,215.07 526.24,214.33 527.34,214.26 528.43,213.58 529.52,218.31 530.62,218.20 531.71,219.63 532.80,222.52 533.89,222.75 534.99,221.76 536.08,223.14 537.18,227.88 538.27,228.53 539.37,230.68 540.46,230.09 541.56,225.14 542.64,222.27 543.74,224.19 544.84,227.26 545.92,227.22 547.02,227.27 548.12,225.32 549.21,223.77 550.30,219.75 551.39,219.26 552.49,225.24 553.58,225.83 554.68,225.51 555.78,221.44 556.87,220.88 557.96,221.76 559.05,220.28 560.15,220.53 561.24,223.14 562.33,223.87 563.43,224.17 564.52,221.20 565.61,216.83 566.71,218.02 567.81,215.04 568.90,215.21 569.99,214.40 571.08,213.33 572.18,212.38 573.27,216.28 574.37,214.11 575.46,218.36 576.55,222.39 577.64,225.96 578.74,224.31 579.83,219.12 580.93,218.74 582.02,222.32 583.12,223.72 584.21,221.81 585.31,221.88 586.40,222.85 587.49,224.62 588.58,221.29 589.67,222.11 590.77,223.04 591.87,224.35 592.96,220.13 594.05,219.83 595.15,220.67 596.24,220.33 597.33,218.28 598.43,219.77 599.52,220.23 600.62,218.98 601.71,219.91 602.81,220.09 603.89,220.85 605.00,225.51 606.08,220.91 607.18,218.64 608.27,220.54 609.37,219.60 610.46,220.65 611.56,223.08 612.65,227.93 613.74,227.03 614.83,226.84 615.93,223.78 617.02,226.17 618.12,228.01 619.21,229.14 620.30,227.13 621.40,228.22 622.49,224.32 623.59,225.95 624.68,225.17 625.77,220.95 626.86,218.46 627.96,222.48 629.05,225.91 630.14,229.29 631.24,227.29 632.34,224.26 633.43,224.18 634.52,222.21 635.62,225.37 636.71,225.93 637.80,226.56 638.90,224.41 639.99,228.62 641.09,228.85 642.18,230.73 643.27,230.07 644.36,230.79 645.46,234.89 646.55,236.28 647.65,232.87 648.74,226.97 649.83,226.26 650.93,228.29 652.02,227.21 653.11,223.60 654.21,226.38 655.30,226.54 656.39,226.80 657.49,227.25 658.59,225.88 659.68,224.88 660.78,222.50 661.86,220.60 662.96,216.67 664.05,220.45 665.14,224.82 666.24,226.73 667.33,227.85 668.43,227.97 669.52,228.79 670.61,224.85 671.71,226.53 672.80,226.61 673.89,225.54 674.99,225.12 676.08,222.71 677.18,219.69 678.28,218.53 679.37,219.04 680.46,217.89 681.55,222.51 682.65,223.77 683.74,220.21 684.84,221.46 685.92,227.85 687.02,230.08 688.11,230.50 689.21,230.75 690.31,230.27 691.39,229.62 692.49,230.27 693.58,229.61 694.67,227.74 695.77,231.30 696.87,232.88 697.96,236.50 699.05,233.49 700.15,236.76 701.24,239.22 702.34,236.08 703.43,236.77 704.52,232.41 705.61,234.00 706.71,232.63 707.80,236.91 708.90,238.57 709.99,237.95 711.09,238.54 712.18,236.03 713.27,233.20 714.37,233.56 715.46,237.53 716.55,238.59 717.65,237.88 718.74,238.05 719.84,235.87 720.93,233.70 722.02,236.46 723.12,237.71 724.21,236.71 725.30,238.15 726.39,237.67 727.49,242.28 728.59,242.93 729.68,236.33 730.77,237.64 731.86,238.34 732.96,241.82 734.05,240.84 735.15,239.98 736.24,237.49 737.34,236.96 738.42,236.08 739.52,237.46 740.61,235.94 741.71,238.97 742.80,237.35 743.90,236.05 744.99,238.83 746.08,237.23 747.18,237.08 748.28,239.50 749.36,238.50 750.46,237.61 751.56,235.54 752.64,235.36 753.74,237.64 754.83,236.38 755.92,238.44 757.02,236.35 758.12,235.50 759.20,236.09 760.30,240.13 761.39,238.67 762.49,236.91 763.58,235.02 764.68,233.76 765.77,238.66 766.87,237.28 767.96,236.30 769.05,234.69 770.15,235.05 771.24,238.04 772.34,233.52 773.43,234.13 774.52,236.72 775.62,238.61 776.71,240.27 777.80,239.39 778.89,240.63 779.99,242.27 781.08,244.04 782.17,244.93 783.27,242.58 784.37,245.86 785.46,246.58 786.55,247.20 787.64,248.21 788.74,247.14 789.83,245.97 790.92,246.12 792.02,245.94 793.11,244.65 794.21,244.47 795.30,245.87 796.40,247.08 797.49,245.53 798.58,247.26 799.68,243.83 800.77,241.28 801.87,239.36 802.96,237.56 804.06,239.78 805.15,238.15 806.24,238.79 807.34,240.95 808.42,239.70 809.52,239.59 810.61,239.99 811.71,243.87 812.80,244.02 813.90,244.98 814.99,245.74 816.09,243.26 817.18,245.26 818.27,245.01 819.37,245.86 820.46,246.18 821.55,243.10 822.65,240.32 823.74,241.43 824.84,242.40 825.92,241.71 827.02,242.77 828.11,245.23 829.21,243.12 830.30,240.57 831.39,242.84 832.49,242.31 833.58,242.86 834.68,244.34 835.77,244.77 836.86,245.05 837.96,246.85 839.05,248.01 840.15,245.89 841.24,246.63 842.33,246.90 843.43,248.15 844.52,249.18 845.62,246.30 846.70,243.70 847.80,242.50 848.89,240.61 849.98,241.75 851.09,244.72 852.17,248.46 853.27,247.92 854.37,248.00 855.46,247.91 856.55,246.61 857.64,246.41 858.74,247.61 859.83,244.56 860.93,243.68 862.02,243.13 863.11,243.31 864.21,244.84 865.30,249.17 866.40,250.76 867.49,251.71 868.59,252.11 869.68,251.12 870.77,253.78 871.86,252.34 872.96,255.33 874.05,255.55 875.14,250.17 876.24,248.06 877.33,250.11 878.43,249.69 879.52,250.02 880.61,248.09 881.71,253.70 882.80,252.43 883.90,245.76 884.99,244.19 886.08,245.50 887.17,245.07 888.27,244.35 889.36,240.05 890.46,242.07 891.55,243.20 892.65,243.17 893.74,243.79 894.83,243.61 895.92,248.70 897.02,249.86 898.11,250.94 899.21,254.63 900.30,255.72 901.39,252.44 902.49,249.87 903.58,252.48 904.67,251.29 905.77,254.16 906.86,252.34 907.95,251.21 909.05,251.08 910.15,248.47 911.23,247.05 912.34,245.49 913.43,246.13 914.52,246.39 915.61,246.28 916.71,247.95 917.80,246.99 918.89,245.85 919.99,246.77 921.08,252.30 922.18,253.66 923.27,256.08 924.37,256.10 925.46,254.77 926.55,252.02 927.64,253.95 928.74,255.27 929.83,256.71 930.93,256.61 932.02,257.45 933.11,255.96 934.20,255.36 935.30,253.94 936.39,254.47 937.49,254.48 938.58,255.32 939.68,257.01 940.77,254.69 941.86,253.94 942.95,253.98 944.05,253.50 945.15,253.09 946.24,254.62 947.33,256.60 948.42,256.47 949.52,258.71 950.61,256.89 951.71,257.57 952.80,253.40 953.90,253.95 954.99,254.97 955.00,254.97" fill="none" stroke="#067d89" stroke-width="1.8"/><path d="M80 428h20" stroke="#067d89" stroke-width="3"/><text x="106" y="432" font-family="Arial" font-size="12">pusher</text><polyline points="80.00,339.20 81.09,236.99 82.18,198.73 83.27,182.64 84.37,137.34 85.47,123.40 86.56,130.52 87.65,135.21 88.75,142.49 89.84,161.86 90.93,170.04 92.03,185.12 93.12,210.74 94.22,236.55 95.31,245.57 96.40,246.39 97.49,239.28 98.59,229.06 99.68,214.04 100.78,202.48 101.87,187.99 102.96,195.34 104.06,201.82 105.15,214.28 106.24,212.76 107.34,197.30 108.43,184.53 109.52,182.37 110.62,182.83 111.71,182.51 112.81,173.05 113.90,161.76 114.99,158.73 116.09,165.39 117.18,171.37 118.28,171.92 119.37,172.69 120.46,175.37 121.56,181.57 122.65,185.14 123.74,183.56 124.84,183.19 125.94,184.35 127.03,186.66 128.12,187.04 129.21,184.84 130.31,184.40 131.40,185.34 132.50,179.42 133.59,179.99 134.69,186.03 135.78,203.32 136.87,222.93 137.96,232.47 139.06,239.05 140.15,244.50 141.24,252.15 142.34,249.52 143.44,247.91 144.53,243.77 145.62,242.47 146.71,244.07 147.80,239.12 148.90,234.84 149.99,236.01 151.09,235.05 152.18,238.13 153.28,233.49 154.37,221.61 155.46,215.22 156.56,215.16 157.65,209.89 158.74,201.69 159.84,192.31 160.93,181.62 162.02,177.41 163.12,177.05 164.21,172.55 165.30,165.51 166.40,158.48 167.50,148.85 168.58,145.89 169.68,142.52 170.77,141.41 171.87,140.29 172.96,135.60 174.05,135.84 175.15,139.57 176.25,148.63 177.33,165.35 178.43,180.86 179.52,191.44 180.62,200.63 181.71,205.49 182.81,206.89 183.90,213.45 184.99,218.18 186.09,219.90 187.18,220.45 188.28,220.52 189.37,218.97 190.47,220.98 191.55,226.09 192.65,233.80 193.75,238.93 194.84,245.38 195.93,251.50 197.03,253.63 198.12,245.63 199.22,240.48 200.31,242.01 201.40,240.58 202.49,239.26 203.59,242.94 204.68,246.00 205.78,247.98 206.87,246.92 207.96,245.13 209.06,245.77 210.15,245.78 211.25,241.15 212.33,232.39 213.43,225.79 214.52,228.39 215.62,231.45 216.71,225.44 217.81,220.76 218.90,224.24 219.99,229.95 221.08,230.15 222.18,223.81 223.27,217.61 224.37,217.55 225.46,220.17 226.55,218.65 227.65,214.93 228.75,206.58 229.84,204.92 230.93,205.37 232.02,207.92 233.12,211.75 234.21,214.54 235.31,208.14 236.40,206.54 237.49,210.00 238.59,210.13 239.68,209.12 240.77,213.56 241.87,217.39 242.96,219.70 244.05,218.50 245.15,215.63 246.24,219.63 247.34,223.77 248.43,225.31 249.52,233.52 250.62,235.01 251.72,232.46 252.81,232.19 253.90,233.88 255.00,234.44 256.09,235.33 257.18,236.61 258.27,239.80 259.37,236.47 260.46,239.37 261.56,243.34 262.65,248.84 263.75,251.98 264.84,247.04 265.93,245.83 267.03,240.75 268.12,237.83 269.22,238.86 270.31,239.22 271.40,241.94 272.50,246.14 273.59,244.41 274.68,241.74 275.78,240.07 276.86,232.89 277.97,226.06 279.06,215.97 280.15,208.26 281.24,203.30 282.33,195.57 283.43,189.85 284.53,186.38 285.62,183.79 286.71,178.86 287.80,181.11 288.90,187.59 290.00,194.67 291.09,198.22 292.18,202.24 293.27,209.53 294.37,208.92 295.47,205.09 296.55,203.68 297.65,206.33 298.74,213.71 299.84,215.43 300.93,218.47 302.03,226.83 303.12,236.05 304.21,232.92 305.31,234.79 306.40,232.43 307.49,233.42 308.58,234.25 309.68,235.85 310.78,237.23 311.87,238.79 312.96,243.91 314.05,249.40 315.15,250.19 316.24,245.25 317.34,238.61 318.43,235.79 319.52,236.50 320.62,232.69 321.71,226.40 322.80,223.51 323.90,229.98 325.00,234.53 326.08,238.46 327.18,242.16 328.27,239.84 329.37,238.14 330.46,237.98 331.55,239.88 332.65,239.75 333.74,242.24 334.83,239.25 335.93,239.83 337.03,241.86 338.12,240.32 339.21,232.65 340.31,230.57 341.40,230.13 342.49,224.33 343.59,216.65 344.68,213.41 345.77,211.43 346.86,209.41 347.96,208.63 349.06,207.60 350.15,204.26 351.24,201.40 352.33,202.38 353.43,207.96 354.53,208.37 355.61,205.71 356.72,203.85 357.81,205.20 358.90,208.99 359.99,210.99 361.09,211.07 362.18,208.92 363.27,210.27 364.37,217.05 365.46,225.82 366.56,233.44 367.65,237.03 368.74,240.14 369.83,242.45 370.93,245.67 372.03,249.66 373.12,245.44 374.21,243.95 375.30,234.21 376.40,213.99 377.49,203.99 378.58,205.66 379.68,207.60 380.77,207.72 381.87,217.46 382.96,217.68 384.05,214.13 385.15,224.27 386.25,232.20 387.34,241.07 388.43,246.65 389.53,245.49 390.62,241.47 391.71,241.40 392.81,241.75 393.90,239.80 394.99,233.40 396.08,225.79 397.18,221.50 398.27,219.11 399.37,220.75 400.46,223.88 401.56,227.19 402.65,224.76 403.74,223.55 404.83,227.51 405.93,232.31 407.03,234.43 408.12,236.33 409.21,233.87 410.31,233.24 411.40,233.04 412.49,235.77 413.58,234.98 414.68,230.86 415.77,231.47 416.86,228.59 417.96,232.76 419.05,237.72 420.15,238.01 421.24,238.26 422.34,241.48 423.43,240.23 424.52,236.06 425.61,232.69 426.71,228.50 427.81,228.05 428.90,224.20 429.99,223.47 431.09,219.93 432.18,213.04 433.27,216.29 434.36,212.46 435.46,208.08 436.55,209.83 437.65,205.82 438.75,206.75 439.83,208.47 440.93,209.35 442.02,208.77 443.12,214.07 444.21,217.69 445.31,218.44 446.40,223.96 447.49,234.49 448.58,242.31 449.68,245.65 450.77,243.39 451.87,237.99 452.96,235.58 454.06,239.05 455.15,236.83 456.24,235.52 457.33,238.01 458.43,239.30 459.52,241.04 460.62,240.07 461.71,239.14 462.81,246.19 463.89,246.17 464.99,243.27 466.09,246.75 467.18,250.13 468.27,247.95 469.37,243.36 470.46,240.35 471.56,240.67 472.64,241.58 473.74,239.22 474.83,238.14 475.93,241.35 477.02,245.78 478.11,244.06 479.21,243.82 480.30,243.45 481.40,239.81 482.49,233.71 483.59,229.47 484.68,225.26 485.77,224.19 486.87,225.97 487.96,231.15 489.06,229.30 490.15,223.13 491.24,223.06 492.33,226.46 493.43,232.13 494.53,231.14 495.62,230.42 496.71,237.33 497.81,234.74 498.90,238.51 499.99,240.46 501.08,247.80 502.18,251.30 503.27,251.00 504.37,248.39 505.46,247.43 506.55,241.29 507.64,238.95 508.74,240.51 509.84,246.39 510.93,246.73 512.02,247.72 513.12,245.90 514.21,240.87 515.30,237.33 516.39,231.64 517.49,230.65 518.59,232.17 519.68,232.11 520.78,226.78 521.86,225.73 522.96,228.13 524.05,232.22 525.15,227.71 526.24,227.81 527.34,231.27 528.43,230.95 529.52,229.82 530.62,231.12 531.71,232.51 532.80,236.21 533.89,234.33 534.99,236.59 536.08,240.07 537.18,242.02 538.27,241.64 539.37,242.35 540.46,243.14 541.56,242.78 542.64,240.62 543.74,244.59 544.84,247.17 545.92,245.98 547.02,244.46 548.12,243.52 549.21,241.45 550.30,240.74 551.39,245.21 552.49,248.07 553.58,245.36 554.68,242.67 555.78,241.90 556.87,245.79 557.96,250.46 559.05,249.25 560.15,246.89 561.24,243.22 562.33,236.02 563.43,234.59 564.52,235.54 565.61,238.29 566.71,238.70 567.81,236.10 568.90,231.50 569.99,231.82 571.08,228.21 572.18,228.13 573.27,231.95 574.37,227.43 575.46,229.86 576.55,235.53 577.64,238.97 578.74,237.12 579.83,236.45 580.93,237.10 582.02,240.83 583.12,241.35 584.21,244.66 585.31,241.59 586.40,239.20 587.49,243.75 588.58,244.97 589.67,248.83 590.77,249.51 591.87,245.11 592.96,241.66 594.05,246.65 595.15,243.42 596.24,242.03 597.33,239.33 598.43,231.80 599.52,227.85 600.62,226.56 601.71,230.92 602.81,235.65 603.89,234.15 605.00,231.85 606.08,230.27 607.18,230.74 608.27,235.30 609.37,235.63 610.46,238.85 611.56,245.72 612.65,251.81 613.74,248.35 614.83,248.23 615.93,244.57 617.02,247.78 618.12,249.71 619.21,252.25 620.30,252.74 621.40,257.99 622.49,257.50 623.59,254.98 624.68,257.05 625.77,254.82 626.86,252.81 627.96,250.32 629.05,252.65 630.14,252.70 631.24,250.88 632.34,248.04 633.43,247.19 634.52,245.21 635.62,246.72 636.71,248.73 637.80,249.84 638.90,246.89 639.99,248.03 641.09,250.89 642.18,252.50 643.27,249.90 644.36,248.80 645.46,252.26 646.55,256.89 647.65,255.97 648.74,252.76 649.83,256.09 650.93,257.19 652.02,254.39 653.11,250.09 654.21,247.44 655.30,248.23 656.39,250.29 657.49,251.84 658.59,248.57 659.68,246.80 660.78,252.79 661.86,250.33 662.96,247.39 664.05,246.51 665.14,242.70 666.24,246.23 667.33,250.66 668.43,251.55 669.52,255.82 670.61,255.85 671.71,256.46 672.80,257.11 673.89,258.15 674.99,260.78 676.08,257.10 677.18,261.36 678.28,264.28 679.37,259.91 680.46,256.76 681.55,257.17 682.65,256.33 683.74,253.29 684.84,255.18 685.92,257.40 687.02,258.79 688.11,256.65 689.21,255.13 690.31,259.96 691.39,263.26 692.49,259.90 693.58,253.99 694.67,254.13 695.77,257.70 696.87,261.53 697.96,262.67 699.05,261.64 700.15,261.62 701.24,261.61 702.34,258.98 703.43,259.97 704.52,258.50 705.61,259.49 706.71,259.19 707.80,262.14 708.90,261.21 709.99,262.44 711.09,261.36 712.18,258.32 713.27,254.30 714.37,250.75 715.46,247.29 716.55,247.97 717.65,252.68 718.74,252.20 719.84,248.05 720.93,247.52 722.02,247.84 723.12,252.45 724.21,253.60 725.30,257.50 726.39,258.55 727.49,259.25 728.59,258.79 729.68,254.31 730.77,254.32 731.86,255.74 732.96,255.64 734.05,256.17 735.15,257.46 736.24,260.21 737.34,259.89 738.42,259.90 739.52,262.41 740.61,255.44 741.71,256.60 742.80,255.05 743.90,249.23 744.99,247.65 746.08,249.50 747.18,249.19 748.28,251.49 749.36,253.72 750.46,252.88 751.56,254.37 752.64,253.00 753.74,251.30 754.83,249.62 755.92,253.78 757.02,255.11 758.12,249.71 759.20,247.61 760.30,251.90 761.39,255.26 762.49,252.38 763.58,251.38 764.68,252.95 765.77,257.94 766.87,257.14 767.96,255.79 769.05,246.97 770.15,243.57 771.24,245.02 772.34,244.14 773.43,246.49 774.52,251.54 775.62,255.33 776.71,257.11 777.80,259.09 778.89,257.65 779.99,259.01 781.08,262.25 782.17,264.96 783.27,267.48 784.37,269.07 785.46,270.37 786.55,274.71 787.64,277.08 788.74,276.27 789.83,270.80 790.92,266.34 792.02,268.80 793.11,272.44 794.21,270.59 795.30,267.17 796.40,266.47 797.49,264.92 798.58,263.31 799.68,260.41 800.77,255.75 801.87,254.81 802.96,255.18 804.06,260.51 805.15,260.17 806.24,261.11 807.34,261.37 808.42,259.66 809.52,261.67 810.61,260.51 811.71,261.52 812.80,264.18 813.90,268.53 814.99,268.31 816.09,266.80 817.18,264.81 818.27,263.84 819.37,264.84 820.46,261.56 821.55,259.87 822.65,260.04 823.74,260.26 824.84,259.19 825.92,259.46 827.02,261.80 828.11,260.82 829.21,257.67 830.30,258.98 831.39,263.62 832.49,263.60 833.58,266.03 834.68,266.81 835.77,266.59 836.86,262.91 837.96,265.02 839.05,269.64 840.15,272.75 841.24,266.76 842.33,264.63 843.43,266.23 844.52,269.90 845.62,271.49 846.70,270.86 847.80,270.13 848.89,268.78 849.98,268.84 851.09,272.76 852.17,274.53 853.27,272.86 854.37,272.38 855.46,268.92 856.55,263.36 857.64,264.24 858.74,265.43 859.83,269.62 860.93,270.25 862.02,266.18 863.11,265.00 864.21,266.85 865.30,267.41 866.40,271.90 867.49,270.39 868.59,271.21 869.68,275.23 870.77,273.69 871.86,275.22 872.96,278.00 874.05,277.13 875.14,276.89 876.24,271.96 877.33,270.51 878.43,272.11 879.52,273.22 880.61,269.69 881.71,269.70 882.80,271.76 883.90,266.67 884.99,262.70 886.08,270.03 887.17,266.68 888.27,264.27 889.36,261.96 890.46,265.11 891.55,265.76 892.65,264.05 893.74,263.39 894.83,261.49 895.92,261.11 897.02,260.98 898.11,264.90 899.21,266.56 900.30,267.99 901.39,269.87 902.49,265.58 903.58,266.51 904.67,268.98 905.77,266.62 906.86,263.42 907.95,262.66 909.05,262.49 910.15,261.34 911.23,260.18 912.34,262.88 913.43,264.25 914.52,266.23 915.61,267.00 916.71,267.27 917.80,268.85 918.89,270.80 919.99,271.58 921.08,274.09 922.18,272.06 923.27,273.88 924.37,273.43 925.46,270.57 926.55,268.44 927.64,271.44 928.74,273.21 929.83,277.31 930.93,274.79 932.02,273.70 933.11,275.24 934.20,275.37 935.30,274.56 936.39,273.74 937.49,274.94 938.58,275.60 939.68,275.50 940.77,274.88 941.86,274.59 942.95,278.84 944.05,273.53 945.15,270.11 946.24,272.89 947.33,276.57 948.42,277.39 949.52,274.26 950.61,273.32 951.71,276.55 952.80,274.34 953.90,272.90 954.99,271.14 955.00,271.14" fill="none" stroke="#d05b31" stroke-width="1.8"/><path d="M375 428h20" stroke="#d05b31" stroke-width="3"/><text x="401" y="432" font-family="Arial" font-size="12">body</text><polyline points="80.00,339.20 81.09,222.94 82.18,179.50 83.27,142.80 84.37,100.85 85.47,92.68 86.56,82.60 87.65,85.47 88.75,92.16 89.84,101.62 90.93,111.23 92.03,121.73 93.12,138.94 94.22,143.41 95.31,148.33 96.40,157.14 97.49,166.41 98.59,166.91 99.68,160.87 100.78,162.76 101.87,150.45 102.96,137.14 104.06,137.68 105.15,154.50 106.24,166.03 107.34,187.31 108.43,196.71 109.52,190.52 110.62,179.22 111.71,177.19 112.81,173.68 113.90,170.60 114.99,174.18 116.09,173.61 117.18,190.29 118.28,195.54 119.37,197.35 120.46,201.26 121.56,198.97 122.65,192.46 123.74,185.29 124.84,192.53 125.94,204.05 127.03,207.86 128.12,201.41 129.21,192.55 130.31,186.60 131.40,185.83 132.50,186.59 133.59,195.76 134.69,197.99 135.78,189.23 136.87,187.43 137.96,188.21 139.06,185.26 140.15,187.12 141.24,184.43 142.34,179.10 143.44,186.80 144.53,206.79 145.62,205.75 146.71,211.07 147.80,208.71 148.90,201.26 149.99,210.57 151.09,221.14 152.18,224.13 153.28,220.19 154.37,215.10 155.46,205.33 156.56,201.47 157.65,195.23 158.74,197.04 159.84,200.55 160.93,200.98 162.02,209.78 163.12,215.99 164.21,224.81 165.30,221.49 166.40,213.11 167.50,212.32 168.58,203.82 169.68,195.45 170.77,191.86 171.87,187.21 172.96,193.88 174.05,208.69 175.15,211.52 176.25,210.46 177.33,201.40 178.43,185.80 179.52,181.68 180.62,171.75 181.71,171.99 182.81,179.56 183.90,181.39 184.99,184.46 186.09,192.93 187.18,186.59 188.28,184.39 189.37,178.90 190.47,175.44 191.55,179.16 192.65,181.25 193.75,179.92 194.84,173.77 195.93,174.62 197.03,186.28 198.12,200.92 199.22,205.45 200.31,211.23 201.40,206.40 202.49,211.08 203.59,214.61 204.68,209.21 205.78,211.96 206.87,218.20 207.96,219.23 209.06,214.13 210.15,220.27 211.25,215.27 212.33,209.99 213.43,206.41 214.52,197.50 215.62,197.23 216.71,199.47 217.81,198.42 218.90,196.31 219.99,193.94 221.08,194.42 222.18,189.76 223.27,184.51 224.37,174.92 225.46,170.29 226.55,166.09 227.65,171.67 228.75,178.43 229.84,184.24 230.93,186.49 232.02,189.43 233.12,196.00 234.21,186.02 235.31,178.54 236.40,170.71 237.49,164.34 238.59,161.09 239.68,163.54 240.77,170.87 241.87,176.17 242.96,187.69 244.05,190.61 245.15,199.05 246.24,206.93 247.34,205.45 248.43,203.66 249.52,205.38 250.62,197.88 251.72,188.51 252.81,192.43 253.90,200.29 255.00,210.24 256.09,213.18 257.18,197.81 258.27,202.25 259.37,205.54 260.46,207.40 261.56,213.20 262.65,219.73 263.75,223.64 264.84,216.77 265.93,211.36 267.03,203.77 268.12,199.40 269.22,204.11 270.31,208.50 271.40,212.25 272.50,212.95 273.59,212.14 274.68,201.89 275.78,188.50 276.86,189.16 277.97,189.97 279.06,193.79 280.15,199.59 281.24,198.27 282.33,202.27 283.43,205.27 284.53,196.63 285.62,190.14 286.71,197.51 287.80,197.32 288.90,195.34 290.00,184.61 291.09,172.42 292.18,171.45 293.27,177.34 294.37,187.97 295.47,187.17 296.55,188.75 297.65,189.53 298.74,191.69 299.84,191.47 300.93,193.42 302.03,200.35 303.12,209.04 304.21,208.84 305.31,208.37 306.40,208.91 307.49,214.93 308.58,220.88 309.68,218.86 310.78,217.08 311.87,221.00 312.96,217.96 314.05,217.17 315.15,215.98 316.24,212.10 317.34,219.34 318.43,222.53 319.52,224.14 320.62,224.42 321.71,228.28 322.80,228.02 323.90,226.81 325.00,231.69 326.08,236.49 327.18,234.04 328.27,236.10 329.37,228.73 330.46,226.12 331.55,216.49 332.65,207.21 333.74,202.90 334.83,199.21 335.93,201.88 337.03,197.92 338.12,199.78 339.21,199.68 340.31,200.97 341.40,204.59 342.49,211.77 343.59,216.98 344.68,217.04 345.77,219.72 346.86,218.64 347.96,216.39 349.06,214.14 350.15,212.02 351.24,212.80 352.33,217.38 353.43,214.32 354.53,211.23 355.61,212.25 356.72,212.25 357.81,214.42 358.90,219.90 359.99,225.18 361.09,225.71 362.18,226.67 363.27,221.82 364.37,222.57 365.46,227.00 366.56,229.55 367.65,228.84 368.74,227.60 369.83,230.58 370.93,230.58 372.03,233.48 373.12,228.30 374.21,222.25 375.30,217.03 376.40,193.67 377.49,177.67 378.58,162.51 379.68,171.85 380.77,161.86 381.87,162.07 382.96,165.99 384.05,164.33 385.15,168.16 386.25,180.90 387.34,186.77 388.43,187.47 389.53,184.72 390.62,187.52 391.71,196.13 392.81,206.35 393.90,211.91 394.99,210.34 396.08,207.51 397.18,200.47 398.27,199.49 399.37,199.06 400.46,201.06 401.56,200.33 402.65,198.82 403.74,200.20 404.83,202.44 405.93,201.36 407.03,210.88 408.12,214.03 409.21,210.69 410.31,212.64 411.40,215.55 412.49,214.01 413.58,218.73 414.68,213.19 415.77,210.32 416.86,203.60 417.96,212.34 419.05,214.28 420.15,215.31 421.24,215.63 422.34,211.64 423.43,213.01 424.52,210.51 425.61,206.28 426.71,202.49 427.81,210.18 428.90,207.54 429.99,204.06 431.09,204.42 432.18,211.54 433.27,213.93 434.36,210.47 435.46,209.82 436.55,213.09 437.65,215.82 438.75,226.56 439.83,218.19 440.93,209.87 442.02,210.65 443.12,218.21 444.21,218.96 445.31,214.52 446.40,215.76 447.49,222.90 448.58,224.38 449.68,230.54 450.77,226.83 451.87,217.54 452.96,215.04 454.06,211.32 455.15,213.58 456.24,212.55 457.33,206.20 458.43,213.35 459.52,221.81 460.62,222.43 461.71,227.32 462.81,216.66 463.89,214.44 464.99,212.62 466.09,211.79 467.18,217.72 468.27,223.18 469.37,219.67 470.46,214.10 471.56,215.02 472.64,219.95 473.74,223.25 474.83,219.22 475.93,219.40 477.02,225.94 478.11,226.90 479.21,231.48 480.30,231.12 481.40,224.95 482.49,219.97 483.59,211.92 484.68,194.35 485.77,194.94 486.87,198.23 487.96,196.34 489.06,196.64 490.15,185.98 491.24,193.32 492.33,198.80 493.43,199.94 494.53,204.37 495.62,209.50 496.71,211.42 497.81,203.01 498.90,202.24 499.99,198.83 501.08,205.63 502.18,203.83 503.27,204.44 504.37,204.14 505.46,210.03 506.55,210.37 507.64,209.07 508.74,208.84 509.84,206.65 510.93,205.99 512.02,210.15 513.12,210.60 514.21,210.68 515.30,214.19 516.39,214.25 517.49,215.17 518.59,212.76 519.68,219.99 520.78,220.41 521.86,215.17 522.96,208.10 524.05,210.32 525.15,213.97 526.24,214.60 527.34,213.02 528.43,215.52 529.52,221.46 530.62,217.45 531.71,216.86 532.80,221.05 533.89,219.01 534.99,220.86 536.08,226.09 537.18,231.26 538.27,222.90 539.37,226.54 540.46,226.91 541.56,220.63 542.64,222.36 543.74,223.17 544.84,224.47 545.92,224.16 547.02,226.34 548.12,225.75 549.21,228.91 550.30,229.38 551.39,226.75 552.49,225.44 553.58,218.97 554.68,219.17 555.78,216.95 556.87,213.89 557.96,217.30 559.05,217.58 560.15,217.75 561.24,221.90 562.33,225.13 563.43,225.30 564.52,221.13 565.61,219.27 566.71,219.86 567.81,219.05 568.90,218.38 569.99,214.46 571.08,213.85 572.18,217.83 573.27,220.63 574.37,222.12 575.46,225.64 576.55,227.96 577.64,227.69 578.74,228.26 579.83,218.76 580.93,215.92 582.02,218.71 583.12,222.27 584.21,217.37 585.31,218.22 586.40,219.86 587.49,225.42 588.58,221.89 589.67,223.62 590.77,223.48 591.87,230.23 592.96,228.58 594.05,229.63 595.15,225.87 596.24,221.01 597.33,219.53 598.43,224.97 599.52,226.93 600.62,231.06 601.71,226.51 602.81,222.39 603.89,224.70 605.00,234.64 606.08,231.57 607.18,224.37 608.27,222.49 609.37,221.64 610.46,222.63 611.56,221.94 612.65,224.02 613.74,223.52 614.83,230.54 615.93,228.60 617.02,230.54 618.12,230.29 619.21,235.96 620.30,229.96 621.40,229.82 622.49,223.79 623.59,227.50 624.68,222.67 625.77,216.31 626.86,216.68 627.96,218.64 629.05,219.78 630.14,226.53 631.24,226.04 632.34,222.69 633.43,219.58 634.52,213.90 635.62,217.40 636.71,220.84 637.80,226.32 638.90,218.79 639.99,222.55 641.09,225.33 642.18,232.52 643.27,230.49 644.36,230.94 645.46,235.68 646.55,233.67 647.65,230.88 648.74,224.71 649.83,222.50 650.93,224.89 652.02,227.80 653.11,222.18 654.21,228.14 655.30,232.70 656.39,235.92 657.49,235.09 658.59,227.48 659.68,223.66 660.78,215.28 661.86,208.83 662.96,205.13 664.05,212.66 665.14,221.29 666.24,222.66 667.33,225.41 668.43,232.81 669.52,232.60 670.61,228.98 671.71,232.13 672.80,231.62 673.89,226.27 674.99,224.88 676.08,222.78 677.18,220.26 678.28,220.20 679.37,219.80 680.46,219.86 681.55,226.01 682.65,224.95 683.74,225.35 684.84,229.09 685.92,233.15 687.02,231.92 688.11,226.37 689.21,225.48 690.31,224.16 691.39,224.57 692.49,228.11 693.58,230.24 694.67,227.73 695.77,230.81 696.87,228.39 697.96,232.62 699.05,230.38 700.15,234.97 701.24,238.13 702.34,234.82 703.43,233.38 704.52,229.21 705.61,230.29 706.71,225.42 707.80,228.82 708.90,230.41 709.99,230.24 711.09,233.18 712.18,226.42 713.27,225.67 714.37,226.19 715.46,234.05 716.55,236.64 717.65,233.41 718.74,235.51 719.84,232.76 720.93,232.30 722.02,235.67 723.12,232.39 724.21,230.63 725.30,232.84 726.39,228.41 727.49,236.87 728.59,243.11 729.68,234.82 730.77,241.57 731.86,241.07 732.96,248.04 734.05,238.25 735.15,235.30 736.24,232.17 737.34,232.49 738.42,232.19 739.52,235.09 740.61,241.42 741.71,245.60 742.80,241.64 743.90,241.02 744.99,241.77 746.08,238.60 747.18,236.67 748.28,237.76 749.36,240.02 750.46,238.05 751.56,237.48 752.64,234.40 753.74,237.12 754.83,235.91 755.92,235.90 757.02,234.58 758.12,237.04 759.20,236.25 760.30,237.45 761.39,232.83 762.49,232.30 763.58,228.91 764.68,220.71 765.77,229.48 766.87,229.38 767.96,232.51 769.05,234.05 770.15,240.34 771.24,244.64 772.34,236.89 773.43,234.20 774.52,232.51 775.62,234.73 776.71,235.53 777.80,234.29 778.89,237.31 779.99,238.23 781.08,239.27 782.17,241.01 783.27,236.31 784.37,242.34 785.46,240.62 786.55,243.29 787.64,245.02 788.74,242.04 789.83,241.05 790.92,238.27 792.02,235.85 793.11,234.57 794.21,236.64 795.30,240.66 796.40,241.89 797.49,239.89 798.58,244.44 799.68,240.29 800.77,240.34 801.87,237.13 802.96,232.14 804.06,234.61 805.15,233.40 806.24,235.72 807.34,241.06 808.42,236.27 809.52,235.87 810.61,235.81 811.71,239.28 812.80,238.50 813.90,240.65 814.99,241.96 816.09,241.15 817.18,245.61 818.27,244.78 819.37,242.25 820.46,243.85 821.55,241.80 822.65,235.79 823.74,237.57 824.84,244.43 825.92,240.89 827.02,241.34 828.11,244.97 829.21,242.68 830.30,242.49 831.39,244.46 832.49,247.30 833.58,246.65 834.68,248.79 835.77,245.42 836.86,244.33 837.96,245.45 839.05,244.55 840.15,242.87 841.24,246.28 842.33,247.51 843.43,245.51 844.52,243.70 845.62,240.59 846.70,235.89 847.80,228.20 848.89,230.19 849.98,228.48 851.09,234.74 852.17,238.48 853.27,236.36 854.37,235.26 855.46,241.86 856.55,243.34 857.64,246.41 858.74,249.84 859.83,245.55 860.93,246.11 862.02,243.06 863.11,241.08 864.21,242.75 865.30,246.11 866.40,246.35 867.49,248.98 868.59,248.84 869.68,243.55 870.77,246.58 871.86,243.94 872.96,246.35 874.05,249.70 875.14,241.36 876.24,241.64 877.33,241.14 878.43,240.94 879.52,241.65 880.61,238.26 881.71,247.62 882.80,251.95 883.90,245.86 884.99,243.84 886.08,243.90 887.17,243.40 888.27,243.10 889.36,237.62 890.46,237.47 891.55,236.47 892.65,237.02 893.74,235.88 894.83,234.94 895.92,248.10 897.02,249.08 898.11,247.10 899.21,254.35 900.30,253.26 901.39,246.25 902.49,243.10 903.58,249.08 904.67,248.27 905.77,250.17 906.86,253.23 907.95,253.39 909.05,253.31 910.15,248.46 911.23,249.29 912.34,246.26 913.43,247.12 914.52,251.08 915.61,250.00 916.71,245.97 917.80,244.79 918.89,243.12 919.99,243.74 921.08,249.97 922.18,251.09 923.27,254.09 924.37,254.97 925.46,252.70 926.55,249.80 927.64,249.08 928.74,249.76 929.83,251.33 930.93,250.60 932.02,251.21 933.11,247.72 934.20,246.40 935.30,246.39 936.39,246.96 937.49,249.96 938.58,252.66 939.68,255.68 940.77,253.41 941.86,253.29 942.95,250.65 944.05,253.02 945.15,255.07 946.24,254.76 947.33,254.93 948.42,252.50 949.52,256.49 950.61,251.64 951.71,254.69 952.80,249.30 953.90,249.33 954.99,249.50 955.00,249.50" fill="none" stroke="#7d55a8" stroke-width="1.8"/><path d="M670 428h20" stroke="#7d55a8" stroke-width="3"/><text x="696" y="432" font-family="Arial" font-size="12">pad root</text><polyline points="80.00,339.20 81.09,339.20 82.18,339.00 83.27,334.17 84.37,314.20 85.47,311.92 86.56,300.21 87.65,270.39 88.75,252.50 89.84,247.95 90.93,230.87 92.03,208.86 93.12,194.60 94.22,178.51 95.31,156.97 96.40,149.36 97.49,138.22 98.59,125.21 99.68,109.27 100.78,91.15 101.87,75.80 102.96,76.69 104.06,81.10 105.15,93.60 106.24,102.23 107.34,114.00 108.43,126.63 109.52,136.93 110.62,145.01 111.71,150.82 112.81,155.24 113.90,158.01 114.99,155.18 116.09,150.90 117.18,153.55 118.28,147.23 119.37,147.35 120.46,144.56 121.56,144.97 122.65,153.97 123.74,163.86 124.84,168.09 125.94,192.20 127.03,197.92 128.12,197.81 129.21,202.07 130.31,205.58 131.40,201.41 132.50,196.48 133.59,204.38 134.69,200.95 135.78,207.46 136.87,212.85 137.96,212.99 139.06,211.27 140.15,209.93 141.24,216.96 142.34,223.06 143.44,219.23 144.53,220.30 145.62,219.40 146.71,208.56 147.80,200.74 148.90,201.31 149.99,197.14 151.09,185.58 152.18,191.04 153.28,186.37 154.37,173.34 155.46,176.60 156.56,183.73 157.65,186.25 158.74,185.93 159.84,180.84 160.93,180.18 162.02,180.87 163.12,187.01 164.21,182.56 165.30,182.80 166.40,194.67 167.50,196.71 168.58,191.06 169.68,183.52 170.77,175.76 171.87,168.24 172.96,169.74 174.05,161.49 175.15,157.64 176.25,156.39 177.33,149.57 178.43,151.57 179.52,147.23 180.62,138.00 181.71,138.80 182.81,135.55 183.90,137.28 184.99,143.26 186.09,138.08 187.18,132.29 188.28,135.71 189.37,143.18 190.47,155.25 191.55,169.23 192.65,177.68 193.75,171.97 194.84,171.11 195.93,176.36 197.03,170.83 198.12,167.35 199.22,171.36 200.31,177.98 201.40,172.57 202.49,176.21 203.59,175.47 204.68,181.29 205.78,190.31 206.87,189.95 207.96,194.31 209.06,193.92 210.15,182.07 211.25,171.68 212.33,160.08 213.43,157.59 214.52,149.58 215.62,141.14 216.71,139.85 217.81,132.64 218.90,136.83 219.99,137.59 221.08,127.38 222.18,127.25 223.27,136.37 224.37,143.09 225.46,152.20 226.55,160.13 227.65,157.40 228.75,149.52 229.84,141.65 230.93,133.81 232.02,137.90 233.12,145.40 234.21,136.88 235.31,125.16 236.40,119.31 237.49,132.29 238.59,143.79 239.68,150.19 240.77,158.25 241.87,168.29 242.96,177.80 244.05,165.33 245.15,156.76 246.24,157.97 247.34,161.88 248.43,173.40 249.52,174.87 250.62,173.89 251.72,174.85 252.81,178.55 253.90,176.47 255.00,180.84 256.09,168.47 257.18,166.56 258.27,157.04 259.37,150.44 260.46,161.81 261.56,180.78 262.65,187.71 263.75,184.68 264.84,180.04 265.93,183.11 267.03,192.44 268.12,186.07 269.22,191.83 270.31,186.06 271.40,180.95 272.50,173.09 273.59,165.15 274.68,152.79 275.78,140.98 276.86,146.69 277.97,144.67 279.06,141.38 280.15,135.29 281.24,141.43 282.33,142.00 283.43,139.15 284.53,133.04 285.62,140.26 286.71,148.35 287.80,159.57 288.90,169.36 290.00,169.68 291.09,167.54 292.18,170.29 293.27,169.03 294.37,162.80 295.47,160.48 296.55,158.26 297.65,151.28 298.74,162.32 299.84,172.00 300.93,175.58 302.03,172.60 303.12,180.63 304.21,184.37 305.31,180.96 306.40,168.57 307.49,161.03 308.58,152.43 309.68,158.95 310.78,167.02 311.87,166.46 312.96,167.79 314.05,166.21 315.15,169.20 316.24,147.87 317.34,138.63 318.43,140.57 319.52,152.63 320.62,157.37 321.71,154.52 322.80,168.51 323.90,175.85 325.00,173.11 326.08,164.55 327.18,159.27 328.27,166.50 329.37,170.77 330.46,160.75 331.55,140.40 332.65,133.01 333.74,142.07 334.83,155.82 335.93,153.91 337.03,149.19 338.12,142.23 339.21,151.93 340.31,147.80 341.40,146.76 342.49,140.50 343.59,133.39 344.68,126.70 345.77,126.76 346.86,139.31 347.96,141.63 349.06,141.61 350.15,149.14 351.24,150.48 352.33,150.18 353.43,161.42 354.53,174.87 355.61,179.62 356.72,179.60 357.81,180.85 358.90,182.81 359.99,177.55 361.09,185.74 362.18,189.08 363.27,188.78 364.37,179.80 365.46,177.50 366.56,180.85 367.65,178.03 368.74,185.35 369.83,191.26 370.93,187.16 372.03,190.53 373.12,199.56 374.21,190.94 375.30,188.41 376.40,178.38 377.49,185.44 378.58,189.79 379.68,175.91 380.77,169.16 381.87,169.27 382.96,179.33 384.05,173.06 385.15,181.65 386.25,183.50 387.34,190.16 388.43,185.66 389.53,188.01 390.62,177.06 391.71,166.56 392.81,170.34 393.90,158.47 394.99,167.36 396.08,176.42 397.18,176.10 398.27,176.56 399.37,174.68 400.46,171.37 401.56,177.82 402.65,183.83 403.74,178.01 404.83,179.14 405.93,174.07 407.03,176.53 408.12,187.19 409.21,185.03 410.31,186.78 411.40,197.33 412.49,202.10 413.58,188.20 414.68,174.31 415.77,174.83 416.86,174.45 417.96,175.11 419.05,180.21 420.15,176.45 421.24,163.01 422.34,178.64 423.43,177.58 424.52,182.39 425.61,189.67 426.71,184.08 427.81,173.26 428.90,176.71 429.99,182.43 431.09,168.54 432.18,169.22 433.27,176.53 434.36,182.48 435.46,180.09 436.55,188.36 437.65,181.88 438.75,186.06 439.83,187.19 440.93,178.63 442.02,176.22 443.12,178.62 444.21,171.83 445.31,163.61 446.40,163.54 447.49,167.96 448.58,172.57 449.68,161.67 450.77,151.14 451.87,148.54 452.96,154.98 454.06,156.44 455.15,165.95 456.24,172.53 457.33,176.01 458.43,171.89 459.52,166.37 460.62,169.59 461.71,174.87 462.81,181.67 463.89,178.34 464.99,178.48 466.09,175.33 467.18,180.99 468.27,191.26 469.37,195.69 470.46,186.96 471.56,181.23 472.64,170.40 473.74,166.94 474.83,168.73 475.93,174.85 477.02,182.09 478.11,195.71 479.21,193.60 480.30,183.96 481.40,185.65 482.49,185.51 483.59,189.09 484.68,195.57 485.77,186.81 486.87,184.47 487.96,181.17 489.06,184.51 490.15,188.94 491.24,195.53 492.33,200.18 493.43,196.13 494.53,195.05 495.62,194.71 496.71,189.52 497.81,192.39 498.90,189.95 499.99,193.42 501.08,189.12 502.18,188.15 503.27,183.98 504.37,181.83 505.46,179.63 506.55,181.47 507.64,176.58 508.74,173.75 509.84,165.06 510.93,165.54 512.02,172.25 513.12,175.97 514.21,182.00 515.30,195.16 516.39,198.59 517.49,191.91 518.59,193.27 519.68,189.38 520.78,179.61 521.86,183.83 522.96,186.80 524.05,194.64 525.15,186.95 526.24,182.34 527.34,176.24 528.43,171.97 529.52,178.46 530.62,180.53 531.71,183.63 532.80,183.23 533.89,189.51 534.99,177.83 536.08,171.97 537.18,176.85 538.27,194.53 539.37,200.05 540.46,194.64 541.56,181.46 542.64,171.59 543.74,177.62 544.84,179.22 545.92,186.20 547.02,183.09 548.12,170.90 549.21,160.71 550.30,153.57 551.39,150.68 552.49,168.90 553.58,191.64 554.68,191.73 555.78,181.61 556.87,174.82 557.96,171.31 559.05,160.90 560.15,163.28 561.24,171.63 562.33,180.09 563.43,189.35 564.52,180.95 565.61,167.17 566.71,164.58 567.81,170.52 568.90,170.82 569.99,165.69 571.08,157.75 572.18,154.28 573.27,161.28 574.37,165.40 575.46,168.52 576.55,169.83 577.64,183.36 578.74,183.22 579.83,173.94 580.93,173.13 582.02,177.30 583.12,175.57 584.21,179.39 585.31,175.61 586.40,183.72 587.49,179.50 588.58,166.42 589.67,157.30 590.77,167.97 591.87,173.99 592.96,163.64 594.05,169.51 595.15,166.84 596.24,170.74 597.33,165.78 598.43,175.14 599.52,179.75 600.62,176.92 601.71,176.86 602.81,172.06 603.89,173.51 605.00,182.23 606.08,183.37 607.18,180.60 608.27,181.15 609.37,183.18 610.46,175.92 611.56,175.31 612.65,183.73 613.74,187.22 614.83,182.22 615.93,169.56 617.02,176.66 618.12,179.92 619.21,173.42 620.30,175.24 621.40,167.52 622.49,164.79 623.59,169.59 624.68,177.13 625.77,170.17 626.86,166.39 627.96,175.09 629.05,179.46 630.14,181.10 631.24,178.33 632.34,176.61 633.43,185.89 634.52,190.09 635.62,184.86 636.71,190.06 637.80,183.24 638.90,188.77 639.99,194.35 641.09,190.32 642.18,188.66 643.27,183.39 644.36,188.72 645.46,192.53 646.55,191.22 647.65,185.55 648.74,182.86 649.83,178.50 650.93,181.52 652.02,176.00 653.11,180.39 654.21,182.41 655.30,173.94 656.39,170.21 657.49,173.76 658.59,182.18 659.68,181.95 660.78,174.35 661.86,173.06 662.96,169.63 664.05,177.65 665.14,180.79 666.24,180.65 667.33,182.34 668.43,174.24 669.52,163.93 670.61,166.16 671.71,169.17 672.80,179.07 673.89,168.65 674.99,168.44 676.08,167.16 677.18,156.17 678.28,152.06 679.37,150.95 680.46,155.06 681.55,165.73 682.65,175.10 683.74,169.05 684.84,159.78 685.92,169.95 687.02,168.98 688.11,171.33 689.21,183.01 690.31,188.11 691.39,181.28 692.49,181.95 693.58,184.77 694.67,170.56 695.77,175.63 696.87,184.74 697.96,191.02 699.05,186.01 700.15,190.67 701.24,193.73 702.34,192.28 703.43,185.96 704.52,180.47 705.61,188.49 706.71,193.28 707.80,201.00 708.90,198.93 709.99,196.68 711.09,197.10 712.18,203.08 713.27,197.55 714.37,203.78 715.46,211.93 716.55,215.03 717.65,211.36 718.74,206.12 719.84,205.83 720.93,197.47 722.02,196.41 723.12,205.56 724.21,205.02 725.30,203.49 726.39,203.69 727.49,204.88 728.59,199.73 729.68,190.32 730.77,189.84 731.86,197.76 732.96,201.49 734.05,201.21 735.15,202.08 736.24,196.29 737.34,197.71 738.42,190.82 739.52,193.96 740.61,185.36 741.71,185.76 742.80,194.15 743.90,196.34 744.99,205.33 746.08,206.32 747.18,206.70 748.28,207.39 749.36,199.20 750.46,196.61 751.56,195.45 752.64,195.82 753.74,197.79 754.83,196.13 755.92,200.94 757.02,192.17 758.12,195.78 759.20,205.78 760.30,211.80 761.39,207.66 762.49,204.54 763.58,210.83 764.68,213.59 765.77,215.25 766.87,205.95 767.96,198.64 769.05,207.90 770.15,205.34 771.24,206.38 772.34,198.62 773.43,202.46 774.52,209.98 775.62,208.37 776.71,212.75 777.80,202.25 778.89,202.32 779.99,207.49 781.08,209.12 782.17,213.02 783.27,204.49 784.37,207.84 785.46,211.12 786.55,204.06 787.64,202.08 788.74,204.73 789.83,207.22 790.92,215.89 792.02,217.30 793.11,215.57 794.21,216.22 795.30,215.07 796.40,210.65 797.49,218.64 798.58,219.43 799.68,217.39 800.77,211.26 801.87,207.20 802.96,201.70 804.06,200.46 805.15,202.05 806.24,197.34 807.34,199.62 808.42,198.80 809.52,201.37 810.61,207.47 811.71,211.17 812.80,202.40 813.90,197.24 814.99,194.27 816.09,202.44 817.18,199.65 818.27,201.74 819.37,210.42 820.46,210.05 821.55,206.16 822.65,204.71 823.74,204.44 824.84,202.97 825.92,206.56 827.02,201.63 828.11,202.04 829.21,196.64 830.30,193.27 831.39,194.18 832.49,192.96 833.58,190.70 834.68,194.05 835.77,198.60 836.86,202.20 837.96,202.78 839.05,206.35 840.15,202.19 841.24,199.52 842.33,205.69 843.43,213.47 844.52,208.74 845.62,212.13 846.70,210.13 847.80,213.98 848.89,209.82 849.98,215.60 851.09,214.55 852.17,216.62 853.27,220.07 854.37,220.22 855.46,215.77 856.55,210.00 857.64,201.72 858.74,193.39 859.83,192.04 860.93,186.80 862.02,198.74 863.11,208.68 864.21,206.41 865.30,214.64 866.40,217.11 867.49,217.28 868.59,208.10 869.68,215.42 870.77,226.20 871.86,228.45 872.96,229.65 874.05,227.31 875.14,221.07 876.24,213.39 877.33,220.71 878.43,225.62 879.52,221.31 880.61,221.14 881.71,225.82 882.80,210.32 883.90,201.23 884.99,198.95 886.08,206.61 887.17,205.31 888.27,199.83 889.36,200.75 890.46,201.88 891.55,205.09 892.65,211.85 893.74,214.25 894.83,215.17 895.92,215.51 897.02,216.55 898.11,219.12 899.21,215.45 900.30,224.27 901.39,220.44 902.49,220.89 903.58,220.29 904.67,214.12 905.77,219.77 906.86,218.13 907.95,217.98 909.05,218.53 910.15,214.07 911.23,209.49 912.34,207.72 913.43,201.26 914.52,201.84 915.61,200.61 916.71,203.04 917.80,208.31 918.89,210.72 919.99,208.62 921.08,211.75 922.18,218.87 923.27,217.76 924.37,214.75 925.46,222.20 926.55,211.79 927.64,218.38 928.74,225.80 929.83,225.16 930.93,228.11 932.02,235.45 933.11,232.75 934.20,232.70 935.30,230.30 936.39,222.06 937.49,213.91 938.58,215.44 939.68,217.77 940.77,215.70 941.86,210.38 942.95,214.44 944.05,212.68 945.15,210.77 946.24,211.83 947.33,214.79 948.42,222.37 949.52,222.84 950.61,225.14 951.71,222.44 952.80,220.14 953.90,226.52 954.99,226.38 955.00,226.38" fill="none" stroke="#2279ba" stroke-width="1.8"/><path d="M80 450h20" stroke="#2279ba" stroke-width="3"/><text x="106" y="454" font-family="Arial" font-size="12">cap</text><polyline points="80.00,339.20 81.09,212.44 82.18,185.00 83.27,150.86 84.37,102.00 85.47,79.54 86.56,88.21 87.65,96.36 88.75,97.30 89.84,133.54 90.93,137.21 92.03,157.78 93.12,182.41 94.22,216.29 95.31,236.50 96.40,255.48 97.49,252.39 98.59,236.71 99.68,208.28 100.78,190.63 101.87,172.65 102.96,178.73 104.06,191.80 105.15,209.27 106.24,218.26 107.34,233.87 108.43,240.75 109.52,233.75 110.62,236.61 111.71,223.48 112.81,198.31 113.90,187.59 114.99,181.21 116.09,187.61 117.18,204.81 118.28,218.37 119.37,227.76 120.46,238.60 121.56,226.15 122.65,206.28 123.74,199.31 124.84,225.22 125.94,220.04 127.03,220.54 128.12,219.55 129.21,214.24 130.31,203.86 131.40,209.54 132.50,240.72 133.59,250.35 134.69,248.08 135.78,245.88 136.87,245.15 137.96,249.23 139.06,231.66 140.15,230.65 141.24,243.19 142.34,234.81 143.44,241.78 144.53,239.36 145.62,231.45 146.71,244.50 147.80,248.48 148.90,236.46 149.99,241.85 151.09,254.23 152.18,251.29 153.28,245.67 154.37,246.52 155.46,242.34 156.56,232.20 157.65,217.45 158.74,217.88 159.84,230.56 160.93,239.48 162.02,261.52 163.12,260.39 164.21,261.59 165.30,262.59 166.40,263.00 167.50,258.51 168.58,258.42 169.68,255.24 170.77,236.34 171.87,235.36 172.96,245.33 174.05,259.84 175.15,267.06 176.25,268.19 177.33,266.13 178.43,261.85 179.52,261.26 180.62,258.55 181.71,261.48 182.81,270.03 183.90,265.47 184.99,260.86 186.09,258.03 187.18,260.36 188.28,254.07 189.37,243.72 190.47,246.24 191.55,253.35 192.65,259.33 193.75,257.90 194.84,250.09 195.93,242.53 197.03,245.88 198.12,241.50 199.22,237.08 200.31,249.52 201.40,253.56 202.49,252.25 203.59,248.86 204.68,247.40 205.78,254.00 206.87,259.62 207.96,254.03 209.06,242.98 210.15,246.68 211.25,241.84 212.33,234.92 213.43,235.64 214.52,236.71 215.62,245.03 216.71,257.54 217.81,263.93 218.90,271.43 219.99,267.26 221.08,263.42 222.18,256.86 223.27,246.11 224.37,245.61 225.46,251.64 226.55,251.01 227.65,240.05 228.75,229.03 229.84,228.71 230.93,244.05 232.02,250.66 233.12,248.17 234.21,238.68 235.31,232.18 236.40,229.38 237.49,238.39 238.59,245.34 239.68,250.78 240.77,252.33 241.87,248.93 242.96,246.85 244.05,246.14 245.15,247.55 246.24,249.55 247.34,235.39 248.43,225.25 249.52,226.94 250.62,233.96 251.72,235.89 252.81,233.05 253.90,229.57 255.00,239.09 256.09,238.44 257.18,230.50 258.27,229.80 259.37,233.11 260.46,238.33 261.56,243.04 262.65,254.57 263.75,257.01 264.84,252.30 265.93,253.38 267.03,244.95 268.12,233.29 269.22,232.22 270.31,229.78 271.40,219.65 272.50,227.70 273.59,246.56 274.68,254.78 275.78,255.86 276.86,258.96 277.97,257.36 279.06,251.76 280.15,249.41 281.24,249.59 282.33,253.63 283.43,254.07 284.53,248.38 285.62,254.41 286.71,266.73 287.80,271.59 288.90,273.00 290.00,264.44 291.09,256.67 292.18,254.94 293.27,254.78 294.37,256.07 295.47,250.16 296.55,247.34 297.65,241.90 298.74,248.50 299.84,264.90 300.93,263.19 302.03,252.23 303.12,260.57 304.21,273.25 305.31,271.43 306.40,268.30 307.49,263.40 308.58,255.26 309.68,251.25 310.78,242.75 311.87,234.33 312.96,231.53 314.05,235.99 315.15,238.14 316.24,238.92 317.34,237.04 318.43,241.73 319.52,245.04 320.62,251.88 321.71,255.21 322.80,256.62 323.90,263.11 325.00,263.98 326.08,270.42 327.18,263.62 328.27,262.52 329.37,265.32 330.46,274.13 331.55,271.81 332.65,262.58 333.74,260.29 334.83,251.76 335.93,257.87 337.03,256.13 338.12,250.87 339.21,252.07 340.31,252.48 341.40,261.09 342.49,262.38 343.59,254.12 344.68,254.83 345.77,254.59 346.86,252.63 347.96,252.97 349.06,252.40 350.15,257.06 351.24,257.49 352.33,254.75 353.43,258.69 354.53,262.44 355.61,253.05 356.72,247.74 357.81,244.68 358.90,246.04 359.99,258.83 361.09,265.73 362.18,257.13 363.27,252.03 364.37,249.42 365.46,251.45 366.56,256.38 367.65,267.75 368.74,277.53 369.83,275.34 370.93,263.74 372.03,260.61 373.12,226.82 374.21,234.19 375.30,202.26 376.40,177.55 377.49,159.74 378.58,168.88 379.68,178.12 380.77,177.47 381.87,188.68 382.96,176.96 384.05,172.49 385.15,189.47 386.25,205.26 387.34,226.15 388.43,240.95 389.53,253.53 390.62,257.44 391.71,251.01 392.81,250.72 393.90,249.57 394.99,252.38 396.08,246.11 397.18,240.10 398.27,241.98 399.37,231.44 400.46,239.15 401.56,237.78 402.65,236.08 403.74,240.48 404.83,252.23 405.93,258.43 407.03,250.87 408.12,253.52 409.21,256.31 410.31,256.45 411.40,258.87 412.49,262.44 413.58,253.96 414.68,239.78 415.77,233.47 416.86,231.40 417.96,252.26 419.05,259.85 420.15,257.17 421.24,250.27 422.34,247.79 423.43,245.05 424.52,239.21 425.61,236.80 426.71,230.45 427.81,228.81 428.90,230.26 429.99,234.01 431.09,229.78 432.18,241.29 433.27,251.12 434.36,254.63 435.46,266.82 436.55,250.32 437.65,258.00 438.75,263.69 439.83,252.72 440.93,248.18 442.02,244.51 443.12,252.84 444.21,251.12 445.31,245.79 446.40,247.62 447.49,245.15 448.58,257.47 449.68,259.11 450.77,242.05 451.87,237.77 452.96,230.52 454.06,229.26 455.15,237.36 456.24,239.15 457.33,242.64 458.43,247.01 459.52,254.37 460.62,248.98 461.71,252.73 462.81,248.39 463.89,249.65 464.99,251.56 466.09,260.79 467.18,256.21 468.27,255.39 469.37,251.89 470.46,247.17 471.56,248.68 472.64,251.44 473.74,251.73 474.83,251.64 475.93,249.48 477.02,254.11 478.11,262.94 479.21,258.48 480.30,263.02 481.40,252.71 482.49,237.01 483.59,225.74 484.68,205.65 485.77,210.75 486.87,217.32 487.96,226.79 489.06,219.12 490.15,204.71 491.24,199.95 492.33,209.64 493.43,227.79 494.53,235.25 495.62,247.54 496.71,255.46 497.81,255.54 498.90,242.75 499.99,228.83 501.08,236.47 502.18,245.70 503.27,249.45 504.37,245.68 505.46,249.90 506.55,242.18 507.64,243.55 508.74,248.32 509.84,260.32 510.93,256.45 512.02,255.54 513.12,253.73 514.21,251.72 515.30,245.14 516.39,251.86 517.49,261.72 518.59,263.21 519.68,262.29 520.78,263.54 521.86,257.32 522.96,256.08 524.05,254.99 525.15,253.52 526.24,257.22 527.34,247.74 528.43,230.46 529.52,249.74 530.62,256.09 531.71,251.57 532.80,247.17 533.89,247.03 534.99,258.11 536.08,269.82 537.18,265.29 538.27,258.15 539.37,260.88 540.46,261.27 541.56,259.26 542.64,251.52 543.74,256.20 544.84,246.80 545.92,250.99 547.02,257.62 548.12,256.93 549.21,257.96 550.30,267.43 551.39,266.13 552.49,254.88 553.58,252.68 554.68,247.97 555.78,245.01 556.87,242.25 557.96,249.19 559.05,254.82 560.15,251.38 561.24,252.09 562.33,263.10 563.43,268.71 564.52,266.18 565.61,257.75 566.71,262.98 567.81,260.58 568.90,258.03 569.99,242.86 571.08,236.58 572.18,243.74 573.27,246.36 574.37,247.43 575.46,258.53 576.55,267.59 577.64,267.54 578.74,267.64 579.83,262.22 580.93,264.21 582.02,253.59 583.12,243.69 584.21,248.00 585.31,252.30 586.40,264.35 587.49,266.05 588.58,257.67 589.67,263.22 590.77,267.42 591.87,269.46 592.96,259.13 594.05,260.69 595.15,257.79 596.24,255.82 597.33,256.79 598.43,250.65 599.52,249.79 600.62,255.98 601.71,264.98 602.81,258.72 603.89,259.13 605.00,273.68 606.08,268.90 607.18,264.23 608.27,269.49 609.37,251.90 610.46,251.63 611.56,258.15 612.65,257.90 613.74,254.58 614.83,268.19 615.93,265.52 617.02,271.46 618.12,275.10 619.21,270.58 620.30,263.41 621.40,261.27 622.49,260.87 623.59,256.45 624.68,246.02 625.77,241.05 626.86,246.35 627.96,250.32 629.05,248.80 630.14,257.02 631.24,266.08 632.34,266.51 633.43,260.15 634.52,255.58 635.62,255.03 636.71,255.81 637.80,255.69 638.90,250.21 639.99,248.68 641.09,248.70 642.18,260.69 643.27,269.52 644.36,270.49 645.46,273.70 646.55,271.03 647.65,263.72 648.74,255.88 649.83,252.19 650.93,261.22 652.02,268.31 653.11,262.34 654.21,255.47 655.30,274.21 656.39,278.21 657.49,279.05 658.59,276.28 659.68,273.04 660.78,266.13 661.86,255.44 662.96,252.39 664.05,246.33 665.14,244.33 666.24,248.77 667.33,250.23 668.43,261.16 669.52,266.92 670.61,274.84 671.71,272.13 672.80,267.57 673.89,260.57 674.99,266.39 676.08,268.25 677.18,266.45 678.28,268.03 679.37,260.92 680.46,261.47 681.55,267.08 682.65,261.85 683.74,258.98 684.84,257.80 685.92,266.84 687.02,269.61 688.11,266.30 689.21,257.03 690.31,260.31 691.39,265.20 692.49,265.67 693.58,257.11 694.67,258.51 695.77,263.91 696.87,274.29 697.96,268.81 699.05,267.64 700.15,267.61 701.24,266.92 702.34,267.88 703.43,263.10 704.52,258.39 705.61,253.18 706.71,244.80 707.80,250.80 708.90,258.55 709.99,265.09 711.09,266.81 712.18,266.27 713.27,262.22 714.37,262.56 715.46,265.27 716.55,272.20 717.65,276.73 718.74,272.94 719.84,273.56 720.93,267.47 722.02,265.97 723.12,271.98 724.21,268.74 725.30,270.67 726.39,274.40 727.49,270.32 728.59,268.70 729.68,270.18 730.77,267.92 731.86,279.51 732.96,273.89 734.05,271.25 735.15,265.38 736.24,271.65 737.34,265.71 738.42,267.15 739.52,270.84 740.61,273.60 741.71,276.84 742.80,276.32 743.90,275.19 744.99,276.66 746.08,278.96 747.18,279.75 748.28,273.94 749.36,267.15 750.46,271.38 751.56,271.41 752.64,266.86 753.74,266.92 754.83,269.35 755.92,269.20 757.02,272.18 758.12,271.66 759.20,279.43 760.30,278.15 761.39,273.64 762.49,275.49 763.58,273.86 764.68,265.21 765.77,263.59 766.87,263.90 767.96,273.26 769.05,280.31 770.15,271.10 771.24,273.93 772.34,270.57 773.43,273.70 774.52,269.28 775.62,274.57 776.71,276.71 777.80,278.91 778.89,279.94 779.99,276.98 781.08,273.98 782.17,273.86 783.27,272.21 784.37,278.04 785.46,272.24 786.55,278.15 787.64,281.73 788.74,272.58 789.83,270.64 790.92,269.54 792.02,272.99 793.11,272.98 794.21,267.90 795.30,262.35 796.40,267.05 797.49,267.91 798.58,268.99 799.68,274.51 800.77,269.61 801.87,266.38 802.96,263.04 804.06,258.11 805.15,257.81 806.24,263.34 807.34,259.18 808.42,257.59 809.52,257.47 810.61,255.57 811.71,263.01 812.80,261.53 813.90,269.61 814.99,271.18 816.09,271.03 817.18,269.71 818.27,263.74 819.37,268.81 820.46,279.58 821.55,278.84 822.65,280.74 823.74,279.25 824.84,278.40 825.92,274.39 827.02,278.45 828.11,282.14 829.21,275.82 830.30,278.87 831.39,280.30 832.49,273.06 833.58,266.97 834.68,267.81 835.77,272.56 836.86,275.66 837.96,270.57 839.05,272.28 840.15,274.68 841.24,274.64 842.33,273.14 843.43,273.66 844.52,269.58 845.62,268.47 846.70,266.56 847.80,259.77 848.89,262.55 849.98,268.02 851.09,273.45 852.17,278.76 853.27,275.13 854.37,276.62 855.46,271.48 856.55,274.25 857.64,278.43 858.74,280.90 859.83,284.56 860.93,279.83 862.02,277.95 863.11,273.53 864.21,275.72 865.30,284.35 866.40,280.00 867.49,276.02 868.59,274.06 869.68,272.94 870.77,271.47 871.86,281.36 872.96,280.97 874.05,281.09 875.14,274.70 876.24,266.90 877.33,264.85 878.43,269.46 879.52,277.26 880.61,275.45 881.71,278.18 882.80,281.42 883.90,275.97 884.99,282.46 886.08,278.96 887.17,274.11 888.27,273.04 889.36,265.82 890.46,267.57 891.55,271.74 892.65,270.19 893.74,270.46 894.83,272.21 895.92,279.20 897.02,273.42 898.11,269.01 899.21,281.39 900.30,282.04 901.39,275.86 902.49,272.41 903.58,281.46 904.67,274.95 905.77,278.28 906.86,284.08 907.95,286.19 909.05,281.87 910.15,276.10 911.23,283.01 912.34,281.82 913.43,284.86 914.52,291.11 915.61,289.60 916.71,284.76 917.80,290.15 918.89,291.25 919.99,292.97 921.08,282.34 922.18,279.15 923.27,287.21 924.37,282.82 925.46,284.88 926.55,279.98 927.64,285.24 928.74,282.25 929.83,282.99 930.93,278.10 932.02,278.22 933.11,279.78 934.20,278.56 935.30,274.06 936.39,275.73 937.49,268.80 938.58,271.78 939.68,274.59 940.77,274.73 941.86,283.95 942.95,281.32 944.05,276.11 945.15,270.47 946.24,277.42 947.33,280.91 948.42,279.85 949.52,279.80 950.61,283.26 951.71,277.50 952.80,279.99 953.90,275.35 954.99,266.10 955.00,266.10" fill="none" stroke="#9c7414" stroke-width="1.8"/><path d="M375 450h20" stroke="#9c7414" stroke-width="3"/><text x="401" y="454" font-family="Arial" font-size="12">outer pad</text><polyline points="80.00,339.20 81.09,339.20 82.18,339.20 83.27,339.19 84.37,338.46 85.47,333.73 86.56,328.33 87.65,323.14 88.75,311.11 89.84,301.28 90.93,293.91 92.03,288.15 93.12,286.85 94.22,287.96 95.31,281.34 96.40,273.18 97.49,268.17 98.59,270.78 99.68,269.40 100.78,264.78 101.87,262.09 102.96,256.25 104.06,244.25 105.15,230.82 106.24,216.62 107.34,198.14 108.43,183.65 109.52,180.54 110.62,181.36 111.71,179.02 112.81,168.61 113.90,156.95 114.99,155.77 116.09,162.58 117.18,168.35 118.28,170.42 119.37,171.23 120.46,173.13 121.56,179.38 122.65,183.08 123.74,180.41 124.84,176.17 125.94,174.70 127.03,177.00 128.12,180.55 129.21,178.60 130.31,178.09 131.40,176.69 132.50,165.33 133.59,165.91 134.69,175.34 135.78,190.07 136.87,208.08 137.96,224.30 139.06,239.39 140.15,246.73 141.24,252.48 142.34,249.88 143.44,245.47 144.53,240.99 145.62,243.19 146.71,241.40 147.80,236.33 148.90,233.56 149.99,235.35 151.09,233.27 152.18,237.10 153.28,230.85 154.37,217.74 155.46,210.43 156.56,211.75 157.65,205.81 158.74,198.80 159.84,186.85 160.93,177.58 162.02,171.04 163.12,169.30 164.21,165.70 165.30,157.45 166.40,151.63 167.50,138.67 168.58,136.48 169.68,132.97 170.77,133.19 171.87,132.65 172.96,126.65 174.05,123.56 175.15,128.23 176.25,139.80 177.33,160.14 178.43,176.98 179.52,189.76 180.62,200.08 181.71,205.12 182.81,207.49 183.90,215.13 184.99,219.31 186.09,221.67 187.18,224.41 188.28,234.10 189.37,237.30 190.47,237.75 191.55,240.69 192.65,240.85 193.75,244.06 194.84,252.21 195.93,255.69 197.03,255.03 198.12,243.79 199.22,238.00 200.31,238.87 201.40,236.63 202.49,234.98 203.59,238.70 204.68,245.44 205.78,249.45 206.87,246.98 207.96,244.16 209.06,246.56 210.15,244.87 211.25,239.19 212.33,229.79 213.43,221.80 214.52,228.64 215.62,233.07 216.71,227.07 217.81,222.07 218.90,227.82 219.99,235.87 221.08,237.31 222.18,233.94 223.27,228.61 224.37,229.29 225.46,230.93 226.55,227.67 227.65,220.04 228.75,210.14 229.84,206.66 230.93,207.11 232.02,211.32 233.12,216.63 234.21,221.05 235.31,213.31 236.40,209.80 237.49,211.45 238.59,209.88 239.68,206.32 240.77,209.66 241.87,215.25 242.96,217.37 244.05,215.90 245.15,212.71 246.24,214.70 247.34,217.70 248.43,220.62 249.52,233.16 250.62,233.77 251.72,228.93 252.81,230.29 253.90,233.49 255.00,232.52 256.09,234.42 257.18,237.78 258.27,241.44 259.37,235.06 260.46,237.66 261.56,242.23 262.65,246.61 263.75,248.33 264.84,243.90 265.93,240.66 267.03,238.37 268.12,236.14 269.22,238.79 270.31,244.60 271.40,253.35 272.50,255.11 273.59,249.82 274.68,250.94 275.78,249.86 276.86,240.65 277.97,231.04 279.06,219.27 280.15,211.69 281.24,203.88 282.33,195.05 283.43,188.04 284.53,182.62 285.62,180.01 286.71,173.75 287.80,175.87 288.90,184.30 290.00,191.22 291.09,193.83 292.18,199.59 293.27,207.54 294.37,208.04 295.47,202.94 296.55,200.64 297.65,204.39 298.74,214.33 299.84,214.72 300.93,218.06 302.03,225.12 303.12,234.42 304.21,229.22 305.31,231.59 306.40,226.98 307.49,226.61 308.58,227.92 309.68,230.66 310.78,232.96 311.87,237.05 312.96,243.99 314.05,251.40 315.15,250.64 316.24,245.50 317.34,236.86 318.43,232.51 319.52,232.09 320.62,226.97 321.71,220.50 322.80,215.39 323.90,219.30 325.00,226.90 326.08,234.77 327.18,240.63 328.27,237.91 329.37,237.59 330.46,240.73 331.55,246.07 332.65,246.31 333.74,248.66 334.83,243.48 335.93,242.88 337.03,247.28 338.12,248.21 339.21,243.29 340.31,241.60 341.40,237.48 342.49,229.81 343.59,221.44 344.68,214.87 345.77,213.18 346.86,209.42 347.96,208.13 349.06,206.71 350.15,202.02 351.24,199.09 352.33,199.67 353.43,203.43 354.53,203.31 355.61,198.89 356.72,199.11 357.81,200.19 358.90,204.78 359.99,206.20 361.09,204.51 362.18,199.96 363.27,203.63 364.37,209.24 365.46,218.24 366.56,227.70 367.65,233.95 368.74,238.93 369.83,242.52 370.93,248.45 372.03,254.23 373.12,258.08 374.21,255.87 375.30,251.69 376.40,253.74 377.49,253.92 378.58,254.80 379.68,253.68 380.77,256.87 381.87,251.74 382.96,255.04 384.05,254.69 385.15,246.81 386.25,248.01 387.34,249.96 388.43,250.22 389.53,250.66 390.62,252.76 391.71,248.55 392.81,242.71 393.90,236.95 394.99,229.57 396.08,218.75 397.18,212.66 398.27,210.93 399.37,213.85 400.46,220.02 401.56,226.03 402.65,223.72 403.74,220.43 404.83,223.46 405.93,230.01 407.03,235.75 408.12,240.83 409.21,239.49 410.31,235.48 411.40,234.10 412.49,235.96 413.58,235.05 414.68,229.59 415.77,230.79 416.86,226.19 417.96,228.37 419.05,233.04 420.15,233.34 421.24,234.07 422.34,238.16 423.43,237.11 424.52,232.41 425.61,227.53 426.71,223.92 427.81,223.98 428.90,218.22 429.99,217.49 431.09,211.03 432.18,204.51 433.27,206.02 434.36,201.29 435.46,193.23 436.55,187.80 437.65,178.65 438.75,181.59 439.83,190.26 440.93,195.27 442.02,195.43 443.12,204.63 444.21,202.11 445.31,205.95 446.40,212.40 447.49,228.58 448.58,238.45 449.68,243.15 450.77,243.14 451.87,236.35 452.96,235.15 454.06,238.71 455.15,232.75 456.24,232.05 457.33,234.80 458.43,234.96 459.52,236.60 460.62,236.99 461.71,235.27 462.81,244.84 463.89,243.73 464.99,236.83 466.09,239.46 467.18,245.39 468.27,242.03 469.37,235.76 470.46,234.44 471.56,234.51 472.64,236.05 473.74,232.78 474.83,231.30 475.93,238.31 477.02,241.63 478.11,239.27 479.21,241.61 480.30,243.32 481.40,240.76 482.49,237.18 483.59,241.74 484.68,248.98 485.77,248.97 486.87,246.90 487.96,243.25 489.06,239.79 490.15,228.78 491.24,231.74 492.33,235.06 493.43,232.58 494.53,226.78 495.62,223.06 496.71,228.75 497.81,226.46 498.90,232.62 499.99,239.20 501.08,249.05 502.18,251.79 503.27,252.73 504.37,252.37 505.46,249.57 506.55,242.10 507.64,237.32 508.74,237.76 509.84,243.62 510.93,244.86 512.02,246.33 513.12,245.56 514.21,238.56 515.30,234.63 516.39,226.13 517.49,224.66 518.59,225.43 519.68,220.85 520.78,213.82 521.86,214.86 522.96,220.75 524.05,223.74 525.15,215.77 526.24,213.34 527.34,220.05 528.43,222.91 529.52,219.02 530.62,220.88 531.71,223.91 532.80,227.76 533.89,227.23 534.99,228.77 536.08,231.68 537.18,234.58 538.27,237.12 539.37,238.34 540.46,239.97 541.56,241.22 542.64,239.32 543.74,241.06 544.84,243.93 545.92,240.20 547.02,239.40 548.12,236.55 549.21,233.99 550.30,232.72 551.39,236.73 552.49,244.19 553.58,243.30 554.68,241.45 555.78,238.82 556.87,246.02 557.96,249.38 559.05,244.41 560.15,240.94 561.24,235.96 562.33,228.83 563.43,226.21 564.52,228.30 565.61,230.96 566.71,231.44 567.81,227.08 568.90,223.85 569.99,228.54 571.08,226.17 572.18,226.01 573.27,232.26 574.37,223.70 575.46,226.23 576.55,229.90 577.64,233.42 578.74,228.67 579.83,228.47 580.93,229.43 582.02,235.71 583.12,239.67 584.21,244.17 585.31,243.39 586.40,238.44 587.49,245.45 588.58,246.78 589.67,250.44 590.77,252.17 591.87,244.55 592.96,244.65 594.05,252.54 595.15,247.93 596.24,242.81 597.33,237.06 598.43,228.62 599.52,222.82 600.62,217.55 601.71,223.30 602.81,229.90 603.89,225.69 605.00,221.03 606.08,216.62 607.18,218.77 608.27,223.88 609.37,225.54 610.46,229.76 611.56,237.80 612.65,246.03 613.74,243.28 614.83,240.58 615.93,236.57 617.02,242.14 618.12,244.81 619.21,247.54 620.30,247.56 621.40,256.82 622.49,254.54 623.59,251.87 624.68,257.43 625.77,256.60 626.86,252.49 627.96,247.65 629.05,252.22 630.14,251.09 631.24,247.80 632.34,244.97 633.43,242.90 634.52,240.31 635.62,241.58 636.71,243.58 637.80,240.75 638.90,242.23 639.99,243.63 641.09,247.67 642.18,247.15 643.27,243.81 644.36,240.55 645.46,248.04 646.55,253.20 647.65,252.44 648.74,249.49 649.83,256.19 650.93,258.97 652.02,255.91 653.11,253.37 654.21,254.27 655.30,254.06 656.39,255.38 657.49,255.17 658.59,249.22 659.68,245.72 660.78,253.03 661.86,250.91 662.96,243.64 664.05,242.44 665.14,237.53 666.24,243.14 667.33,248.88 668.43,248.62 669.52,251.35 670.61,250.48 671.71,251.68 672.80,252.83 673.89,254.55 674.99,257.35 676.08,251.82 677.18,256.13 678.28,259.86 679.37,256.56 680.46,254.34 681.55,252.41 682.65,251.71 683.74,247.82 684.84,251.51 685.92,252.62 687.02,253.99 688.11,251.41 689.21,250.61 690.31,255.30 691.39,258.09 692.49,255.35 693.58,250.13 694.67,249.26 695.77,252.93 696.87,255.45 697.96,259.81 699.05,256.56 700.15,255.90 701.24,257.46 702.34,253.14 703.43,255.55 704.52,254.70 705.61,258.38 706.71,259.29 707.80,263.08 708.90,259.29 709.99,259.42 711.09,256.18 712.18,254.61 713.27,250.52 714.37,245.70 715.46,240.75 716.55,240.57 717.65,243.67 718.74,243.23 719.84,241.29 720.93,239.66 722.02,242.48 723.12,247.75 724.21,249.71 725.30,254.44 726.39,257.53 727.49,256.78 728.59,257.15 729.68,249.27 730.77,249.66 731.86,251.06 732.96,250.85 734.05,252.48 735.15,253.93 736.24,257.06 737.34,257.64 738.42,258.58 739.52,261.35 740.61,252.59 741.71,254.58 742.80,253.65 743.90,247.50 744.99,248.25 746.08,254.07 747.18,252.14 748.28,253.07 749.36,253.29 750.46,251.07 751.56,250.81 752.64,250.57 753.74,246.83 754.83,243.45 755.92,250.16 757.02,253.64 758.12,245.83 759.20,242.23 760.30,246.19 761.39,250.29 762.49,246.75 763.58,243.91 764.68,248.36 765.77,254.40 766.87,253.98 767.96,251.92 769.05,240.95 770.15,233.27 771.24,236.71 772.34,236.67 773.43,240.13 774.52,246.21 775.62,248.67 776.71,252.01 777.80,255.04 778.89,252.04 779.99,252.24 781.08,256.26 782.17,259.98 783.27,262.77 784.37,264.01 785.46,266.27 786.55,270.27 787.64,273.24 788.74,274.35 789.83,267.93 790.92,261.45 792.02,264.30 793.11,269.07 794.21,268.35 795.30,264.93 796.40,263.60 797.49,263.01 798.58,260.77 799.68,257.41 800.77,251.05 801.87,249.48 802.96,250.56 804.06,257.57 805.15,257.33 806.24,256.83 807.34,258.66 808.42,256.88 809.52,259.51 810.61,257.99 811.71,257.76 812.80,261.34 813.90,264.88 814.99,266.01 816.09,263.88 817.18,261.60 818.27,262.33 819.37,261.96 820.46,256.61 821.55,253.53 822.65,253.45 823.74,252.95 824.84,252.10 825.92,254.24 827.02,258.02 828.11,257.48 829.21,253.83 830.30,254.68 831.39,260.66 832.49,260.15 833.58,264.50 834.68,263.23 835.77,262.11 836.86,258.07 837.96,260.32 839.05,266.47 840.15,270.90 841.24,263.26 842.33,258.27 843.43,261.42 844.52,267.51 845.62,270.61 846.70,268.44 847.80,269.03 848.89,266.76 849.98,263.13 851.09,267.77 852.17,269.55 853.27,269.59 854.37,267.68 855.46,263.02 856.55,256.06 857.64,257.41 858.74,258.85 859.83,264.64 860.93,265.95 862.02,262.29 863.11,259.01 864.21,262.04 865.30,261.78 866.40,266.46 867.49,264.53 868.59,267.98 869.68,273.89 870.77,271.75 871.86,271.35 872.96,275.15 874.05,274.40 875.14,275.99 876.24,271.16 877.33,270.88 878.43,270.56 879.52,270.80 880.61,266.68 881.71,268.11 882.80,269.99 883.90,263.99 884.99,259.52 886.08,267.89 887.17,264.27 888.27,260.45 889.36,259.20 890.46,263.62 891.55,262.94 892.65,259.02 893.74,258.86 894.83,257.02 895.92,255.98 897.02,257.68 898.11,264.41 899.21,265.15 900.30,265.01 901.39,267.32 902.49,261.28 903.58,261.61 904.67,265.15 905.77,263.32 906.86,258.50 907.95,256.68 909.05,255.44 910.15,257.26 911.23,256.65 912.34,259.96 913.43,261.52 914.52,263.79 915.61,264.75 916.71,265.17 917.80,266.85 918.89,268.32 919.99,269.89 921.08,273.08 922.18,271.32 923.27,272.74 924.37,272.06 925.46,266.23 926.55,263.14 927.64,265.67 928.74,268.65 929.83,274.61 930.93,269.81 932.02,270.08 933.11,273.01 934.20,273.63 935.30,272.11 936.39,270.78 937.49,273.45 938.58,273.67 939.68,274.62 940.77,270.72 941.86,270.93 942.95,276.15 944.05,269.15 945.15,265.11 946.24,269.51 947.33,275.18 948.42,276.61 949.52,272.49 950.61,270.45 951.71,275.00 952.80,272.19 953.90,268.57 954.99,268.17 955.00,268.17" fill="none" stroke="#b63472" stroke-width="1.8"/><path d="M670 450h20" stroke="#b63472" stroke-width="3"/><text x="696" y="454" font-family="Arial" font-size="12">center</text></svg>